<svg width="1920" height="400" viewBox="0 0 1920 400" fill="none" xmlns="http://www.w3.org/2000/svg">
<g clip-path="url(#clip0_642_319)">
<path d="M1282.9 281.5V319.7L1283.5 320.3L1284.1 319.7V281.5L1283.5 280.9L1282.9 281.5Z" fill="#92795A"/>
<path d="M1283.5 267.7C1279.9 267.7 1276.9 270.7 1276.9 274.3C1276.9 277.9 1279.9 280.9 1283.5 280.9C1287.1 280.9 1290.1 277.9 1290.1 274.3C1290.1 270.6 1287.2 267.7 1283.5 267.7ZM1283.5 282.1C1279.2 282.1 1275.7 278.6 1275.7 274.3C1275.7 270 1279.2 266.5 1283.5 266.5C1287.8 266.5 1291.3 270 1291.3 274.3C1291.4 278.6 1287.8 282.1 1283.5 282.1Z" fill="#92795A"/>
<path d="M1285.9 283.1H1281.2L1280.5 282.4L1281.2 281.8H1285.9L1286.5 282.4L1285.9 283.1Z" fill="#92795A"/>
<path d="M1283.5 300.3L1282.9 299.8C1282.4 297.9 1280.6 292.9 1278.6 292C1276.9 291.3 1276.1 291.5 1276.1 291.5L1275.3 291L1275.7 290.2C1275.8 290.2 1276.9 289.9 1279 290.8C1281.9 292 1283.8 298.6 1284 299.4L1283.6 300.2L1283.5 300.3Z" fill="#92795A"/>
<path d="M1272.4 288.3C1270.8 288.3 1269.4 289.6 1269.4 291.3C1269.4 293 1270.7 294.3 1272.4 294.3C1274 294.3 1275.4 293 1275.4 291.3C1275.4 289.6 1274 288.3 1272.4 288.3ZM1272.4 295.5C1270.1 295.5 1268.2 293.6 1268.2 291.3C1268.2 289 1270.1 287.1 1272.4 287.1C1274.7 287.1 1276.6 289 1276.6 291.3C1276.6 293.6 1274.7 295.5 1272.4 295.5Z" fill="#92795A"/>
<path d="M1276.7 293.4L1276.1 292.7V289.1L1276.7 288.4L1277.3 289.1V292.7L1276.7 293.4Z" fill="#92795A"/>
<path d="M1283.5 300.3H1283.3L1282.9 299.5C1283.1 298.7 1285 292.1 1287.9 290.9C1290 290 1291.1 290.3 1291.2 290.3L1291.6 291.1L1290.8 291.5C1290.8 291.5 1290 291.3 1288.3 292C1286.3 292.8 1284.5 297.9 1284 299.8L1283.5 300.3Z" fill="#92795A"/>
<path d="M1294.7 288.3C1293.1 288.3 1291.7 289.6 1291.7 291.3C1291.7 293 1293 294.3 1294.7 294.3C1296.3 294.3 1297.7 293 1297.7 291.3C1297.7 289.6 1296.3 288.3 1294.7 288.3ZM1294.7 295.5C1292.4 295.5 1290.5 293.6 1290.5 291.3C1290.5 289 1292.4 287.1 1294.7 287.1C1297 287.1 1298.9 289 1298.9 291.3C1298.9 293.6 1297 295.5 1294.7 295.5Z" fill="#92795A"/>
<path d="M1290.3 293.4L1289.7 292.7V289.1L1290.3 288.4L1291 289.1V292.7L1290.3 293.4Z" fill="#92795A"/>
<path d="M1279.6 274L1279 273.4C1279 271.3 1280.7 269.6 1282.8 269.6L1283.4 270.2L1282.8 270.8C1281.4 270.8 1280.3 271.9 1280.3 273.3L1279.6 274Z" fill="#92795A"/>
<path d="M1279.7 322.8H1287.3V320.4H1279.7V322.8ZM1287.9 324H1279.1L1278.5 323.4V319.7L1279.1 319.1H1287.9L1288.5 319.7V323.4L1287.9 324Z" fill="#92795A"/>
<path d="M0 0H1920V210H0V0Z" fill="url(#paint0_linear_642_319)"/>
<path d="M961.2 323.6L960.5 322.9V306.3L961.2 305.7L961.8 306.3V322.9L961.2 323.6Z" fill="#92795A"/>
<path d="M956.9 305.7H965.5V284H956.9V305.7ZM966.1 306.9H956.3L955.7 306.3V283.4L956.3 282.8H966.1L966.7 283.4V306.3L966.1 306.9Z" fill="#92795A"/>
<path d="M961.2 286.1C960 286.1 959.1 287 959.1 288.2C959.1 289.4 960 290.3 961.2 290.3C962.4 290.3 963.3 289.4 963.3 288.2C963.2 287 962.3 286.1 961.2 286.1ZM961.2 291.5C959.4 291.5 957.9 290 957.9 288.2C957.9 286.4 959.4 284.9 961.2 284.9C963 284.9 964.5 286.4 964.5 288.2C964.5 290 963 291.5 961.2 291.5Z" fill="#92795A"/>
<path d="M961.2 292.7C960 292.7 959.1 293.6 959.1 294.8C959.1 296 960 296.9 961.2 296.9C962.4 296.9 963.3 296 963.3 294.8C963.2 293.6 962.3 292.7 961.2 292.7ZM961.2 298.1C959.4 298.1 957.9 296.6 957.9 294.8C957.9 293 959.4 291.5 961.2 291.5C963 291.5 964.5 293 964.5 294.8C964.5 296.6 963 298.1 961.2 298.1Z" fill="#92795A"/>
<path d="M961.2 299.3C960 299.3 959.1 300.2 959.1 301.4C959.1 302.6 960 303.5 961.2 303.5C962.4 303.5 963.3 302.6 963.3 301.4C963.2 300.2 962.3 299.3 961.2 299.3ZM961.2 304.7C959.4 304.7 957.9 303.2 957.9 301.4C957.9 299.6 959.4 298.1 961.2 298.1C963 298.1 964.5 299.6 964.5 301.4C964.5 303.2 963 304.7 961.2 304.7Z" fill="#92795A"/>
<path d="M1031.9 336.7H1009.3L1008.7 336L1009.3 335.4H1031.9L1032.5 336L1031.9 336.7Z" fill="#92795A"/>
<path d="M1046.4 336.7H1039.9L1039.3 336.1L1039.9 335.5H1046.4C1047.9 335.5 1049.2 334.3 1049.2 332.7C1049.2 331.1 1048 329.9 1046.4 329.9H996.3C994.8 329.9 993.5 331.1 993.5 332.7C993.5 334.3 994.7 335.5 996.3 335.5H1001.5L1002.1 336.1L1001.5 336.7H996.3C994.1 336.7 992.3 334.9 992.3 332.7C992.3 330.5 994.1 328.7 996.3 328.7H1046.4C1048.6 328.7 1050.4 330.5 1050.4 332.7C1050.4 334.9 1048.6 336.7 1046.4 336.7Z" fill="#92795A"/>
<path d="M1005.4 333C1003.7 333 1002.2 334.3 1002.1 336.1V336.3C1002.1 338.1 1003.6 339.6 1005.4 339.6C1007.2 339.6 1008.7 338.1 1008.7 336.3C1008.7 334.5 1007.2 333 1005.4 333ZM1005.4 340.9C1002.9 340.9 1000.9 338.9 1000.9 336.4V336.1C1001.1 333.7 1003.1 331.9 1005.4 331.9C1007.9 331.9 1009.9 333.9 1009.9 336.4C1009.9 338.8 1007.9 340.9 1005.4 340.9Z" fill="#92795A"/>
<path d="M1036 333C1034.2 333 1032.7 334.5 1032.7 336.3C1032.7 338.1 1034.2 339.6 1036 339.6C1037.8 339.6 1039.3 338.1 1039.3 336.3C1039.3 334.5 1037.8 333 1036 333ZM1036 340.9C1033.5 340.9 1031.5 338.9 1031.5 336.4C1031.5 333.9 1033.5 331.9 1036 331.9C1038.5 331.9 1040.5 333.9 1040.5 336.4C1040.5 338.8 1038.5 340.9 1036 340.9Z" fill="#92795A"/>
<path d="M971.1 330.7L970.5 330.1V314.1C970.5 312.3 972 310.8 973.8 310.8H1009.9C1018.8 310.8 1026 318 1026 326.9V330L1025.4 330.6L1024.8 330V326.9C1024.8 318.7 1018.1 312.1 1010 312.1H973.9C972.8 312.1 971.8 313 971.8 314.2V330.2L971.1 330.7Z" fill="#92795A"/>
<path d="M1026 317.8L1025.8 318V322.7L1026 322.9H1039.2L1039.4 322.7V321.8C1039.4 319.6 1037.6 317.9 1035.5 317.9H1026V317.8ZM1039.1 324.1H1026C1025.2 324.1 1024.6 323.5 1024.6 322.7V318C1024.6 317.2 1025.2 316.6 1026 316.6H1035.4C1038.3 316.6 1040.6 318.9 1040.6 321.8V322.7C1040.5 323.4 1039.9 324.1 1039.1 324.1Z" fill="#92795A"/>
<path d="M1001.2 317.8L1000.8 318.2V322.4L1001.2 322.8H1019.3L1019.7 322.4V318.2L1019.3 317.8H1001.2ZM1019.2 324.1H1001.1C1000.2 324.1 999.4 323.4 999.4 322.4V318.2C999.4 317.3 1000.2 316.5 1001.1 316.5H1019.2C1020.1 316.5 1020.9 317.3 1020.9 318.2V322.4C1020.9 323.3 1020.1 324.1 1019.2 324.1Z" fill="#92795A"/>
<path d="M994.7 327.2H998.1V325.7H994.7V327.2ZM998.3 328.4H994.6L993.5 327.3V325.4L994.6 324.3H998.3L999.4 325.4V327.3L998.3 328.4Z" fill="#92795A"/>
<path d="M1048.3 329C1046.5 329 1045 327.5 1045 325.7C1045 324.1 1046.1 322.8 1047.6 322.5L1048.3 323L1047.8 323.7C1046.9 323.9 1046.2 324.7 1046.2 325.7C1046.2 326.8 1047.1 327.8 1048.3 327.8L1048.9 328.4L1048.3 329Z" fill="#92795A"/>
<path d="M1139.8 372.3H1112.8L1112.1 371.6L1112.8 371H1139.8L1140.4 371.6L1139.8 372.3Z" fill="#92795A"/>
<path d="M1155.2 372.3H1149.1L1148.5 371.7L1149.1 371.1H1155.2C1157.1 371.1 1158.6 369.6 1158.6 367.7C1158.6 365.8 1157.1 364.3 1155.2 364.3H1095.4C1093.5 364.3 1092 365.8 1092 367.7C1092 369.6 1093.5 371.1 1095.4 371.1H1103.2L1103.8 371.7L1103.2 372.3H1095.4C1092.8 372.3 1090.7 370.2 1090.7 367.6C1090.7 365 1092.8 362.9 1095.4 362.9H1155.2C1157.8 362.9 1159.9 365 1159.9 367.6C1159.9 370.2 1157.8 372.3 1155.2 372.3Z" fill="#92795A"/>
<path d="M1144.4 367.9C1142.2 367.9 1140.4 369.7 1140.4 371.9C1140.4 374.1 1142.2 375.9 1144.4 375.9C1146.6 375.9 1148.4 374.1 1148.4 371.9V371.6C1148.3 369.6 1146.5 367.9 1144.4 367.9ZM1144.4 377.3C1141.5 377.3 1139.1 374.9 1139.1 372C1139.1 369.1 1141.5 366.7 1144.4 366.7C1147.2 366.7 1149.5 368.9 1149.7 371.6V372C1149.7 374.9 1147.3 377.3 1144.4 377.3Z" fill="#92795A"/>
<path d="M1107.9 367.9C1105.7 367.9 1103.9 369.7 1103.9 371.9C1103.9 374.1 1105.7 375.9 1107.9 375.9C1110.1 375.9 1111.9 374.1 1111.9 371.9C1111.9 369.7 1110.1 367.9 1107.9 367.9ZM1107.9 377.3C1105 377.3 1102.6 374.9 1102.6 372C1102.6 369.1 1105 366.7 1107.9 366.7C1110.8 366.7 1113.2 369.1 1113.2 372C1113.2 374.9 1110.8 377.3 1107.9 377.3Z" fill="#92795A"/>
<path d="M1093.1 364.9L1092.5 364.3V360.6C1092.5 350.1 1101.1 341.5 1111.6 341.5H1120.8L1121.4 342.1L1120.8 342.7H1111.6C1101.8 342.7 1093.8 350.7 1093.8 360.5V364.2L1093.1 364.9Z" fill="#92795A"/>
<path d="M1107.6 349.7C1105.6 349.7 1103.9 351.4 1103.9 353.4V355.8L1104 355.9H1113.6L1113.7 355.8V349.8L1113.6 349.7H1107.6ZM1113.6 357.2H1104C1103.2 357.2 1102.6 356.6 1102.6 355.8V353.4C1102.6 350.7 1104.8 348.4 1107.6 348.4H1113.7C1114.5 348.4 1115.1 349 1115.1 349.8V355.8C1115 356.6 1114.4 357.2 1113.6 357.2Z" fill="#92795A"/>
<path d="M1093.2 363.2L1092.6 362.6L1093.2 362C1094.6 362 1095.8 360.8 1095.8 359.4C1095.8 358.2 1094.9 357.1 1093.7 356.9L1093.2 356.2L1093.9 355.7C1095.7 356.1 1096.9 357.6 1096.9 359.4C1097.1 361.4 1095.4 363.2 1093.2 363.2Z" fill="#92795A"/>
<path d="M1121.4 362.9H1156.3V332.9H1121.4V362.9ZM1156.9 364.2H1120.7L1120.1 363.6V332.4L1120.7 331.8H1156.9L1157.5 332.4V363.6L1156.9 364.2Z" fill="#92795A"/>
<path d="M1127.3 359.4H1150.3V338.8H1127.3V359.4ZM1151 360.7H1126.7L1126.1 360.1V338.2L1126.7 337.6H1151L1151.6 338.2V360L1151 360.7Z" fill="#92795A"/>
<path d="M756 335.7H736.4L735.8 335.1L736.4 334.5H756L756.6 335.1L756 335.7Z" fill="#92795A"/>
<path d="M772.2 335.7H763.6L763 335.1L763.6 334.5H772.2C773.1 334.5 773.9 333.8 773.9 332.8C773.9 331.8 773.2 331.1 772.2 331.1H720.2C719.3 331.1 718.5 331.8 718.5 332.8C718.5 333.7 719.2 334.5 720.2 334.5H728.8L729.4 335.1L728.8 335.7H720.2C718.6 335.7 717.3 334.4 717.3 332.8C717.3 331.2 718.6 329.9 720.2 329.9H772.2C773.8 329.9 775.1 331.2 775.1 332.8C775.1 334.4 773.8 335.7 772.2 335.7Z" fill="#92795A"/>
<path d="M732.6 332.9C730.7 332.9 729.2 334.4 729.2 336.3C729.2 338.2 730.7 339.7 732.6 339.7C734.5 339.7 736 338.2 736 336.3C735.9 334.4 734.4 332.9 732.6 332.9ZM732.6 340.9C730.1 340.9 728 338.8 728 336.3C728 333.8 730.1 331.7 732.6 331.7C735.1 331.7 737.2 333.8 737.2 336.3C737.2 338.8 735.1 340.9 732.6 340.9Z" fill="#92795A"/>
<path d="M759.8 332.9C757.9 332.9 756.4 334.4 756.4 336.3C756.4 338.2 757.9 339.7 759.8 339.7C761.7 339.7 763.2 338.2 763.2 336.3C763.2 334.4 761.7 332.9 759.8 332.9ZM759.8 340.9C757.3 340.9 755.2 338.8 755.2 336.3C755.2 333.8 757.3 331.7 759.8 331.7C762.3 331.7 764.4 333.8 764.4 336.3C764.4 338.8 762.4 340.9 759.8 340.9Z" fill="#92795A"/>
<path d="M734.2 320.5C732.8 320.5 731.6 321.7 731.6 323.1V324.3C731.6 325.7 732.8 326.9 734.2 326.9H756.1C757.5 326.9 758.7 325.7 758.7 324.3V324C758.7 322 757.1 320.4 755.1 320.4H734.2V320.5ZM756.1 328.2H734.2C732.1 328.2 730.4 326.5 730.4 324.4V323.2C730.4 321.1 732.1 319.3 734.2 319.3H755.1C757.8 319.3 759.9 321.5 759.9 324.1V324.4C759.9 326.5 758.2 328.2 756.1 328.2Z" fill="#92795A"/>
<path d="M721.8 329.9H770.6C770.1 322.6 760.2 316.8 748.1 316.8H748H725.3C723.3 316.8 721.8 318.5 721.8 320.7V329.9ZM771.2 331.2H721.1L720.5 330.6V320.7C720.5 317.9 722.6 315.6 725.3 315.6H748C761.1 315.6 771.8 322.3 771.8 330.6L771.2 331.2Z" fill="#92795A"/>
<path d="M745.2 328.2L744.5 327.6V319.9L745.2 319.3L745.8 319.9V327.6L745.2 328.2Z" fill="#92795A"/>
<path d="M723.4 331.2H721.3L720.7 330.6L721.3 330H723.4L724 329.1L723.4 328.2H721.3L720.7 327.6L721.3 327H723.4C724.4 327 725.3 328 725.3 329.1C725.3 330.2 724.5 331.2 723.4 331.2Z" fill="#92795A"/>
<path d="M771.2 330.7C769 330.7 767 328.9 767 326.9C767 325.7 767.5 324.6 768.5 323.9L769.4 324L769.3 324.9C768.7 325.4 768.3 326.1 768.3 326.9C768.3 328.4 769.8 329.4 771.2 329.4L771.8 330L771.2 330.7Z" fill="#92795A"/>
<path d="M631.5 348.6H616.6L616 348L616.6 347.4H631.5L632.1 348L631.5 348.6ZM661.3 348.6H646.4L645.8 348L646.4 347.4H661.3L661.9 348L661.3 348.6ZM691.2 348.6H676.3L675.7 348L676.3 347.4H691.2L691.8 348L691.2 348.6ZM721 348.6H706.1L705.5 348L706.1 347.4H721L721.6 348L721 348.6ZM750.9 348.6H736L735.4 348L736 347.4H750.9L751.5 348L750.9 348.6ZM780.7 348.6H765.8L765.2 348L765.8 347.4H780.7L781.3 348L780.7 348.6ZM810.6 348.6H795.7L795 348L795.6 347.4H810.5L811.1 348L810.6 348.6ZM840.4 348.6H825.5L824.9 348L825.5 347.4H840.4L841 348L840.4 348.6ZM870.3 348.6H855.4L854.8 348L855.4 347.4H870.3L870.9 348L870.3 348.6ZM900.1 348.6H885.2L884.6 348L885.2 347.4H900.1L900.7 348L900.1 348.6ZM929.9 348.6H915L914.4 348L915 347.4H929.9L930.5 348L929.9 348.6ZM959.8 348.6H944.9L944.3 348L944.9 347.4H959.8L960.4 348L959.8 348.6ZM989.6 348.6H974.7L974.1 348L974.7 347.4H989.6L990.2 348L989.6 348.6ZM1019.5 348.6H1004.6L1004 348L1004.6 347.4H1019.5L1020.1 348L1019.5 348.6ZM1049.3 348.6H1034.4L1033.8 348L1034.4 347.4H1049.3L1049.9 348L1049.3 348.6ZM1079.2 348.6H1064.3L1063.7 348L1064.3 347.4H1079.2L1079.8 348L1079.2 348.6Z" fill="#92795A"/>
<path d="M1260.7 348.6H1245.8L1245.2 348L1245.8 347.4H1260.7L1261.3 348L1260.7 348.6ZM1290.5 348.6H1275.6L1275 348L1275.6 347.4H1290.5L1291.1 348L1290.5 348.6ZM1320.3 348.6H1305.4L1304.8 348L1305.4 347.4H1320.3L1320.9 348L1320.3 348.6ZM1350.2 348.6H1335.3L1334.7 348L1335.3 347.4H1350.2L1350.8 348L1350.2 348.6ZM1380 348.6H1365.1L1364.5 348L1365.1 347.4H1380L1380.6 348L1380 348.6ZM1409.9 348.6H1395L1394.4 348L1395 347.4H1409.9L1410.5 348L1409.9 348.6ZM1439.7 348.6H1424.8L1424.2 348L1424.8 347.4H1439.7L1440.3 348L1439.7 348.6ZM1469.6 348.6H1454.7L1454.1 348L1454.7 347.4H1469.6L1470.2 348L1469.6 348.6ZM1499.4 348.6H1484.5L1483.9 348L1484.5 347.4H1499.4L1500 348L1499.4 348.6ZM1529.3 348.6H1514.4L1513.8 348L1514.4 347.4H1529.3L1529.9 348L1529.3 348.6ZM1559.1 348.6H1544.2L1543.6 348L1544.2 347.4H1559.1L1559.7 348L1559.1 348.6ZM1589 348.6H1574L1573.4 348L1574 347.4H1588.9L1589.5 348L1589 348.6ZM1618.8 348.6H1603.9L1603.3 348L1603.9 347.4H1618.8L1619.4 348L1618.8 348.6ZM1648.6 348.6H1633.7L1633.1 348L1633.7 347.4H1648.6L1649.2 348L1648.6 348.6ZM1678.5 348.6H1663.6L1663 348L1663.6 347.4H1678.5L1679.1 348L1678.5 348.6ZM1708.3 348.6H1693.4L1692.8 348L1693.4 347.4H1708.3L1708.9 348L1708.3 348.6Z" fill="#92795A"/>
<path d="M1738.1 348.6H1723.2L1722.6 348L1723.2 347.4H1738.1L1738.7 348L1738.1 348.6ZM1768 348.6H1753L1752.4 348L1753 347.4H1767.9L1768.5 348L1768 348.6ZM1797.8 348.6H1782.9L1782.3 348L1782.9 347.4H1797.8L1798.4 348L1797.8 348.6ZM1827.6 348.6H1812.7L1812.1 348L1812.7 347.4H1827.6L1828.2 348L1827.6 348.6ZM1857.5 348.6H1842.6L1842 348L1842.6 347.4H1857.5L1858.1 348L1857.5 348.6ZM1887.3 348.6H1872.4L1871.8 348L1872.4 347.4H1887.3L1887.9 348L1887.3 348.6ZM1917.2 348.6H1902.3L1901.7 348L1902.3 347.4H1917.2L1917.8 348L1917.2 348.6Z" fill="#92795A"/>
<path d="M155 348.6H140L139.4 348L140 347.4H155L155.6 348L155 348.6ZM184.8 348.6H169.9L169.3 348L169.9 347.4H184.8L185.4 348L184.8 348.6ZM214.6 348.6H199.7L199.1 348L199.7 347.4H214.6L215.2 348L214.6 348.6ZM244.5 348.6H229.6L229 348L229.6 347.4H244.5L245.1 348L244.5 348.6ZM274.3 348.6H259.4L258.8 348L259.4 347.4H274.3L274.9 348L274.3 348.6ZM304.2 348.6H289.3L288.7 348L289.3 347.4H304.2L304.8 348L304.2 348.6ZM334 348.6H319.1L318.5 348L319.1 347.4H334L334.6 348L334 348.6ZM363.9 348.6H349L348.4 348L349 347.4H363.9L364.5 348L363.9 348.6ZM393.7 348.6H378.8L378.2 348L378.8 347.4H393.7L394.3 348L393.7 348.6ZM423.6 348.6H408.7L408 348L408.6 347.4H423.5L424.1 348L423.6 348.6ZM453.4 348.6H438.5L437.9 348L438.5 347.4H453.4L454 348L453.4 348.6ZM483.3 348.6H468.4L467.8 348L468.4 347.4H483.3L483.9 348L483.3 348.6ZM513.1 348.6H498.2L497.6 348L498.2 347.4H513.1L513.7 348L513.1 348.6ZM542.9 348.6H528L527.4 348L528 347.4H542.9L543.5 348L542.9 348.6ZM572.8 348.6H557.9L557.3 348L557.9 347.4H572.8L573.4 348L572.8 348.6ZM602.6 348.6H587.7L587.1 348L587.7 347.4H602.6L603.2 348L602.6 348.6Z" fill="#92795A"/>
<path d="M-53 348.6H-67.9L-68.5 348L-67.9 347.4H-53L-52.4 348L-53 348.6ZM-23.1 348.6H-38L-38.6 348L-38 347.4H-23.1L-22.5 348L-23.1 348.6ZM6.7 348.6H-8.2L-8.8 348L-8.2 347.4H6.7L7.3 348L6.7 348.6ZM36.6 348.6H21.6L21 348L21.6 347.4H36.5L37.1 348L36.6 348.6ZM66.4 348.6H51.5L50.9 348L51.5 347.4H66.4L67 348L66.4 348.6ZM96.3 348.6H81.4L80.8 348L81.4 347.4H96.3L96.9 348L96.3 348.6ZM126.1 348.6H111.2L110.6 348L111.2 347.4H126.1L126.7 348L126.1 348.6Z" fill="#92795A"/>
<path d="M1177 348.6H1162.1L1161.5 348L1162.1 347.4H1177L1177.6 348L1177 348.6ZM1206.9 348.6H1192L1191.4 348L1192 347.4H1206.9L1207.5 348L1206.9 348.6ZM1229 348.6H1221.7L1221.1 348L1221.7 347.4H1229L1229.6 348L1229 348.6Z" fill="#92795A"/>
<path d="M1095.1 324H1025.6L1025 323.4L1025.6 322.8H1094.5V241H983.9V311L983.3 311.6L982.6 311V240.4L983.3 239.7H1095.1L1095.7 240.4V323.4L1095.1 324Z" fill="#92795A"/>
<path d="M1188 324H1095.1L1094.5 323.4V240.7L1095.1 240.1L1095.7 240.7V322.8H1187.4V150.6H1095.7V216.9L1095.1 217.6L1094.5 216.9V150L1095.1 149.3H1188L1188.6 150V323.4L1188 324Z" fill="#92795A"/>
<path d="M969.7 239.7H1094.4V217.5H984.6L969.7 239.7ZM1095.1 241H968.6L968.1 240.7V240.1L983.8 216.7L984.3 216.4H1095.1L1095.7 217V240.4L1095.1 241Z" fill="#92795A"/>
<path d="M1003.6 194.3H1074.7L1068 179.5H1011L1003.6 194.3ZM1075.7 195.5H1002.6L1002.1 195.2V194.6L1010.2 178.5L1010.8 178.2H1068.5L1069.1 178.6L1076.3 194.7V195.3L1075.7 195.5Z" fill="#92795A"/>
<path d="M1028 322.8H1050.3V295H1028V322.8ZM1051 324H1027.4L1026.8 323.4V294.4L1027.4 293.8H1051L1051.6 294.4V323.4L1051 324Z" fill="#92795A"/>
<path d="M1039.2 324L1038.5 323.4V301.2L1039.2 300.6L1039.8 301.2V323.4L1039.2 324Z" fill="#92795A"/>
<path d="M1074.4 275.6C1068 275.6 1062.9 280.8 1062.9 287.1V322.8H1087.4V287.1C1087.4 280.7 1082.2 275.6 1075.9 275.6H1074.4ZM1087.4 324H1062.8C1062.1 324 1061.6 323.5 1061.6 322.8V287.1C1061.6 280.1 1067.3 274.3 1074.4 274.3H1075.9C1082.9 274.3 1088.7 280 1088.7 287.1V322.8C1088.7 323.5 1088.1 324 1087.4 324Z" fill="#92795A"/>
<path d="M1016.1 313.2L1015.5 312.6V287.1C1015.5 280.7 1010.3 275.6 1004 275.6H1002.5C996.1 275.6 991 280.8 991 287.1V311.3L990.4 311.9L989.8 311.3V287.1C989.8 280.1 995.5 274.3 1002.6 274.3H1004.1C1011.1 274.3 1016.9 280 1016.9 287.1V312.6L1016.1 313.2Z" fill="#92795A"/>
<path d="M1129.7 299.8C1126.2 299.8 1123.3 302.7 1123.3 306.2V322.7L1123.4 322.8H1137.1L1137.2 322.7V306.2C1137.2 302.7 1134.3 299.8 1130.8 299.8H1129.7ZM1137.1 324H1123.4C1122.7 324 1122 323.4 1122 322.6V306.1C1122 301.9 1125.4 298.5 1129.6 298.5H1130.8C1135 298.5 1138.4 301.9 1138.4 306.1V322.6C1138.5 323.4 1137.8 324 1137.1 324Z" fill="#92795A"/>
<path d="M1152.2 299.8C1148.7 299.8 1145.8 302.7 1145.8 306.2V322.7L1145.9 322.8H1159.6L1159.7 322.7V306.2C1159.7 302.7 1156.8 299.8 1153.3 299.8H1152.2ZM1159.6 324H1145.9C1145.2 324 1144.5 323.4 1144.5 322.6V306.1C1144.5 301.9 1147.9 298.5 1152.1 298.5H1153.3C1157.5 298.5 1160.9 301.9 1160.9 306.1V322.6C1161 323.4 1160.4 324 1159.6 324Z" fill="#92795A"/>
<path d="M1024.9 293.5H1053.4V289H1024.9V293.5ZM1054 294.8H1024.3L1023.7 294.2V288.5L1024.3 287.9H1054L1054.6 288.5V294.2L1054 294.8Z" fill="#92795A"/>
<path d="M1034.1 282.3H1044.3V272.1H1034.1V282.3ZM1044.9 283.6H1033.4L1032.8 283V271.5L1033.4 270.9H1044.9L1045.5 271.5V283L1044.9 283.6Z" fill="#92795A"/>
<path d="M1034.1 211H1044.3V200.8H1034.1V211ZM1044.9 212.3H1033.4L1032.8 211.7V200.2L1033.4 199.6H1044.9L1045.5 200.2V211.7L1044.9 212.3Z" fill="#92795A"/>
<path d="M1103.1 177.5H1112.3V167.3H1103.1V177.5ZM1113 178.8H1102.5L1101.9 178.2V166.7L1102.5 166.1H1113L1113.6 166.7V178.2L1113 178.8Z" fill="#92795A"/>
<path d="M1123.6 177.5H1132.8V167.3H1123.6V177.5ZM1133.5 178.8H1123L1122.4 178.2V166.7L1123 166.1H1133.5L1134.1 166.7V178.2L1133.5 178.8Z" fill="#92795A"/>
<path d="M1150.2 177.5H1159.4V167.3H1150.2V177.5ZM1160 178.8H1149.5L1148.9 178.2V166.7L1149.5 166.1H1160L1160.6 166.7V178.2L1160 178.8Z" fill="#92795A"/>
<path d="M1170.7 177.5H1179.9V167.3H1170.7V177.5ZM1180.6 178.8H1170.1L1169.5 178.2V166.7L1170.1 166.1H1180.6L1181.2 166.7V178.2L1180.6 178.8Z" fill="#92795A"/>
<path d="M1103.1 200H1112.3V189.8H1103.1V200ZM1113 201.2H1102.5L1101.9 200.6V189.1L1102.5 188.5H1113L1113.6 189.1V200.6L1113 201.2Z" fill="#92795A"/>
<path d="M1123.6 200H1132.8V189.8H1123.6V200ZM1133.5 201.2H1123L1122.4 200.6V189.1L1123 188.5H1133.5L1134.1 189.1V200.6L1133.5 201.2Z" fill="#92795A"/>
<path d="M1150.2 200H1159.4V189.8H1150.2V200ZM1160 201.2H1149.5L1148.9 200.6V189.1L1149.5 188.5H1160L1160.6 189.1V200.6L1160 201.2Z" fill="#92795A"/>
<path d="M1170.7 200H1179.9V189.8H1170.7V200ZM1180.6 201.2H1170.1L1169.5 200.6V189.1L1170.1 188.5H1180.6L1181.2 189.1V200.6L1180.6 201.2Z" fill="#92795A"/>
<path d="M1103.1 222.4H1112.3V212.2H1103.1V222.4ZM1113 223.6H1102.5L1101.9 223V211.5L1102.5 210.9H1113L1113.6 211.5V223L1113 223.6Z" fill="#92795A"/>
<path d="M1123.6 222.4H1132.8V212.2H1123.6V222.4ZM1133.5 223.6H1123L1122.4 223V211.5L1123 210.9H1133.5L1134.1 211.5V223L1133.5 223.6Z" fill="#92795A"/>
<path d="M1150.2 222.4H1159.4V212.2H1150.2V222.4ZM1160 223.6H1149.5L1148.9 223V211.5L1149.5 210.9H1160L1160.6 211.5V223L1160 223.6Z" fill="#92795A"/>
<path d="M1170.7 222.4H1179.9V212.2H1170.7V222.4ZM1180.6 223.6H1170.1L1169.5 223V211.5L1170.1 210.9H1180.6L1181.2 211.5V223L1180.6 223.6Z" fill="#92795A"/>
<path d="M1123.6 244.8H1132.8V234.6H1123.6V244.8ZM1133.5 246H1123L1122.4 245.4V234L1123 233.4H1133.5L1134.1 234V245.5L1133.5 246Z" fill="#92795A"/>
<path d="M1103.1 244.8H1112.3V234.6H1103.1V244.8ZM1113 246H1102.5L1101.9 245.4V234L1102.5 233.4H1113L1113.6 234V245.5L1113 246Z" fill="#92795A"/>
<path d="M1150.2 244.8H1159.4V234.6H1150.2V244.8ZM1160 246H1149.5L1148.9 245.4V234L1149.5 233.4H1160L1160.6 234V245.5L1160 246Z" fill="#92795A"/>
<path d="M1170.7 244.8H1179.9V234.6H1170.7V244.8ZM1180.6 246H1170.1L1169.5 245.4V234L1170.1 233.4H1180.6L1181.2 234V245.5L1180.6 246Z" fill="#92795A"/>
<path d="M1103.1 267.2H1112.3V257H1103.1V267.2ZM1113 268.5H1102.5L1101.9 267.9V256.4L1102.5 255.8H1113L1113.6 256.4V267.9L1113 268.5Z" fill="#92795A"/>
<path d="M1123.6 267.2H1132.8V257H1123.6V267.2ZM1133.5 268.5H1123L1122.4 267.9V256.4L1123 255.8H1133.5L1134.1 256.4V267.9L1133.5 268.5Z" fill="#92795A"/>
<path d="M1150.2 267.2H1159.4V257H1150.2V267.2ZM1160 268.5H1149.5L1148.9 267.9V256.4L1149.5 255.8H1160L1160.6 256.4V267.9L1160 268.5Z" fill="#92795A"/>
<path d="M1170.7 267.2H1179.9V257H1170.7V267.2ZM1180.6 268.5H1170.1L1169.5 267.9V256.4L1170.1 255.8H1180.6L1181.2 256.4V267.9L1180.6 268.5Z" fill="#92795A"/>
<path d="M1103.1 289.6H1112.3V279.4H1103.1V289.6ZM1113 290.9H1102.5L1101.9 290.3V278.8L1102.5 278.2H1113L1113.6 278.8V290.3L1113 290.9Z" fill="#92795A"/>
<path d="M1123.6 289.6H1132.8V279.4H1123.6V289.6ZM1133.5 290.9H1123L1122.4 290.3V278.8L1123 278.2H1133.5L1134.1 278.8V290.3L1133.5 290.9Z" fill="#92795A"/>
<path d="M1150.2 289.6H1159.4V279.4H1150.2V289.6ZM1160 290.9H1149.5L1148.9 290.3V278.8L1149.5 278.2H1160L1160.6 278.8V290.3L1160 290.9Z" fill="#92795A"/>
<path d="M1170.7 289.6H1179.9V279.4H1170.7V289.6ZM1180.6 290.9H1170.1L1169.5 290.3V278.8L1170.1 278.2H1180.6L1181.2 278.8V290.3L1180.6 290.9Z" fill="#92795A"/>
<path d="M996.6 262.4H1007.2V252.2H996.6V262.4ZM1007.8 263.6H996L995.4 263V251.5L996 250.9H1007.8L1008.4 251.5V263L1007.8 263.6Z" fill="#92795A"/>
<path d="M1021.5 262.4H1032.1V252.2H1021.5V262.4ZM1032.6 263.6H1020.8L1020.2 263V251.5L1020.8 250.9H1032.6L1033.2 251.5V263L1032.6 263.6Z" fill="#92795A"/>
<path d="M1046.3 262.4H1056.9V252.2H1046.3V262.4ZM1057.5 263.6H1045.7L1045.1 263V251.5L1045.7 250.9H1057.5L1058.1 251.5V263L1057.5 263.6Z" fill="#92795A"/>
<path d="M1071.2 262.4H1081.8V252.2H1071.2V262.4ZM1082.4 263.6H1070.6L1070 263V251.5L1070.6 250.9H1082.4L1083 251.5V263L1082.4 263.6Z" fill="#92795A"/>
<path d="M1007.8 312L1007.1 311.3V299.8H998.9V311.3L998.3 312L997.7 311.3V299.2L998.3 298.6H1007.8L1008.4 299.2V311.3L1007.8 312Z" fill="#92795A"/>
<path d="M1071 322.8H1079.2V299.8H1071V322.8ZM1079.9 324H1070.4L1069.8 323.4V299.2L1070.4 298.6H1079.9L1080.5 299.2V323.4L1079.9 324Z" fill="#92795A"/>
<path d="M1013.8 216.3H1064.5V195.5H1013.8V216.3ZM1065.2 217.6H1013.2L1012.6 217V195L1013.2 194.4H1065.2L1065.8 195V217L1065.2 217.6Z" fill="#92795A"/>
<path d="M1188 159.4H1095.1L1094.5 158.8L1095.1 158.2H1188L1188.6 158.8L1188 159.4Z" fill="#92795A"/>
<path d="M1139.7 316.8H1118.1L1117.4 316.1L1118.1 315.5H1139.7L1140.3 316.1L1139.7 316.8Z" fill="#92795A"/>
<path d="M1211 316.8H1189.4L1188.7 316.1L1189.4 315.5H1211L1211.6 316.1L1211 316.8Z" fill="#92795A"/>
<path d="M1141.5 290.8L1140.9 290.2V166.8L1141.5 166.2L1142.2 166.8V290.2L1141.5 290.8Z" fill="#92795A"/>
<path d="M1130.3 324L1129.6 323.4V312.3L1130.3 311.7L1130.9 312.3V323.4L1130.3 324Z" fill="#92795A"/>
<path d="M1152.8 324L1152.2 323.4V312.3L1152.8 311.7L1153.4 312.3V323.4L1152.8 324Z" fill="#92795A"/>
<path d="M990.9 234.1H1002.5V227.6H990.9V234.1ZM1003.2 235.4H990.3L989.7 234.8V227L990.3 226.4H1003.2L1003.8 227V234.7L1003.2 235.4Z" fill="#92795A"/>
<path d="M1078.5 234.1H1090.1V227.6H1078.5V234.1ZM1090.8 235.4H1077.9L1077.3 234.8V227L1077.9 226.4H1090.8L1091.4 227V234.7L1090.8 235.4Z" fill="#92795A"/>
<path d="M817.4 322.8H878.7V169.6L817.4 148.5V322.8ZM879.2 324H816.7L816.1 323.4V147.6L816.4 147.1L817 147L879.5 168.5L879.9 169.1V323.3L879.2 324Z" fill="#92795A"/>
<path d="M697.9 324H643.1L642.5 323.4V185.6L643.1 185H705.6L706.3 185.6V315.9L705.6 316.6L705 315.9V186.3H643.8V322.8H697.9L698.5 323.4L697.9 324Z" fill="#92795A"/>
<path d="M653.7 324L653.1 323.4V204.2L653.7 203.6L654.4 204.2V323.4L653.7 324Z" fill="#92795A"/>
<path d="M667.5 324L666.9 323.4V204.2L667.5 203.6L668.1 204.2V323.4L667.5 324Z" fill="#92795A"/>
<path d="M681.3 324L680.6 323.4V204.2L681.3 203.6L681.9 204.2V323.4L681.3 324Z" fill="#92795A"/>
<path d="M695 324L694.4 323.4V204.2L695 203.6L695.6 204.2V323.4L695 324Z" fill="#92795A"/>
<path d="M705.6 194H643.1L642.5 193.4L643.1 192.8H705.6L706.3 193.4L705.6 194Z" fill="#92795A"/>
<path d="M687.7 324L687.1 323.4V263.8L687.7 263.2L688.4 263.8V323.4L687.7 324Z" fill="#92795A"/>
<path d="M660.6 324L659.9 323.4V263.8L660.6 263.2L661.2 263.8V323.4L660.6 324Z" fill="#92795A"/>
<path d="M660.6 231.4L659.9 230.8V194L660.6 193.4L661.2 194V230.8L660.6 231.4Z" fill="#92795A"/>
<path d="M687.7 231.4L687.1 230.8V194L687.7 193.4L688.4 194V230.8L687.7 231.4Z" fill="#92795A"/>
<path d="M630.6 324H575.8L575.2 323.4V225.6L575.8 225H638.3L639 225.6V323.1L638.3 323.7L637.7 323.1V226.3H576.4V322.8H630.6L631.2 323.4L630.6 324Z" fill="#92795A"/>
<path d="M586.4 324L585.8 323.4V244.2L586.4 243.6L587.1 244.2V323.4L586.4 324Z" fill="#92795A"/>
<path d="M600.2 324L599.6 323.4V244.2L600.2 243.6L600.8 244.2V323.4L600.2 324Z" fill="#92795A"/>
<path d="M614 324L613.3 323.4V244.2L614 243.6L614.6 244.2V323.4L614 324Z" fill="#92795A"/>
<path d="M627.7 324L627.1 323.4V244.2L627.7 243.6L628.3 244.2V323.4L627.7 324Z" fill="#92795A"/>
<path d="M661.3 324H598.8L598.2 323.4L598.8 322.8H661.3L662 323.4L661.3 324Z" fill="#92795A"/>
<path d="M620.4 324L619.8 323.4V303.8L620.4 303.2L621.1 303.8V323.4L620.4 324Z" fill="#92795A"/>
<path d="M593.2 324L592.6 323.4V303.8L593.2 303.2L593.9 303.8V323.4L593.2 324Z" fill="#92795A"/>
<path d="M593.2 324L592.6 323.4V286.6L593.2 286L593.9 286.6V323.4L593.2 324Z" fill="#92795A"/>
<path d="M620.4 324L619.8 323.4V286.6L620.4 286L621.1 286.6V323.4L620.4 324Z" fill="#92795A"/>
<path d="M807.6 324H747.5L746.9 323.4L747.5 322.8H806.9V95.3001H715.5V316L714.9 316.6L714.3 316V94.7001L714.9 94.1001H807.6L808.2 94.7001V323.4L807.6 324Z" fill="#92795A"/>
<path d="M752.5 322.8H769.9V311.4C769.9 307 766.3 303.4 761.9 303.4H760.4C756 303.4 752.4 307 752.4 311.4V322.8H752.5ZM770.6 324H751.9L751.3 323.4V311.4C751.3 306.3 755.4 302.2 760.5 302.2H762C767.1 302.2 771.2 306.3 771.2 311.4V323.4L770.6 324Z" fill="#92795A"/>
<path d="M728.6 317L728 316.4V94.7001L728.6 94.1001L729.3 94.7001V316.4L728.6 317Z" fill="#92795A"/>
<path d="M744.9 323.8L744.3 323.1V94.7001L744.9 94.1001L745.6 94.7001V323.1L744.9 323.8Z" fill="#92795A"/>
<path d="M761.2 283.8L760.6 283.1V94.7001L761.2 94.1001L761.9 94.7001V283.1L761.2 283.8Z" fill="#92795A"/>
<path d="M777.5 324L776.9 323.4V94.7001L777.5 94.1001L778.2 94.7001V323.4L777.5 324Z" fill="#92795A"/>
<path d="M793.8 324L793.2 323.4V94.7001L793.8 94.1001L794.5 94.7001V323.4L793.8 324Z" fill="#92795A"/>
<path d="M793.8 111H728.6L728 110.4L728.6 109.8H793.8L794.5 110.4L793.8 111Z" fill="#92795A"/>
<path d="M793.8 126.7H728.6L728 126.1L728.6 125.5H793.8L794.5 126.1L793.8 126.7Z" fill="#92795A"/>
<path d="M793.8 142.4H728.6L728 141.8L728.6 141.2H793.8L794.5 141.8L793.8 142.4Z" fill="#92795A"/>
<path d="M793.8 158.1H728.6L728 157.5L728.6 156.9H793.8L794.5 157.5L793.8 158.1Z" fill="#92795A"/>
<path d="M793.8 173.8H728.6L728 173.2L728.6 172.6H793.8L794.5 173.2L793.8 173.8Z" fill="#92795A"/>
<path d="M793.8 189.5H728.6L728 188.9L728.6 188.3H793.8L794.5 188.9L793.8 189.5Z" fill="#92795A"/>
<path d="M793.8 205.2H728.6L728 204.6L728.6 204H793.8L794.5 204.6L793.8 205.2Z" fill="#92795A"/>
<path d="M793.8 220.9H728.6L728 220.3L728.6 219.7H793.8L794.5 220.3L793.8 220.9Z" fill="#92795A"/>
<path d="M793.8 236.6H728.6L728 236L728.6 235.4H793.8L794.5 236L793.8 236.6Z" fill="#92795A"/>
<path d="M793.8 252.3H728.6L728 251.7L728.6 251.1H793.8L794.5 251.7L793.8 252.3Z" fill="#92795A"/>
<path d="M793.8 268H728.6L728 267.4L728.6 266.8H793.8L794.5 267.4L793.8 268Z" fill="#92795A"/>
<path d="M793.8 283.8H728.6L728 283.1L728.6 282.5H793.8L794.5 283.1L793.8 283.8Z" fill="#92795A"/>
<path d="M761.2 324L760.6 323.4V312L761.2 311.4L761.9 312V323.4L761.2 324Z" fill="#92795A"/>
<path d="M829.4 324L828.7 323.4V251.7L829.4 251.1H843L843.6 251.7V303.6L843 304.3L842.4 303.6V252.3H830V323.4L829.4 324Z" fill="#92795A"/>
<path d="M866.6 324L866 323.4V252.3H853.6V303.6L853 304.3L852.4 303.6V251.7L853 251.1H866.6L867.3 251.7V323.4L866.6 324Z" fill="#92795A"/>
<path d="M830 309.7H866V304.6H830V309.7ZM866.6 311H829.3L828.7 310.4V304L829.3 303.4H866.6L867.2 304V310.4L866.6 311Z" fill="#92795A"/>
<path d="M871 324L870.4 323.4V315.2L871 314.6L871.6 315.2V323.4L871 324Z" fill="#92795A"/>
<path d="M1928.7 324H1048.6L1048 323.4L1048.6 322.8H1928.7L1929.3 323.4L1928.7 324Z" fill="#92795A"/>
<path d="M994.1 324H768.6L768 323.4L768.6 322.8H994.1L994.7 323.4L994.1 324Z" fill="#92795A"/>
<path d="M717.7 324H-67L-71 323.4L-67 322.8H717.7L721.8 323.4L717.7 324Z" fill="#92795A"/>
<path d="M902.4 242.7C896.5 242.7 891.7 247.5 891.7 253.4V291.8C891.7 297.7 896.5 302.5 902.4 302.5H905.5C911.4 302.5 916.2 297.7 916.2 291.8V253.4C916.2 247.5 911.4 242.7 905.5 242.7H902.4ZM905.4 303.8H902.3C895.7 303.8 890.3 298.4 890.3 291.8V253.4C890.3 246.8 895.7 241.4 902.3 241.4H905.4C912 241.4 917.4 246.8 917.4 253.4V291.8C917.4 298.5 912 303.8 905.4 303.8Z" fill="#92795A"/>
<path d="M930.7 267.4C927.1 267.4 924.2 270.3 924.2 273.9V298C924.2 301.6 927.1 304.5 930.7 304.5H932.6C936.2 304.5 939.1 301.6 939.1 298V273.9C939.1 270.3 936.2 267.4 932.6 267.4H930.7ZM932.6 305.7H930.7C926.4 305.7 922.9 302.2 922.9 297.9V273.8C922.9 269.5 926.4 266 930.7 266H932.6C936.9 266 940.4 269.5 940.4 273.8V297.9C940.3 302.2 936.8 305.7 932.6 305.7Z" fill="#92795A"/>
<path d="M903.9 324L903.3 323.4V303.2L903.9 302.6L904.5 303.2V323.4L903.9 324Z" fill="#92795A"/>
<path d="M931.6 324L931 323.4V305.1L931.6 304.4L932.2 305.1V323.4L931.6 324Z" fill="#92795A"/>
<path d="M936.3 324L935.7 323.4V316.5L936.3 315.9L937 316.5V323.4L936.3 324Z" fill="#92795A"/>
<path d="M913.3 304.4C912.1 304.4 911.1 305.4 911.1 306.6V313.6C911.1 314.8 912.1 315.8 913.3 315.8C914.5 315.8 915.5 314.8 915.5 313.6V306.6C915.6 305.4 914.6 304.4 913.3 304.4ZM913.3 317.1C911.4 317.1 909.8 315.5 909.8 313.6V306.6C909.8 304.7 911.4 303.1 913.3 303.1C915.2 303.1 916.8 304.7 916.8 306.6V313.6C916.8 315.6 915.3 317.1 913.3 317.1Z" fill="#92795A"/>
<path d="M946.6 324L946 323.4V318.8L946.6 318.2L947.2 318.8V323.4L946.6 324Z" fill="#92795A"/>
<path d="M923.6 308C922.4 308 921.4 309 921.4 310.2V315.9C921.4 317.1 922.4 318.1 923.6 318.1C924.8 318.1 925.8 317.1 925.8 315.9V310.2C925.9 309 924.8 308 923.6 308ZM923.6 319.4C921.7 319.4 920.1 317.8 920.1 315.9V310.2C920.1 308.3 921.7 306.7 923.6 306.7C925.5 306.7 927.1 308.3 927.1 310.2V315.9C927.1 317.9 925.5 319.4 923.6 319.4Z" fill="#92795A"/>
<path d="M960.4 324L959.8 323.4V318.8L960.4 318.2L961.1 318.8V323.4L960.4 324Z" fill="#92795A"/>
<path d="M937.4 310.4C936.2 310.4 935.2 311.4 935.2 312.6V315.9C935.2 317.1 936.2 318.1 937.4 318.1C938.6 318.1 939.6 317.1 939.6 315.9V312.6C939.7 311.4 938.7 310.4 937.4 310.4ZM937.4 319.4C935.5 319.4 933.9 317.8 933.9 315.9V312.6C933.9 310.7 935.5 309.1 937.4 309.1C939.3 309.1 940.9 310.7 940.9 312.6V315.9C940.9 317.9 939.4 319.4 937.4 319.4Z" fill="#92795A"/>
<path d="M903.9 303.9L903.3 303.3V256.2L903.9 255.6L904.5 256.2V303.3L903.9 303.9Z" fill="#92795A"/>
<path d="M931.6 307.1L931 306.5V278.6L931.6 278L932.2 278.6V306.5L931.6 307.1Z" fill="#92795A"/>
<path d="M903.9 283.5L903.4 283.4L903.5 282.5L909.2 276.9H910.1V277.8L904.3 283.4L903.9 283.5Z" fill="#92795A"/>
<path d="M903.9 293.1L903.4 292.9L903.5 292L909.2 286.5H910.1V287.3L904.3 292.9L903.9 293.1Z" fill="#92795A"/>
<path d="M931.7 292.1L931.2 291.9L931.3 291.1L937 285.5H937.9V286.4L932.1 292L931.7 292.1Z" fill="#92795A"/>
<path d="M931.6 284L931.2 283.8L925.4 278.2V277.3H926.3L932 282.9L932.1 283.8L931.6 284Z" fill="#92795A"/>
<path d="M903.9 300.9L903.5 300.7L897.7 295.1V294.2H898.6L904.3 299.8V300.7L903.9 300.9Z" fill="#92795A"/>
<path d="M903.9 277L903.5 276.8L897.7 271.2V270.3H898.6L904.3 275.9V276.8L903.9 277Z" fill="#92795A"/>
<path d="M903.9 269.4L903.5 269.2L897.7 263.6V262.8L898.6 262.7L904.3 268.3V269.2L903.9 269.4Z" fill="#92795A"/>
<path d="M553.2 263.7C549.4 263.7 546.2 266.8 546.2 270.7V296.3C546.2 300.1 549.3 303.3 553.2 303.3H555.2C559 303.3 562.2 300.2 562.2 296.3V270.7C562.2 266.9 559.1 263.7 555.2 263.7H553.2ZM555.2 304.5H553.2C548.7 304.5 545 300.8 545 296.3V270.7C545 266.2 548.7 262.5 553.2 262.5H555.2C559.7 262.5 563.4 266.2 563.4 270.7V296.3C563.4 300.8 559.7 304.5 555.2 304.5Z" fill="#92795A"/>
<path d="M554.2 324L553.6 323.4V303.9L554.2 303.3L554.8 303.9V323.4L554.2 324Z" fill="#92795A"/>
<path d="M583.4 324L582.8 323.4V318.5L583.4 317.9L584 318.5V323.4L583.4 324Z" fill="#92795A"/>
<path d="M560.4 309.5C559.1 309.5 558 310.6 558 311.9V315.4C558 316.7 559.1 317.8 560.4 317.8C561.7 317.8 562.8 316.7 562.8 315.4V311.9C562.8 310.6 561.8 309.5 560.4 309.5ZM560.4 319.1C558.4 319.1 556.7 317.4 556.7 315.4V311.9C556.7 309.9 558.4 308.2 560.4 308.2C562.4 308.2 564.1 309.9 564.1 311.9V315.4C564.1 317.5 562.4 319.1 560.4 319.1Z" fill="#92795A"/>
<path d="M554.2 306L553.6 305.4V275.7L554.2 275.1L554.8 275.7V305.4L554.2 306Z" fill="#92795A"/>
<path d="M554.3 290.1L553.8 289.9V289L560 283L560.9 283.1V283.9L554.7 289.9L554.3 290.1Z" fill="#92795A"/>
<path d="M554.2 281.4L553.8 281.2L547.6 275.3V274.4H548.5L554.6 280.3V281.2L554.2 281.4Z" fill="#92795A"/>
<path d="M501.7 316.4L501.1 317L501.7 317.6H532.6L533.2 317L532.6 316.4H501.7Z" fill="#92795A"/>
<path d="M503.9 317V323.4L504.6 324L505.2 323.4V317L504.6 316.4L503.9 317Z" fill="#92795A"/>
<path d="M529.1 317V323.4L529.8 324L530.4 323.4V317L529.8 316.4L529.1 317Z" fill="#92795A"/>
<path d="M483.4 307.6H505V311.5H483.4V307.6ZM482.7 306.3L482.1 306.9V312.1L482.7 312.7H505.6L506.2 312.1V306.9L505.6 306.3H482.7Z" fill="#92795A"/>
<path d="M486.4 313V317L487 317.6L487.6 317V313L487 312.3L486.4 313Z" fill="#92795A"/>
<path d="M500.7 313V317L501.3 317.6L502 317V313L501.3 312.3L500.7 313Z" fill="#92795A"/>
<path d="M519.8 263.7C516 263.7 512.8 266.8 512.8 270.7V296.3C512.8 300.1 515.9 303.3 519.8 303.3H521.8C525.6 303.3 528.8 300.2 528.8 296.3V270.7C528.8 266.9 525.7 263.7 521.8 263.7H519.8ZM521.8 304.5H519.8C515.3 304.5 511.6 300.8 511.6 296.3V270.7C511.6 266.2 515.3 262.5 519.8 262.5H521.8C526.3 262.5 530 266.2 530 270.7V296.3C530 300.8 526.3 304.5 521.8 304.5Z" fill="#92795A"/>
<path d="M520.8 324L520.2 323.4V303.9L520.8 303.3L521.4 303.9V323.4L520.8 324Z" fill="#92795A"/>
<path d="M550 324L549.4 323.4V318.5L550 317.9L550.6 318.5V323.4L550 324Z" fill="#92795A"/>
<path d="M527 309.5C525.7 309.5 524.6 310.6 524.6 311.9V315.4C524.6 316.7 525.7 317.8 527 317.8C528.3 317.8 529.4 316.7 529.4 315.4V311.9C529.4 310.6 528.3 309.5 527 309.5ZM527 319.1C525 319.1 523.3 317.4 523.3 315.4V311.9C523.3 309.9 525 308.2 527 308.2C529 308.2 530.7 309.9 530.7 311.9V315.4C530.7 317.5 529 319.1 527 319.1Z" fill="#92795A"/>
<path d="M520.8 306L520.2 305.4V275.7L520.8 275.1L521.4 275.7V305.4L520.8 306Z" fill="#92795A"/>
<path d="M520.9 290.1L520.4 289.9V289L526.6 283L527.5 283.1V283.9L521.3 289.9L520.9 290.1Z" fill="#92795A"/>
<path d="M520.8 281.4L520.4 281.2L514.2 275.3V274.4H515.1L521.2 280.3V281.2L520.8 281.4Z" fill="#92795A"/>
<path d="M655.2 48.2L654.7 47.9C652.5 44.3 652 39.7 653.7 35.5C655.1 32 658 29.3 661.5 28C667.9 25.6 674.8 28.2 678.1 33.7L679.5 33.6C684.9 33.6 689.5 38 689.8 43.4C689.9 44.9 689.7 46.4 689.1 47.8L688.3 48.2L687.9 47.4C688.3 46.3 688.5 45.2 688.5 44C688.5 39.6 685 35.8 680.7 35C679.8 34.8 678.9 34.8 677.8 35L677.1 34.7C674 29.3 667.2 26.7 661 29.5C658.3 30.7 656.1 32.9 654.9 35.6C653.2 39.5 653.6 43.8 655.6 47.2L655.4 48.1L655.2 48.2Z" fill="#92795A"/>
<path d="M693.5 48.2H650.4L649.8 47.6L650.4 47H693.5L694.1 47.6L693.5 48.2Z" fill="#92795A"/>
<path d="M550.2 214.1L549.9 214L549.7 213.1C551.8 209.7 552.1 205.4 550.4 201.5C549.2 198.8 547 196.6 544.3 195.4C538.1 192.6 531.3 195.1 528.2 200.6L527.5 200.9C526.4 200.7 525.5 200.7 524.6 200.9C520.2 201.7 516.8 205.4 516.8 209.9C516.8 211.1 517 212.2 517.4 213.3L517 214.1L516.2 213.7C515.7 212.3 515.4 210.8 515.5 209.3C515.8 203.9 520.4 199.5 525.8 199.5L527.2 199.6C530.5 194.2 537.3 191.5 543.8 193.9C547.3 195.2 550.2 197.9 551.6 201.4C553.3 205.6 552.9 210.2 550.6 213.8L550.2 214.1Z" fill="#92795A"/>
<path d="M511.3 213.5L511.9 212.9H554.9L555.6 213.5L554.9 214.1H511.9L511.3 213.5Z" fill="#92795A"/>
<path d="M1150.1 50.1999L1149.6 49.8999C1148 47.1999 1147.7 43.7999 1149.2 40.6999C1150.1 38.9999 1151.5 37.5999 1153.2 36.6999C1157.8 34.2999 1163 36.0999 1165.5 39.9999L1166.4 39.8999C1169.9 39.9999 1172.9 42.5999 1173.4 45.9999C1173.6 47.2999 1173.4 48.4999 1173 49.6999L1172.2 50.0999L1171.8 49.2999C1172.1 48.3999 1172.3 47.4999 1172.2 46.4999C1172 43.8999 1169.8 41.6999 1167.2 41.1999C1166.6 41.0999 1166 41.0999 1165.3 41.1999L1164.6 40.7999C1164.2 39.8999 1163.7 38.9999 1162.9 38.4999C1156.4 34.0999 1149.4 38.6999 1149.4 44.7999C1149.4 46.2999 1149.8 47.7999 1150.6 48.9999L1150.4 49.8999L1150.1 50.1999Z" fill="#92795A"/>
<path d="M1175.7 50.1999H1146.9L1146.3 49.5999L1146.9 48.8999H1175.7L1176.3 49.5999L1175.7 50.1999Z" fill="#92795A"/>
<path d="M1008.1 112.6H1071C1071.7 111 1072 109.3 1072 107.5C1072 100.2 1066.1 94.2999 1058.8 94.2999C1058 94.2999 1057.2 94.3999 1056.4 94.4999L1055.7 94.0999C1053.3 87.6999 1047.1 83.3999 1040.3 83.3999C1033.4 83.3999 1027 87.7999 1024.8 94.4999L1024 94.8999C1022.8 94.4999 1021.6 94.3999 1020.3 94.3999C1013 94.3999 1007.1 100.3 1007.1 107.6C1007.1 109.2 1007.4 111 1008.1 112.6ZM1071.4 113.8H1007.6L1007 113.4C1006.1 111.5 1005.7 109.5 1005.7 107.4C1005.7 99.3999 1012.2 92.8999 1020.2 92.8999C1021.4 92.8999 1022.6 92.9999 1023.7 93.2999C1026.3 86.4999 1032.9 81.8999 1040.2 81.8999C1047.5 81.8999 1053.9 86.2999 1056.6 92.9999C1057.3 92.8999 1058 92.7999 1058.7 92.7999C1066.7 92.7999 1073.2 99.2999 1073.2 107.3C1073.2 109.4 1072.8 111.4 1071.9 113.3L1071.4 113.8Z" fill="#92795A"/>
<path d="M1080.7 113.8H1007.7L1007.1 113.2L1007.7 112.6H1080.7L1081.3 113.2L1080.7 113.8Z" fill="#92795A"/>
<path d="M1095.8 113.8H1085.7L1085.1 113.2L1085.7 112.6H1095.8L1096.4 113.2L1095.8 113.8Z" fill="#92795A"/>
<path d="M995.6 32H932.1L931.5 31.2999L932.1 30.7H995.6L996.2 31.2999L995.6 32Z" fill="#92795A"/>
<path d="M1029.3 44.7H1004L1003.4 44.1L1004 43.5H1029.3L1029.9 44.1L1029.3 44.7Z" fill="#92795A"/>
<path d="M1014.6 32.1H1004L1003.4 31.5L1004 30.8H1014.6L1015.2 31.5L1014.6 32.1Z" fill="#92795A"/>
<path d="M874.8 84.0999H836.6L836 83.4999L836.6 82.8999H874.8L875.4 83.4999L874.8 84.0999Z" fill="#92795A"/>
<path d="M880.4 91.6H864.5L863.9 90.9L864.5 90.3H880.4L881 90.9L880.4 91.6Z" fill="#92795A"/>
<path d="M640.7 60.5H610.5L609.8 59.9001L610.5 59.3H640.7L641.4 59.9001L640.7 60.5Z" fill="#92795A"/>
<path d="M1185.8 58.1H1174.2L1173.6 57.5L1174.2 56.8H1185.8L1186.5 57.5L1185.8 58.1Z" fill="#92795A"/>
<path d="M1001.9 263.6L1001.2 263V252.2L1001.9 251.6L1002.5 252.2V263L1001.9 263.6Z" fill="#92795A"/>
<path d="M1026.7 263.2L1026.1 262.6V251.9L1026.7 251.2L1027.4 251.9V262.6L1026.7 263.2Z" fill="#92795A"/>
<path d="M1051.6 263.2L1051 262.6V251.9L1051.6 251.2L1052.2 251.9V262.6L1051.6 263.2Z" fill="#92795A"/>
<path d="M1076.5 263.2L1075.9 262.6V251.9L1076.5 251.2L1077.1 251.9V262.6L1076.5 263.2Z" fill="#92795A"/>
<path d="M1226.7 275.6C1220.3 275.6 1215.2 280.8 1215.2 287.1V322.8H1239.7V287.1C1239.7 280.7 1234.5 275.6 1228.2 275.6H1226.7ZM1239.8 324H1215.2C1214.5 324 1214 323.5 1214 322.8V287.1C1214 280.1 1219.7 274.3 1226.8 274.3H1228.3C1235.3 274.3 1241.1 280 1241.1 287.1V322.8C1241 323.5 1240.5 324 1239.8 324Z" fill="#92795A"/>
<path d="M1223.6 262.4H1234.2V252.2H1223.6V262.4ZM1234.8 263.6H1223L1222.4 263V251.5L1223 250.9H1234.8L1235.4 251.5V263L1234.8 263.6Z" fill="#92795A"/>
<path d="M1223.4 322.8H1231.6V299.8H1223.4V322.8ZM1232.2 324H1222.7L1222.1 323.4V299.2L1222.7 298.6H1232.2L1232.8 299.2V323.4L1232.2 324Z" fill="#92795A"/>
<path d="M1228.8 263.2L1228.2 262.6V251.9L1228.8 251.2L1229.5 251.9V262.6L1228.8 263.2Z" fill="#92795A"/>
<path d="M1039.2 283.2L1038.5 282.6V271.8L1039.2 271.2L1039.8 271.8V282.6L1039.2 283.2Z" fill="#92795A"/>
<path d="M1039.2 211.9L1038.5 211.3V200.6L1039.2 199.9L1039.8 200.6V211.3L1039.2 211.9Z" fill="#92795A"/>
<path d="M996.8 235.4L996.1 234.7V227L996.8 226.4L997.4 227V234.7L996.8 235.4Z" fill="#92795A"/>
<path d="M1084.3 235.4L1083.7 234.7V227L1084.3 226.4L1084.9 227V234.7L1084.3 235.4Z" fill="#92795A"/>
<path d="M1107.7 178.8L1107.1 178.2V166.8L1107.7 166.2L1108.3 166.8V178.2L1107.7 178.8Z" fill="#92795A"/>
<path d="M1128.2 178.8L1127.6 178.2V166.8L1128.2 166.2L1128.9 166.8V178.2L1128.2 178.8Z" fill="#92795A"/>
<path d="M1154.8 178.8L1154.2 178.2V166.8L1154.8 166.2L1155.4 166.8V178.2L1154.8 178.8Z" fill="#92795A"/>
<path d="M1175.3 178.8L1174.7 178.2V166.8L1175.3 166.2L1175.9 166.8V178.2L1175.3 178.8Z" fill="#92795A"/>
<path d="M1154.8 201.2L1154.2 200.6V189.2L1154.8 188.6L1155.4 189.2V200.6L1154.8 201.2Z" fill="#92795A"/>
<path d="M1175.3 201.2L1174.7 200.6V189.2L1175.3 188.6L1175.9 189.2V200.6L1175.3 201.2Z" fill="#92795A"/>
<path d="M1154.8 223.6L1154.2 223V211.6L1154.8 211L1155.4 211.6V223L1154.8 223.6Z" fill="#92795A"/>
<path d="M1175.3 223.6L1174.7 223V211.6L1175.3 211L1175.9 211.6V223L1175.3 223.6Z" fill="#92795A"/>
<path d="M1154.8 246L1154.2 245.4V234L1154.8 233.4L1155.4 234V245.4L1154.8 246Z" fill="#92795A"/>
<path d="M1175.3 246L1174.7 245.4V234L1175.3 233.4L1175.9 234V245.4L1175.3 246Z" fill="#92795A"/>
<path d="M1154.8 268.4L1154.2 267.8V256.4L1154.8 255.8L1155.4 256.4V267.8L1154.8 268.4Z" fill="#92795A"/>
<path d="M1175.3 268.4L1174.7 267.8V256.4L1175.3 255.8L1175.9 256.4V267.8L1175.3 268.4Z" fill="#92795A"/>
<path d="M1154.8 290.8L1154.2 290.2V278.8L1154.8 278.2L1155.4 278.8V290.2L1154.8 290.8Z" fill="#92795A"/>
<path d="M1175.3 290.8L1174.7 290.2V278.8L1175.3 278.2L1175.9 278.8V290.2L1175.3 290.8Z" fill="#92795A"/>
<path d="M1107.7 290.8L1107.1 290.2V278.8L1107.7 278.2L1108.3 278.8V290.2L1107.7 290.8Z" fill="#92795A"/>
<path d="M1128.2 290.8L1127.6 290.2V278.8L1128.2 278.2L1128.9 278.8V290.2L1128.2 290.8Z" fill="#92795A"/>
<path d="M1107.7 268.4L1107.1 267.8V256.4L1107.7 255.8L1108.3 256.4V267.8L1107.7 268.4Z" fill="#92795A"/>
<path d="M1128.2 268.4L1127.6 267.8V256.4L1128.2 255.8L1128.9 256.4V267.8L1128.2 268.4Z" fill="#92795A"/>
<path d="M1107.7 201.2L1107.1 200.5V189.2L1107.7 188.5L1108.3 189.2V200.5L1107.7 201.2Z" fill="#92795A"/>
<path d="M1128.2 201.2L1127.6 200.5V189.2L1128.2 188.5L1128.9 189.2V200.5L1128.2 201.2Z" fill="#92795A"/>
<path d="M1107.7 223.6L1107.1 223V211.6L1107.7 211L1108.3 211.6V223L1107.7 223.6Z" fill="#92795A"/>
<path d="M1107.7 246L1107.1 245.4V234L1107.7 233.4L1108.3 234V245.4L1107.7 246Z" fill="#92795A"/>
<path d="M1128.2 223.6L1127.6 223V211.6L1128.2 211L1128.9 211.6V223L1128.2 223.6Z" fill="#92795A"/>
<path d="M1128.2 246L1127.6 245.4V234L1128.2 233.4L1128.9 234V245.4L1128.2 246Z" fill="#92795A"/>
<path d="M984.4 223.6C982.7 223.6 981.7 223 980.8 221.6L981 220.7L981.9 220.9C982.5 222 983.1 222.3 984.4 222.3C986.4 222.3 988 220.3 988 217.7L988.6 217.1L989.2 217.7C989.2 221 987 223.6 984.4 223.6Z" fill="#92795A"/>
<path d="M992.8 223.6C990.1 223.6 988 221 988 217.8L988.6 217.2L989.2 217.8C989.2 220.3 990.8 222.4 992.8 222.4C994.8 222.4 996.4 220.4 996.4 217.8L997 217.2L997.6 217.8C997.6 221 995.5 223.6 992.8 223.6Z" fill="#92795A"/>
<path d="M1001.2 223.6C998.5 223.6 996.4 221 996.4 217.8L997 217.2L997.6 217.8C997.6 220.3 999.2 222.4 1001.2 222.4C1003.2 222.4 1004.8 220.4 1004.8 217.8L1005.4 217.2L1006 217.8C1006.1 221 1003.9 223.6 1001.2 223.6Z" fill="#92795A"/>
<path d="M1009.6 223.6C1006.9 223.6 1004.8 221 1004.8 217.8L1005.4 217.2L1006 217.8C1006 220.3 1007.6 222.4 1009.6 222.4C1011.6 222.4 1013.2 220.4 1013.2 217.8L1013.8 217.2L1014.4 217.8C1014.5 221 1012.3 223.6 1009.6 223.6Z" fill="#92795A"/>
<path d="M1018.1 223.6C1015.4 223.6 1013.3 221 1013.3 217.8L1013.9 217.2L1014.5 217.8C1014.5 220.3 1016.1 222.4 1018.1 222.4C1020.1 222.4 1021.7 220.4 1021.7 217.8L1022.3 217.2L1022.9 217.8C1022.9 221 1020.7 223.6 1018.1 223.6Z" fill="#92795A"/>
<path d="M1026.5 223.6C1023.8 223.6 1021.7 221 1021.7 217.8L1022.3 217.2L1022.9 217.8C1022.9 220.3 1024.5 222.4 1026.5 222.4C1028.5 222.4 1030.1 220.4 1030.1 217.8L1030.7 217.2L1031.3 217.8C1031.3 221 1029.1 223.6 1026.5 223.6Z" fill="#92795A"/>
<path d="M1034.9 223.6C1032.2 223.6 1030.1 221 1030.1 217.8L1030.7 217.2L1031.3 217.8C1031.3 220.3 1032.9 222.4 1034.9 222.4C1036.9 222.4 1038.5 220.4 1038.5 217.8L1039.1 217.2L1039.7 217.8C1039.7 221 1037.6 223.6 1034.9 223.6Z" fill="#92795A"/>
<path d="M1043.3 223.6C1040.6 223.6 1038.5 221 1038.5 217.8L1039.1 217.2L1039.7 217.8C1039.7 220.3 1041.3 222.4 1043.3 222.4C1044.5 222.4 1045.7 221 1046.1 220.3L1047 220.1L1047.2 221C1046.9 221.4 1045.4 223.6 1043.3 223.6Z" fill="#92795A"/>
<path d="M1042.9 223.5C1041 223.5 1040 222.3 1039.3 221.1L1039.5 220.2L1040.4 220.4C1041.1 221.7 1041.8 222.2 1042.9 222.2C1044.9 222.2 1046.5 220.2 1046.5 217.6L1047.1 217L1047.7 217.6C1047.7 220.9 1045.5 223.5 1042.9 223.5Z" fill="#92795A"/>
<path d="M1051.3 223.5C1048.6 223.5 1046.5 220.9 1046.5 217.7L1047.1 217.1L1047.7 217.7C1047.7 220.2 1049.3 222.3 1051.3 222.3C1053.3 222.3 1054.9 220.3 1054.9 217.7L1055.5 217.1L1056.1 217.7C1056.1 220.9 1054 223.5 1051.3 223.5Z" fill="#92795A"/>
<path d="M1059.7 223.5C1057 223.5 1054.9 220.9 1054.9 217.7L1055.5 217.1L1056.1 217.7C1056.1 220.2 1057.7 222.3 1059.7 222.3C1061.7 222.3 1063.3 220.3 1063.3 217.7L1063.9 217.1L1064.5 217.7C1064.5 220.9 1062.4 223.5 1059.7 223.5Z" fill="#92795A"/>
<path d="M1068.1 223.5C1065.4 223.5 1063.3 220.9 1063.3 217.7L1063.9 217.1L1064.5 217.7C1064.5 220.2 1066.1 222.3 1068.1 222.3C1070.1 222.3 1071.7 220.3 1071.7 217.7L1072.3 217.1L1072.9 217.7C1073 220.9 1070.8 223.5 1068.1 223.5Z" fill="#92795A"/>
<path d="M1076.5 223.5C1073.8 223.5 1071.7 220.9 1071.7 217.7L1072.3 217.1L1072.9 217.7C1072.9 220.2 1074.5 222.3 1076.5 222.3C1078.5 222.3 1080.1 220.3 1080.1 217.7L1080.7 217.1L1081.3 217.7C1081.4 220.9 1079.2 223.5 1076.5 223.5Z" fill="#92795A"/>
<path d="M1085 223.5C1082.3 223.5 1080.2 220.9 1080.2 217.7L1080.8 217.1L1081.4 217.7C1081.4 220.2 1083 222.3 1085 222.3C1087 222.3 1088.6 220.3 1088.6 217.7L1089.2 217.1L1089.8 217.7C1089.8 220.9 1087.6 223.5 1085 223.5Z" fill="#92795A"/>
<path d="M1093.4 223.5C1090.7 223.5 1088.6 220.9 1088.6 217.7L1089.2 217.1L1089.8 217.7C1089.8 220.2 1091.4 222.3 1093.4 222.3L1094.8 221.9L1095.7 222.1L1095.5 222.9C1094.8 223.3 1094.1 223.5 1093.4 223.5Z" fill="#92795A"/>
<path d="M1013.9 184.4C1012.2 184.4 1010.3 182.8 1009.5 181.7L1009.7 180.8L1010.6 180.9C1011.3 182 1012.9 183.1 1014 183.1C1016 183.1 1017.6 181.5 1017.6 179.5L1018.2 178.9L1018.8 179.5C1018.7 182.2 1016.5 184.4 1013.9 184.4Z" fill="#92795A"/>
<path d="M1022.3 184.4C1019.6 184.4 1017.5 182.2 1017.5 179.6L1018.1 179L1018.7 179.6C1018.7 181.6 1020.3 183.2 1022.3 183.2C1024.3 183.2 1025.9 181.6 1025.9 179.6L1026.5 179L1027.1 179.6C1027.1 182.2 1025 184.4 1022.3 184.4Z" fill="#92795A"/>
<path d="M1030.7 184.4C1028 184.4 1025.9 182.2 1025.9 179.6L1026.5 179L1027.1 179.6C1027.1 181.6 1028.7 183.2 1030.7 183.2C1032.7 183.2 1034.3 181.6 1034.3 179.6L1034.9 179L1035.5 179.6C1035.5 182.2 1033.4 184.4 1030.7 184.4Z" fill="#92795A"/>
<path d="M1039.1 184.4C1036.4 184.4 1034.3 182.2 1034.3 179.6L1034.9 179L1035.5 179.6C1035.5 181.6 1037.1 183.2 1039.1 183.2C1041.1 183.2 1042.7 181.6 1042.7 179.6L1043.3 179L1043.9 179.6C1044 182.2 1041.8 184.4 1039.1 184.4Z" fill="#92795A"/>
<path d="M1047.5 184.4C1044.8 184.4 1042.7 182.2 1042.7 179.6L1043.3 179L1043.9 179.6C1043.9 181.6 1045.5 183.2 1047.5 183.2C1049.5 183.2 1051.1 181.6 1051.1 179.6L1051.7 179L1052.3 179.6C1052.4 182.2 1050.2 184.4 1047.5 184.4Z" fill="#92795A"/>
<path d="M1056 184.4C1053.3 184.4 1051.2 182.2 1051.2 179.6L1051.8 179L1052.4 179.6C1052.4 181.6 1054 183.2 1056 183.2C1058 183.2 1059.6 181.6 1059.6 179.6L1060.2 179L1060.8 179.6C1060.8 182.2 1058.6 184.4 1056 184.4Z" fill="#92795A"/>
<path d="M1064.4 184.4C1061.7 184.4 1059.6 182.2 1059.6 179.6L1060.2 179L1060.8 179.6C1060.8 181.6 1062.4 183.2 1064.4 183.2C1066.4 183.2 1068 181.6 1068 179.6L1068.6 179L1069.2 179.6C1069.2 182.2 1067 184.4 1064.4 184.4Z" fill="#92795A"/>
<path d="M1197.2 205.2H1259L1253.2 190.4H1203.7L1197.2 205.2ZM1259.9 206.4H1196.4L1195.9 206.1V205.5L1203 189.4L1203.5 189.1H1253.7L1254.2 189.5L1260.5 205.6V206.2L1259.9 206.4Z" fill="#92795A"/>
<path d="M1223 221.9H1233.2V211.7H1223V221.9ZM1233.9 223.2H1222.4L1221.8 222.6V211.1L1222.4 210.5H1233.9L1234.5 211.1V222.6L1233.9 223.2Z" fill="#92795A"/>
<path d="M1202.8 322.7H1253.5V206.4H1202.8V322.7ZM1254.1 324H1202.1L1201.5 323.4V205.8L1202.1 205.2H1254.1L1254.7 205.8V323.3L1254.1 324Z" fill="#92795A"/>
<path d="M1228.1 222.8L1227.5 222.2V211.5L1228.1 210.8L1228.8 211.5V222.2L1228.1 222.8Z" fill="#92795A"/>
<path d="M1223 242.1H1233.2V231.9H1223V242.1ZM1233.9 243.4H1222.4L1221.8 242.8V231.3L1222.4 230.7H1233.9L1234.5 231.3V242.8L1233.9 243.4Z" fill="#92795A"/>
<path d="M1228.1 243L1227.5 242.4V231.7L1228.1 231L1228.8 231.7V242.4L1228.1 243Z" fill="#92795A"/>
<path d="M1206.9 195.3C1205.2 195.3 1203.3 193.7 1202.5 192.6L1202.7 191.7L1203.6 191.8C1204.3 192.9 1205.9 194 1207 194C1209 194 1210.6 192.4 1210.6 190.4L1211.2 189.8L1211.8 190.4C1211.7 193.2 1209.6 195.3 1206.9 195.3Z" fill="#92795A"/>
<path d="M1250.6 195.3C1247.9 195.3 1245.8 193.1 1245.8 190.5L1246.4 189.9L1247 190.5C1247 192.5 1248.6 194.1 1250.6 194.1C1251.7 194.1 1253.3 192.9 1254 191.9L1254.9 191.8L1255.1 192.7C1254.2 193.7 1252.3 195.3 1250.6 195.3Z" fill="#92795A"/>
<path d="M1216.6 195.3C1213.9 195.3 1211.8 193.1 1211.8 190.5L1212.4 189.9L1213 190.5C1213 192.5 1214.6 194.1 1216.6 194.1C1218.6 194.1 1220.2 192.5 1220.2 190.5L1220.8 189.9L1221.4 190.5C1221.4 193.2 1219.2 195.3 1216.6 195.3Z" fill="#92795A"/>
<path d="M1225 195.3C1222.3 195.3 1220.2 193.1 1220.2 190.5L1220.8 189.9L1221.4 190.5C1221.4 192.5 1223 194.1 1225 194.1C1227 194.1 1228.6 192.5 1228.6 190.5L1229.2 189.9L1229.8 190.5C1229.8 193.2 1227.7 195.3 1225 195.3Z" fill="#92795A"/>
<path d="M1233.4 195.3C1230.7 195.3 1228.6 193.1 1228.6 190.5L1229.2 189.9L1229.8 190.5C1229.8 192.5 1231.4 194.1 1233.4 194.1C1235.4 194.1 1237 192.5 1237 190.5L1237.6 189.9L1238.2 190.5C1238.2 193.2 1236.1 195.3 1233.4 195.3Z" fill="#92795A"/>
<path d="M1241.8 195.3C1239.1 195.3 1237 193.1 1237 190.5L1237.6 189.9L1238.2 190.5C1238.2 192.5 1239.8 194.1 1241.8 194.1C1243.8 194.1 1245.4 192.5 1245.4 190.5L1246 189.9L1246.6 190.5C1246.7 193.2 1244.5 195.3 1241.8 195.3Z" fill="#92795A"/>
<path d="M827.9 177H844.4V170.1H827.9V177ZM845.1 178.2H827.3L826.7 177.6V169.5L827.3 168.9H845.1L845.7 169.5V177.6L845.1 178.2Z" fill="#92795A"/>
<path d="M827.9 192H844.4V185.1H827.9V192ZM845.1 193.3H827.3L826.7 192.7V184.6L827.3 184H845.1L845.7 184.6V192.7L845.1 193.3Z" fill="#92795A"/>
<path d="M851.6 192H868.1V185.1H851.6V192ZM868.7 193.3H850.9L850.3 192.7V184.6L850.9 184H868.7L869.3 184.6V192.7L868.7 193.3Z" fill="#92795A"/>
<path d="M827.9 207.5H844.4V200.6H827.9V207.5ZM845.1 208.8H827.3L826.7 208.2V200L827.3 199.4H845.1L845.7 200V208.1L845.1 208.8Z" fill="#92795A"/>
<path d="M851.6 207.5H868.1V200.6H851.6V207.5ZM868.7 208.8H850.9L850.3 208.2V200L850.9 199.4H868.7L869.3 200V208.1L868.7 208.8Z" fill="#92795A"/>
<path d="M827.9 223.1H844.4V216.2H827.9V223.1ZM845.1 224.3H827.3L826.7 223.7V215.6L827.3 215H845.1L845.7 215.6V223.7L845.1 224.3Z" fill="#92795A"/>
<path d="M851.6 223.1H868.1V216.2H851.6V223.1ZM868.7 224.3H850.9L850.3 223.7V215.6L850.9 215H868.7L869.3 215.6V223.7L868.7 224.3Z" fill="#92795A"/>
<path d="M827.9 238.6H844.4V231.7H827.9V238.6ZM845.1 239.8H827.3L826.7 239.2V231.1L827.3 230.5H845.1L845.7 231.1V239.2L845.1 239.8Z" fill="#92795A"/>
<path d="M851.6 238.6H868.1V231.7H851.6V238.6ZM868.7 239.8H850.9L850.3 239.2V231.1L850.9 230.5H868.7L869.3 231.1V239.2L868.7 239.8Z" fill="#92795A"/>
<path d="M679 109.6H656.6L656 109L656.6 108.4H679L679.6 109L679 109.6Z" fill="#92795A"/>
</g>
<defs>
<linearGradient id="paint0_linear_642_319" x1="960" y1="0" x2="960" y2="210" gradientUnits="userSpaceOnUse">
<stop stop-color="#E3ECFB"/>
<stop offset="1" stop-color="white"/>
</linearGradient>
<clipPath id="clip0_642_319">
<rect width="2000" height="400" fill="white" transform="translate(-71)"/>
</clipPath>
</defs>
</svg>
