<svg width="32" height="30" viewBox="0 0 32 30" fill="none" xmlns="http://www.w3.org/2000/svg">
<path d="M6.95157 10.8711C6.65908 10.8711 6.37854 10.9871 6.17172 11.1935C5.96491 11.3999 5.84863 11.6799 5.84863 11.9718C5.84863 12.2637 5.96491 12.5437 6.17172 12.7501C6.37854 12.9565 6.65908 13.0725 6.95157 13.0725C7.24405 13.0725 7.52435 12.9565 7.73117 12.7501C7.93799 12.5437 8.05426 12.2637 8.05426 11.9718C8.05426 11.6799 7.93799 11.3999 7.73117 11.1935C7.52435 10.9871 7.24405 10.8711 6.95157 10.8711Z" fill="black"/>
<path d="M17.7833 13.1106C18.0967 13.1106 18.3971 12.9864 18.6187 12.7652C18.8403 12.544 18.9649 12.2441 18.9649 11.9313C18.9649 11.7774 18.9341 11.6249 18.8745 11.4829C18.8149 11.3409 18.7275 11.2122 18.6175 11.1043C18.5075 10.9963 18.3771 10.9113 18.2338 10.8542C18.0906 10.7971 17.9376 10.769 17.7833 10.7717C17.6291 10.769 17.4759 10.7971 17.3326 10.8542C17.1894 10.9113 17.0589 10.9963 16.9489 11.1043C16.8389 11.2122 16.7516 11.3409 16.692 11.4829C16.6323 11.6249 16.6015 11.7774 16.6016 11.9313C16.6016 12.2441 16.7261 12.544 16.9477 12.7652C17.1693 12.9864 17.47 13.1106 17.7833 13.1106Z" fill="black"/>
<path d="M27.5902 0H4.25356C3.1254 0 2.04346 0.4473 1.24573 1.24349C0.448 2.03968 0 3.11954 0 4.24552V18.0041C0 19.1301 0.448 20.21 1.24573 21.0062C2.04346 21.8024 3.1254 22.2497 4.25356 22.2497H12.5051L15.3017 28.8538C15.3017 28.8538 15.4985 29.4238 15.9514 29.4238C16.4044 29.4238 16.6209 28.8538 16.6209 28.8538L19.4175 22.2497H27.5902C28.7184 22.2497 29.8003 21.8024 30.598 21.0062C31.3958 20.21 31.8438 19.1301 31.8438 18.0041V4.24552C31.8438 3.11954 31.3958 2.03968 30.598 1.24349C29.8003 0.4473 28.7184 0 27.5902 0ZM10.0041 12.2059C9.99371 12.8976 9.71126 13.5574 9.21748 14.0429C8.72371 14.5283 8.05834 14.8004 7.36524 14.8004C7.07109 14.8005 6.7799 14.7414 6.50919 14.6265C6.23848 14.5117 5.99373 14.3435 5.78969 14.1321V14.6038H3.82037V6.74172C3.93852 6.74172 5.78969 6.74172 5.78969 6.74172V9.74897C6.24263 8.98242 7.54241 9.00207 7.54241 9.00207C7.91945 9.04005 8.28479 9.15465 8.61578 9.33882C8.94676 9.52299 9.23641 9.77284 9.46702 10.073C9.69762 10.3731 9.86434 10.7172 9.9567 11.084C10.0491 11.4508 10.0651 11.8326 10.0041 12.2059ZM13.352 9.23793V14.6038H11.5008V9.2969C11.5008 8.56965 10.595 8.37311 10.595 8.37311V6.40759C10.971 6.37977 11.3485 6.43456 11.701 6.5681C12.0535 6.70164 12.3723 6.91069 12.6352 7.18051C12.898 7.45034 13.0984 7.7744 13.2222 8.12986C13.3461 8.48533 13.3905 8.86356 13.352 9.23793ZM17.783 14.82C17.3873 14.8358 16.9921 14.7736 16.6205 14.6369C16.2488 14.5001 15.9079 14.2917 15.6171 14.0233C15.3262 13.7549 15.0913 13.432 14.9257 13.0729C14.76 12.7139 14.6668 12.3257 14.6516 11.9307C14.6874 11.1364 15.037 10.3886 15.6238 9.85078C16.2106 9.313 16.987 9.02905 17.783 9.06104C18.579 9.02905 19.3552 9.313 19.942 9.85078C20.5288 10.3886 20.8784 11.1364 20.9142 11.9307C20.899 12.3257 20.8058 12.7139 20.6401 13.0729C20.4745 13.432 20.2396 13.7549 19.9487 14.0233C19.6579 14.2917 19.317 14.5001 18.9453 14.6369C18.5737 14.7736 18.1788 14.8358 17.783 14.82ZM28.0037 14.82C28.012 15.1818 27.946 15.5415 27.8099 15.8769C27.6738 16.2124 27.4703 16.5165 27.212 16.7705C26.9538 17.0246 26.6462 17.2232 26.3082 17.3543C25.9702 17.4853 25.6089 17.5459 25.2466 17.5324H24.3999V15.7831H24.9119C24.9119 15.7831 26.0738 15.8814 26.0738 14.0928C26.0738 14.0928 25.8375 14.82 24.1045 14.82C23.4808 14.7805 22.895 14.5075 22.4642 14.0557C22.0334 13.6038 21.7892 13.0064 21.7806 12.3828V11.5179C21.8106 10.8468 22.0966 10.2125 22.5799 9.74481C23.0631 9.27713 23.7071 9.01143 24.3802 9.00207C24.6908 8.98584 25.0009 9.04327 25.285 9.16968C25.5691 9.29609 25.8191 9.48787 26.0146 9.72931V9.13966H27.984L28.0037 14.82Z" fill="black"/>
<path d="M25.0495 13.0908C25.2012 13.0934 25.3517 13.0659 25.4926 13.0098C25.6334 12.9537 25.7618 12.8701 25.87 12.764C25.9781 12.6579 26.064 12.5313 26.1226 12.3917C26.1813 12.2521 26.2114 12.1022 26.2113 11.9508C26.214 11.7978 26.1859 11.6458 26.1284 11.5039C26.071 11.362 25.9854 11.2331 25.877 11.1249C25.7685 11.0167 25.6395 10.9314 25.4974 10.874C25.3552 10.8167 25.2028 10.7885 25.0495 10.7912C24.8978 10.7912 24.7478 10.8213 24.6079 10.8798C24.468 10.9383 24.3411 11.0241 24.2348 11.132C24.1285 11.24 24.0449 11.368 23.9886 11.5085C23.9324 11.6491 23.9048 11.7995 23.9074 11.9508C23.9074 12.2532 24.0276 12.5432 24.2418 12.7569C24.456 12.9707 24.7466 13.0908 25.0495 13.0908Z" fill="black"/>
</svg>
