<svg width="208" height="46" viewBox="0 0 208 46" fill="none" xmlns="http://www.w3.org/2000/svg">
<path d="M38.1245 23.6925L21.8936 11.6517H31.9941L46.1092 22.1254C45.1626 13.8294 38.943 6.91599 30.5798 4.4387C29.6651 4.1646 28.7355 3.94721 27.7958 3.78769C27.3354 3.73449 26.8726 3.70756 26.4093 3.70703C20.1787 3.70703 15.1284 8.34476 15.1284 14.0771C15.158 15.7022 15.5706 17.2953 16.3304 18.718C17.0902 20.1407 18.1742 21.3499 19.4882 22.2406C20.297 22.5939 21.0725 23.024 21.8045 23.5254C25.8414 26.2907 28.2691 31.0149 27.7067 36.0328C27.5074 37.7368 26.9715 39.3802 26.1324 40.8609C25.2933 42.3416 24.1689 43.6279 22.8291 44.64L22.7066 44.7379C22.6652 44.7901 22.6417 44.8549 22.6397 44.9223C22.6408 44.9914 22.6645 45.0581 22.707 45.1115C22.7495 45.1649 22.8082 45.2018 22.8736 45.2161H22.9794H23.6309C36.1367 45.2161 46.2706 35.86 46.2706 24.3147C46.2706 24.1015 46.2706 23.8941 46.2706 23.6809L38.1245 23.6925ZM38.2192 35.5835H31.1812V23.727H38.2192V35.5835Z" fill="#0072BC"/>
<path d="M19.3769 26.2016L18.9704 25.9885C13.7698 23.1079 10.6183 17.4735 11.5315 11.6375C12.4725 5.54797 17.5339 1.10614 23.6977 0.322624H23.759C23.7914 0.316049 23.8207 0.298172 23.842 0.271968C23.8633 0.245763 23.8752 0.212811 23.8759 0.178595C23.8799 0.158894 23.8801 0.138555 23.8763 0.118794C23.8726 0.0990326 23.865 0.0802549 23.8541 0.0635831C23.8432 0.0469113 23.8292 0.0326879 23.8128 0.0217631C23.7965 0.0108383 23.7782 0.00343644 23.759 0L23.6866 0H23.1298C10.3622 0 0 10.2606 0 22.9178C0.0164539 26.3483 0.789979 29.7297 2.26156 32.8038C3.73315 35.878 5.86392 38.5638 8.49131 40.6563C9.29312 41.3016 15.5572 45.0694 20.4515 41.4168C23.7924 38.9395 23.9539 36.1223 23.9817 34.1635C23.9735 32.5314 23.5418 30.9315 22.7318 29.5309C21.9218 28.1304 20.7631 26.9806 19.3769 26.2016Z" fill="#8DC63F"/>
<path d="M61.9667 12.2199C60.6306 13.2713 59.1918 14.175 57.6737 14.9161C56.1778 15.6755 54.603 16.2553 52.9798 16.6445C52.3116 16.7828 51.8662 16.6906 51.6936 16.3679C51.521 16.0453 51.6936 15.74 52.3506 15.4634C54.2529 14.5806 56.0052 13.3862 57.54 11.9261C59.01 10.5031 59.8898 9.33357 60.196 8.41179H54.8618C54.5538 8.44325 54.2428 8.40793 53.9486 8.30808C53.8169 8.20375 53.6923 8.09018 53.5756 7.96818L52.6067 6.84475C52.4397 6.53365 52.4397 6.26863 52.6067 6.13613C52.7038 6.05816 52.8219 6.01348 52.9447 6.00832C53.0675 6.00315 53.1888 6.03776 53.2916 6.10732C53.7554 6.2924 54.24 6.41628 54.7337 6.47604C55.1792 6.52213 55.6636 6.55093 56.1759 6.55093H70.8979C71.7498 6.55093 72.1785 6.85627 72.1785 7.47848C72.1785 8.10068 71.7498 8.41179 70.8979 8.41179H65.2184C65.0277 8.83483 64.7924 9.23477 64.5168 9.60435C64.2064 10.026 63.8698 10.4263 63.509 10.8027C64.1084 11.1208 64.7323 11.3868 65.3743 11.5977C65.8421 11.736 66.2708 11.8512 66.6717 11.9549C67.1875 12.0487 67.708 12.1121 68.2308 12.145C68.6381 12.1549 69.0395 12.2489 69.4112 12.4216C70.1951 12.8375 70.9125 13.3758 71.5382 14.0174C72.2509 14.7241 72.4736 15.3636 72.2064 15.9359C72.1479 16.0993 72.0503 16.2448 71.9227 16.3586C71.7951 16.4724 71.6418 16.551 71.4769 16.5869C70.973 16.6276 70.4662 16.5769 69.9791 16.4371C68.6952 16.1479 67.4578 15.6707 66.3042 15.0198C64.7914 14.2025 63.3413 13.2665 61.9667 12.2199ZM64.3888 20.3374V27.3602C64.3839 27.9248 64.1685 28.4656 63.7874 28.8697C63.6104 29.0811 63.3914 29.2507 63.1455 29.367C62.8996 29.4833 62.6324 29.5436 62.362 29.5437H61.0201C60.8239 29.5643 60.627 29.5133 60.4633 29.3997C60.3994 29.3342 60.3507 29.2545 60.3208 29.1667C60.2909 29.0789 60.2806 28.9852 60.2907 28.8927V20.3374H51.521C51.2137 20.3657 50.904 20.3345 50.6078 20.2452C50.4748 20.1512 50.3516 20.0431 50.2403 19.9226L49.3271 18.7704C49.1527 18.4593 49.1527 18.223 49.3271 18.0617C49.4242 17.9838 49.5424 17.9391 49.6651 17.9339C49.7879 17.9288 49.9092 17.9634 50.012 18.0329C50.3844 18.2124 50.7773 18.3421 51.1813 18.4189C51.7367 18.47 52.2943 18.4892 52.8517 18.4765H74.3668C75.2187 18.4765 75.6474 18.7819 75.6474 19.4041C75.6474 20.0263 75.2187 20.3374 74.3668 20.3374H64.3888Z" fill="#231F20"/>
<path d="M98.6941 26.5574C98.7283 27.3288 98.5063 28.0892 98.0649 28.712C97.8722 28.9799 97.6195 29.1953 97.3286 29.3398C97.0376 29.4844 96.7171 29.5536 96.3945 29.5416H95.2809C95.0848 29.5527 94.8902 29.5003 94.7241 29.3918C94.6535 29.3317 94.5983 29.2546 94.5633 29.1672C94.5283 29.0798 94.5147 28.9848 94.5237 28.8906V22.5534H83.2038C82.917 22.5774 82.6285 22.5381 82.3574 22.4381C82.2033 22.3301 82.0645 22.2002 81.9454 22.0521L81.0322 20.9575C80.967 20.8767 80.9313 20.7748 80.9313 20.6695C80.9313 20.5642 80.967 20.4622 81.0322 20.3814C81.0966 20.3075 81.1809 20.2554 81.2742 20.2317C81.3676 20.2081 81.4656 20.2141 81.5556 20.2489C81.9463 20.4191 82.3531 20.5466 82.7695 20.6291C83.1373 20.6941 83.51 20.7249 83.8831 20.7213H98.1206C98.2774 20.7069 98.4343 20.7475 98.5661 20.8365C98.6596 20.9521 98.7055 21.1011 98.6941 21.2513V26.5574ZM81.5445 13.0417V14.8968C81.5445 15.3346 81.6336 15.5708 81.8173 15.6227C82.0645 15.6751 82.3179 15.6887 82.569 15.663L84.7573 15.5651C85.7762 15.5132 86.5168 15.4671 86.9845 15.4268C87.7028 15.3519 88.3709 15.2655 88.9834 15.1618C89.5 15.0997 89.9966 14.9186 90.4367 14.6318V7.81633C90.4594 7.60775 90.4378 7.39655 90.3734 7.19752C90.3089 6.99849 90.2032 6.81643 90.0636 6.6641C89.7824 6.43522 89.4759 6.24182 89.1505 6.08799C88.7718 5.89211 88.5937 5.67319 88.6215 5.42546C88.6494 5.17773 88.8498 5.08555 89.2117 5.14316L93.2875 5.67319C93.5938 5.71351 93.7608 5.79993 93.7998 5.92668C93.8325 6.01746 93.8531 6.11243 93.8611 6.20897V10.4607H95.7152V7.58013C95.7376 7.37156 95.7158 7.16047 95.6513 6.9615C95.5869 6.76253 95.4814 6.58045 95.3422 6.4279C95.0674 6.16985 94.7647 5.94559 94.4401 5.7596C94.0058 5.5234 93.8277 5.30447 93.9279 5.09707C93.9787 4.99536 94.0617 4.91474 94.163 4.86862C94.2643 4.8225 94.3778 4.81366 94.4847 4.84358L98.6552 5.37361C98.9558 5.41393 99.1284 5.50035 99.1674 5.6271C99.1985 5.71808 99.2173 5.81308 99.2231 5.90939V17.4951C99.2234 18.0382 99.0244 18.5612 98.6663 18.9584C98.4927 19.1639 98.2775 19.3272 98.0359 19.4368C97.7943 19.5463 97.5324 19.5994 97.2687 19.5921H96.4391C96.2421 19.6125 96.0447 19.5594 95.8823 19.4423C95.8208 19.3764 95.774 19.2974 95.7451 19.2109C95.7163 19.1243 95.7061 19.0322 95.7152 18.9411V12.4771H93.8611V17.2301C93.8608 17.7731 93.6619 18.2959 93.3043 18.6934C93.1312 18.8995 92.916 19.0633 92.6743 19.1729C92.4326 19.2825 92.1704 19.3352 91.9067 19.3271H91.1383C90.9416 19.3445 90.745 19.2917 90.5815 19.1773C90.52 19.1114 90.4732 19.0324 90.4443 18.9458C90.4155 18.8593 90.4053 18.7672 90.4144 18.6761V16.1297C90.0124 16.419 89.5636 16.6317 89.0892 16.7576C88.5324 16.9132 87.8754 17.0745 87.0903 17.2301C86.3052 17.3856 85.5312 17.4663 84.5847 17.5815C83.6381 17.6967 82.775 17.7889 82.0122 17.8523C81.0535 17.9099 80.0923 17.9099 79.1335 17.8523C78.2389 17.7908 77.7916 17.0918 77.7916 15.7552V9.58501C77.8079 9.26269 77.7385 8.94193 77.5912 8.65746C77.4632 8.43493 77.2856 8.24728 77.0733 8.11015C76.8689 7.95031 76.6464 7.81683 76.4107 7.71263C76.1713 7.60317 76.0488 7.49947 76.0488 7.40153C76.0525 7.28623 76.083 7.17356 76.1379 7.07315C76.1721 7.01324 76.2225 6.96497 76.2828 6.93427C76.3431 6.90357 76.4108 6.89176 76.4776 6.90031H87.2907C87.9923 6.90031 88.3542 7.18837 88.3598 7.77024C88.3654 8.35212 88.0035 8.64018 87.2796 8.64018H81.5445V11.152H87.3631C87.9199 11.152 88.1928 11.4631 88.1928 12.0969C88.1928 12.7306 87.9199 13.0417 87.3631 13.0417H81.5445Z" fill="#231F20"/>
<path d="M106.016 20.9017L111.3 21.2877C111.656 21.4029 111.857 21.6103 111.857 21.9041V25.3493C111.836 25.7964 111.944 26.2397 112.169 26.6225C112.358 26.876 112.826 27.0085 113.566 27.0085H124.268C125.048 27.0085 125.432 27.2966 125.432 27.8785C125.432 28.4603 125.048 28.7484 124.268 28.7484H110.582C109.955 28.72 109.342 28.553 108.783 28.2587C108.098 27.9361 107.759 27.2678 107.759 26.2653V23.4424C107.745 23.207 107.668 22.9802 107.538 22.787C107.407 22.5939 107.227 22.4418 107.018 22.3477C106.525 22.0558 106.163 21.8484 105.932 21.7255C105.61 21.5873 105.498 21.4144 105.587 21.1955C105.614 21.1023 105.672 21.0218 105.75 20.9681C105.828 20.9144 105.923 20.8909 106.016 20.9017ZM106.222 9.0337C105.921 9.05375 105.62 9.00862 105.337 8.90119C105.156 8.80579 104.99 8.68135 104.847 8.53247L103.961 7.53003C103.811 7.31111 103.783 7.13251 103.878 6.95392C103.972 6.77532 104.173 6.78108 104.479 6.87902C104.9 6.99464 105.328 7.07935 105.76 7.13251C106.315 7.18723 106.873 7.21222 107.43 7.20741H117.642C117.801 7.19511 117.96 7.22841 118.101 7.30365C118.243 7.37888 118.361 7.49311 118.444 7.63373C118.575 7.89239 118.635 8.1834 118.617 8.47486C118.444 9.84366 118.068 11.1767 117.503 12.427C117.073 13.4179 116.474 14.3198 115.732 15.0887C115.404 15.4159 114.978 15.6189 114.524 15.6648C114.056 15.7109 113.861 15.4632 113.939 14.9101C114.051 14.1438 114.14 13.3085 114.207 12.3982C114.273 11.488 114.307 10.3645 114.307 9.00489L106.222 9.0337ZM124.964 11.632L128.182 11.3958C128.773 11.3958 129.073 11.7645 129.084 12.548C129.096 13.3315 128.795 13.7463 128.182 13.7463H124.964V20.5157C124.966 21.0677 124.767 21.6003 124.407 22.0078C124.232 22.2205 124.013 22.3902 123.767 22.5048C123.52 22.6194 123.252 22.6759 122.982 22.6704H121.868C121.672 22.6919 121.475 22.6409 121.311 22.5263C121.247 22.4622 121.197 22.3838 121.167 22.297C121.136 22.2101 121.124 22.1172 121.133 22.0251V18.1824C120.293 18.7718 119.313 19.1107 118.299 19.1618C117.208 19.2386 115.909 19.277 114.401 19.277H104.479C104.26 19.2823 104.04 19.2727 103.822 19.2482C103.646 19.2152 103.485 19.1219 103.366 18.9832L102.308 17.7158C102.233 17.6426 102.187 17.5441 102.176 17.4384C102.166 17.3327 102.193 17.2267 102.252 17.1397C102.363 16.9611 102.553 16.915 102.809 16.9899C103.201 17.1777 103.617 17.3076 104.045 17.3759C104.599 17.4482 105.157 17.4791 105.715 17.468H108.02V14.6451C108.036 14.3104 107.963 13.9776 107.809 13.683C107.64 13.4187 107.394 13.217 107.107 13.1068C106.729 12.9282 106.551 12.7036 106.606 12.427C106.662 12.1505 106.851 12.0353 107.196 12.0756L111.333 12.4558C111.403 12.4578 111.471 12.4784 111.531 12.5158C111.59 12.5532 111.639 12.606 111.673 12.669C111.722 12.7592 111.751 12.8596 111.757 12.9628V17.4796H113.672C115.305 17.4796 116.827 17.4392 118.238 17.3586C119.641 17.2779 120.604 16.9841 121.111 16.4714V7.55884C121.123 7.30136 121.058 7.04628 120.926 6.82792C120.794 6.60956 120.6 6.4384 120.37 6.33747L119.112 5.76136C118.845 5.60004 118.756 5.40992 118.845 5.18524C118.867 5.09279 118.921 5.01195 118.997 4.95786C119.073 4.90377 119.165 4.88015 119.257 4.89142L124.391 5.42145C124.697 5.46177 124.864 5.54243 124.903 5.67494C124.935 5.76394 124.955 5.85692 124.964 5.95147V11.632Z" fill="#231F20"/>
<path d="M151.774 27.3658C151.778 27.9216 151.579 28.4584 151.217 28.8694C151.043 29.0874 150.823 29.2618 150.574 29.3795C150.325 29.4972 150.054 29.5553 149.781 29.5493H148.667C148.471 29.5675 148.275 29.5167 148.11 29.4052C148.047 29.339 147.999 29.2592 147.969 29.1716C147.94 29.084 147.929 28.9907 147.938 28.8983V20.8326C147.072 21.3847 146.105 21.7456 145.098 21.8927C143.623 22.1124 142.133 22.2107 140.643 22.1865H134.519C133.811 22.2153 133.111 22.0138 132.52 21.6104C132.244 21.3722 132.03 21.0671 131.896 20.7223C131.761 20.3775 131.712 20.0037 131.751 19.6343V16.1776C131.769 15.9044 131.691 15.6337 131.533 15.4141C131.375 15.1945 131.146 15.0403 130.888 14.9793C130.281 14.8295 129.975 14.6164 129.975 14.3398C129.975 14.0633 130.02 14.0345 130.103 14.0057C130.218 13.9688 130.339 13.9532 130.46 13.9596H139.986V9.39099H132.798C132.612 9.39628 132.426 9.38665 132.241 9.36218C132.098 9.30677 131.97 9.21577 131.868 9.09717L130.849 7.85276C130.772 7.78162 130.723 7.68278 130.712 7.57598C130.702 7.46919 130.731 7.3623 130.794 7.27665C130.905 7.08077 131.111 7.05196 131.417 7.18447C131.793 7.36649 132.193 7.49071 132.603 7.55318C133.043 7.6093 133.486 7.63432 133.928 7.62808H143.394C143.552 7.61251 143.71 7.65539 143.84 7.74906C143.887 7.80527 143.924 7.87116 143.946 7.94256C143.968 8.01396 143.975 8.08932 143.968 8.16386V14.5011C143.963 14.6542 143.927 14.8045 143.863 14.9425C143.799 15.0804 143.707 15.2029 143.595 15.3019C143.364 15.5263 143.059 15.6518 142.743 15.6534H135.794V19.4039C135.783 19.5502 135.803 19.6973 135.853 19.8347C135.903 19.9721 135.982 20.0964 136.083 20.1989C136.316 20.3917 136.61 20.4864 136.907 20.4639H139.959C141.768 20.4639 143.361 20.4006 144.753 20.2738C145.894 20.228 147.005 19.8766 147.977 19.2541V7.55894C147.986 7.2983 147.917 7.04115 147.779 6.82257C147.642 6.60399 147.442 6.43463 147.208 6.33758L145.95 5.76146C145.683 5.60015 145.594 5.41003 145.677 5.18535C145.701 5.09243 145.756 5.01149 145.833 4.95747C145.909 4.90346 146.002 4.88003 146.095 4.89153L151.201 5.42156C151.507 5.46188 151.674 5.54254 151.713 5.67505C151.745 5.76405 151.765 5.85702 151.774 5.95158V27.3658Z" fill="#231F20"/>
<path d="M163.852 21.9769C164.754 21.379 165.804 21.0612 166.875 21.0612C167.947 21.0612 168.996 21.379 169.899 21.9769C170.316 22.2316 170.661 22.5943 170.901 23.0293C171.141 23.4642 171.267 23.9563 171.267 24.4571C171.267 24.9579 171.141 25.45 170.901 25.885C170.661 26.3199 170.316 26.6826 169.899 26.9373C168.996 27.5352 167.947 27.853 166.875 27.853C165.804 27.853 164.754 27.5352 163.852 26.9373C163.446 26.674 163.111 26.3083 162.879 25.8745C162.647 25.4407 162.525 24.953 162.525 24.4571C162.525 23.9613 162.647 23.4735 162.879 23.0397C163.111 22.6059 163.446 22.2402 163.852 21.9769ZM161.185 20.5021C159.396 21.4239 158.503 22.7432 158.507 24.46C158.507 26.1883 159.392 27.4846 161.174 28.4121C162.951 29.3253 164.908 29.8004 166.892 29.8004C168.876 29.8004 170.833 29.3253 172.611 28.4121C174.385 27.4865 175.274 26.1691 175.278 24.46C175.278 22.7316 174.398 21.4239 172.627 20.5021C170.859 19.5762 168.902 19.1002 166.92 19.1136C164.929 19.1016 162.964 19.5774 161.185 20.5021ZM172.399 8.16168C172.432 9.31531 172.393 10.47 172.282 11.6184C172.187 12.3558 172.115 12.9722 172.054 13.4619C171.976 14.0726 172.154 14.4413 172.583 14.5681C173.011 14.6948 173.529 14.4701 174.136 13.8767C174.732 13.2465 175.236 12.5305 175.634 11.7509C176.289 10.4437 176.7 9.02107 176.848 7.55676C176.847 7.26892 176.788 6.98443 176.675 6.72139C176.602 6.57964 176.49 6.4632 176.353 6.38642C176.217 6.30964 176.062 6.27588 175.907 6.2893H160.918C160.36 6.29995 159.803 6.28072 159.247 6.23169C158.834 6.15742 158.431 6.02766 158.05 5.84569C157.954 5.7709 157.836 5.73047 157.716 5.73047C157.595 5.73047 157.478 5.7709 157.382 5.84569C157.22 5.99548 157.226 6.22593 157.382 6.53703L158.328 7.75263C158.444 7.88315 158.584 7.98718 158.74 8.05798C159.024 8.1323 159.316 8.16717 159.609 8.16168H172.399ZM157.788 15.8355C156.97 15.8355 156.413 15.8355 156.118 15.7952C155.704 15.732 155.301 15.6078 154.921 15.4265C154.821 15.3528 154.701 15.3132 154.578 15.3132C154.456 15.3132 154.336 15.3528 154.236 15.4265C154.063 15.582 154.063 15.8067 154.236 16.1063L155.205 17.2585C155.312 17.3958 155.437 17.5161 155.578 17.6157C155.875 17.6991 156.184 17.7283 156.491 17.7022H178.602C179.459 17.7022 179.882 17.3853 179.882 16.7458C179.882 16.1063 179.459 15.7837 178.602 15.7837H167.978V11.3822C167.98 11.3391 167.972 11.2961 167.955 11.257C167.937 11.2178 167.911 11.1837 167.878 11.1575C167.814 11.1115 167.738 11.0855 167.661 11.0826L162.699 10.7312C162.504 10.7312 162.343 10.8291 162.209 11.0826C162.076 11.3361 162.209 11.5665 162.638 11.7624C163.067 11.9583 163.317 12.1772 163.596 12.3385C163.75 12.4679 163.869 12.6359 163.942 12.8265C164.015 13.0172 164.04 13.2241 164.013 13.4274V15.8183L157.788 15.8355Z" fill="#231F20"/>
<path d="M199.337 16.7076C198.469 17.2807 197.49 17.6486 196.47 17.785C194.86 18.0437 193.232 18.167 191.603 18.1537H185.417C184.22 18.1537 183.496 17.8426 183.262 17.2261C183.062 16.7737 182.941 16.2879 182.906 15.7916V10.0305C182.922 9.70743 182.851 9.38607 182.7 9.10293C182.574 8.8821 182.401 8.69467 182.193 8.55562C181.978 8.41567 181.752 8.29242 181.519 8.1869C181.28 8.07744 181.168 7.97374 181.168 7.8758C181.168 7.75398 181.194 7.63365 181.246 7.52437C181.28 7.46241 181.331 7.41231 181.393 7.38049C181.454 7.34867 181.523 7.33659 181.592 7.34578H194.571C195.278 7.34578 195.634 7.63383 195.645 8.21571C195.657 8.79759 195.295 9.08564 194.571 9.08564H186.887V15.2674C186.926 15.7743 187.054 16.097 187.271 16.2237C187.541 16.3596 187.841 16.4154 188.14 16.385H190.879C192.564 16.4135 194.25 16.3539 195.929 16.2064C197.144 16.1383 198.318 15.7301 199.326 15.0254V7.53589C199.33 7.27846 199.258 7.0259 199.12 6.81183C198.981 6.59776 198.783 6.43234 198.552 6.33758L197.299 5.76146C197.032 5.60015 196.943 5.41003 197.026 5.18535C197.05 5.09243 197.105 5.01149 197.182 4.95747C197.259 4.90346 197.352 4.88003 197.444 4.89153L202.722 5.42155C203.023 5.46188 203.196 5.54254 203.235 5.67505C203.266 5.76406 203.284 5.85715 203.29 5.95158V10.5605L206.514 10.3531C207.105 10.3128 207.405 10.693 207.416 11.5053C207.427 12.3176 207.132 12.6748 206.514 12.6748H203.29V20.4293C203.292 20.9848 203.094 21.521 202.734 21.933C202.56 22.1494 202.342 22.3229 202.096 22.4406C201.849 22.5582 201.58 22.6171 201.308 22.6128H200.05C199.854 22.6319 199.657 22.5811 199.493 22.4688C199.432 22.4014 199.386 22.3213 199.357 22.2339C199.328 22.1465 199.317 22.0537 199.326 21.9618L199.337 16.7076ZM185.183 20.2219L190.434 20.5734C190.796 20.7174 190.991 20.919 190.991 21.1956V25.3494C190.97 25.7964 191.078 26.2398 191.302 26.6226C191.492 26.8761 191.959 27.0086 192.7 27.0086H202.572C203.346 27.0086 203.741 27.2966 203.741 27.8785C203.741 28.4604 203.346 28.7484 202.572 28.7484H189.766C189.141 28.7205 188.529 28.5534 187.973 28.2587C187.282 27.9361 186.943 27.2678 186.943 26.2654V22.4054C186.936 22.1857 186.86 21.9742 186.727 21.8035C186.593 21.6328 186.408 21.5123 186.202 21.4606C185.706 21.2647 185.345 21.1207 185.116 21.017C184.793 20.8787 184.682 20.7059 184.777 20.4869C184.803 20.4004 184.856 20.325 184.927 20.272C184.998 20.2191 185.084 20.1914 185.172 20.1931L185.183 20.2219Z" fill="#231F20"/>
<path d="M54.8569 41.849C55.047 41.855 55.2363 41.8217 55.4137 41.7511C55.5047 41.6971 55.5791 41.6177 55.6284 41.5218C55.6776 41.426 55.6997 41.3178 55.6921 41.2095V36.8368C55.7044 36.7329 55.6872 36.6275 55.6428 36.5334C55.5983 36.4393 55.5284 36.3606 55.4416 36.3068C55.2639 36.2357 55.0753 36.1986 54.8848 36.1973V35.9727H58.0808V36.1973C57.8519 36.1936 57.6265 36.2554 57.4294 36.3759C57.3124 36.4624 57.2568 36.6813 57.2568 37.0269V38.9627L59.2947 36.9924C59.3933 36.9026 59.4863 36.8064 59.5731 36.7043C59.6139 36.6413 59.6352 36.567 59.6343 36.4912C59.6378 36.4397 59.6226 36.3888 59.5917 36.3483C59.5608 36.3078 59.5165 36.2807 59.4673 36.2722C59.2587 36.2252 59.046 36.2001 58.8325 36.1973V35.9727H61.572V36.1973C61.1408 36.2177 60.7222 36.3547 60.3582 36.5949C59.7139 37.105 59.1003 37.6552 58.5207 38.2426L61.405 41.6992C61.4551 41.7605 61.5206 41.8064 61.5943 41.8318C61.6875 41.8555 61.7825 41.8709 61.8783 41.8778V42.0564H58.7045V41.8318C58.8998 41.832 59.095 41.8205 59.2891 41.7972C59.3949 41.7972 59.4506 41.7223 59.4506 41.6416C59.4434 41.5879 59.4244 41.5367 59.3949 41.4918C59.3427 41.4058 59.2831 41.3248 59.2167 41.2499L57.4962 39.1931L57.2568 39.4236V41.1923C57.246 41.3001 57.2668 41.4089 57.3164 41.5044C57.366 41.6 57.4422 41.6779 57.5352 41.728C57.7119 41.8018 57.9015 41.8371 58.092 41.8318V42.0564H54.8569V41.849Z" fill="#424242"/>
<path d="M64.9793 41.9476C64.6383 41.9529 64.3061 41.8359 64.0391 41.6164C63.7722 41.3968 63.5869 41.0884 63.5149 40.7436C63.353 40.1834 63.2815 39.5994 63.3033 39.0152C63.2864 38.4468 63.356 37.8791 63.5093 37.333C63.5811 36.9854 63.7665 36.6742 64.0343 36.4517C64.3021 36.2292 64.6358 36.109 64.9793 36.1116C65.2302 36.1112 65.4765 36.1818 65.6915 36.3158C65.9064 36.4499 66.0818 36.6422 66.1987 36.8721C66.5401 37.539 66.6962 38.2908 66.6497 39.044C66.6715 39.6282 66.6 40.2122 66.4381 40.7724C66.3617 41.1114 66.1751 41.4131 65.9096 41.627C65.6441 41.8409 65.3157 41.9541 64.9793 41.9476ZM64.9793 35.8408C64.084 35.8029 63.2107 36.1345 62.5516 36.7626C62.2501 37.0585 62.0116 37.4164 61.8515 37.8132C61.6914 38.2101 61.6131 38.6371 61.6217 39.0671C61.6158 39.4759 61.6919 39.8815 61.8453 40.2584C61.9986 40.6352 62.2258 40.975 62.5126 41.2563C62.8399 41.5808 63.2269 41.8337 63.6507 42C64.0745 42.1663 64.5264 42.2425 64.9793 42.2242C65.8533 42.2663 66.7098 41.9613 67.3735 41.3715C67.681 41.073 67.9261 40.7125 68.0936 40.3122C68.2611 39.9118 68.3475 39.4802 68.3475 39.044C68.3475 38.6078 68.2611 38.1762 68.0936 37.7759C67.9261 37.3755 67.681 37.015 67.3735 36.7165C66.7128 36.1189 65.8562 35.8056 64.9793 35.8408Z" fill="#424242"/>
<path d="M70.7869 38.957V36.6526C70.7823 36.5966 70.7905 36.5404 70.8108 36.4883C70.8311 36.4363 70.863 36.3899 70.9039 36.353C71.1616 36.2519 71.4438 36.2387 71.7093 36.3154C71.9748 36.3921 72.2096 36.5547 72.3794 36.7793C72.496 37.0365 72.5496 37.3194 72.5353 37.6031C72.5353 38.1793 72.4017 38.5365 72.1288 38.692C71.7077 38.8877 71.2481 38.9785 70.7869 38.957ZM68.4316 42.0565H71.6054V41.8318C71.3726 41.8492 71.1409 41.7842 70.9484 41.6475C70.8172 41.4615 70.7594 41.2307 70.7869 41.0022V39.2451H71.0598L73.0142 42.0565H74.9463V41.8318C74.8709 41.8265 74.7962 41.813 74.7236 41.7915C74.6555 41.7614 74.5974 41.7114 74.5565 41.6475L72.7803 39.0838C73.0907 39.0196 73.3824 38.8815 73.6322 38.6805C73.803 38.5461 73.9401 38.3714 74.0322 38.1709C74.1242 37.9705 74.1684 37.7501 74.1612 37.5282C74.1544 37.1975 74.0369 36.8794 73.8287 36.6283C73.6206 36.3772 73.3346 36.2086 73.0197 36.1513C72.5193 36.0099 72.0015 35.9459 71.4829 35.9612H68.4316V36.1859C68.6458 36.182 68.8578 36.2314 69.0497 36.3299C69.1315 36.4209 69.1924 36.5298 69.2281 36.6485C69.2638 36.7671 69.2732 36.8926 69.2557 37.0155V41.0195C69.2711 41.1354 69.2637 41.2532 69.2341 41.3661C69.2044 41.4789 69.1531 41.5844 69.0831 41.6763C68.8867 41.798 68.6604 41.8581 68.4316 41.8491V42.0565Z" fill="#424242"/>
<path d="M75.2629 42.0564V41.8317C75.4537 41.8339 75.643 41.7967 75.8197 41.7223C75.9101 41.6714 75.9838 41.5938 76.0314 41.4994C76.079 41.405 76.0984 41.2981 76.087 41.1922V36.8368C76.099 36.7295 76.0794 36.6208 76.0307 36.5252C75.982 36.4296 75.9065 36.3515 75.8141 36.301C75.636 36.2325 75.4474 36.1974 75.2573 36.1973V35.9727H80.7363V37.7874H80.4913C80.437 37.3264 80.2211 36.902 79.8844 36.5949C79.4029 36.3365 78.8599 36.2265 78.3198 36.278C78.1306 36.2574 77.9394 36.2851 77.763 36.3587C77.7185 36.4026 77.6847 36.4569 77.6644 36.517C77.6441 36.577 77.6378 36.6412 77.646 36.7043V38.7956C78.0369 38.8534 78.4345 38.7568 78.7596 38.5248C78.9965 38.2287 79.1471 37.8691 79.1939 37.4878H79.4334V40.4894H79.1939C79.1721 40.0938 79.0276 39.716 78.7819 39.4121C78.4616 39.1675 78.0641 39.0565 77.6683 39.101V41.2844C77.6601 41.358 77.6701 41.4326 77.6974 41.5011C77.7247 41.5696 77.7683 41.6299 77.8242 41.6762C78.0245 41.7637 78.2424 41.7992 78.459 41.7799C78.9687 41.8026 79.4754 41.6875 79.9289 41.4457C80.3799 41.1458 80.7331 40.7121 80.9423 40.2013H81.2096L80.8198 42.0737L75.2629 42.0564Z" fill="#424242"/>
<path d="M83.1426 39.9319L84.0001 37.8464H84.078L84.9801 39.9319H83.1426ZM81.4165 42.0578H83.3431V41.8331C83.184 41.8331 83.0253 41.8157 82.8698 41.7812C82.6916 41.7179 82.6025 41.6257 82.6025 41.4932C82.6171 41.3185 82.6585 41.1474 82.725 40.9862C82.764 40.8767 82.8586 40.6348 83.0034 40.2718H85.097L85.342 40.8479C85.3977 40.9689 85.4367 41.0726 85.4701 41.159C85.5111 41.2638 85.5356 41.3746 85.5424 41.4874C85.5424 41.643 85.4923 41.7409 85.3977 41.7812C85.1991 41.832 84.9953 41.8572 84.7908 41.8561V42.0578H87.8476V41.8331C87.7534 41.8423 87.6584 41.8265 87.5717 41.7872C87.485 41.7479 87.4094 41.6864 87.3521 41.6084C87.1352 41.2797 86.9488 40.9306 86.7953 40.5656L84.6905 35.8242H84.4177L82.3297 40.7673C82.2287 41.0363 82.0999 41.2932 81.9455 41.5335C81.8798 41.6229 81.7958 41.6961 81.6995 41.7479C81.6033 41.7997 81.4971 41.8288 81.3887 41.8331L81.4165 42.0578Z" fill="#424242"/>
<path d="M89.8408 41.849C90.0314 41.8548 90.221 41.8195 90.3976 41.7453C90.4846 41.6895 90.5551 41.61 90.6012 41.5155C90.6474 41.421 90.6675 41.3151 90.6593 41.2095V36.8368C90.6717 36.7364 90.6563 36.6343 90.6149 36.5426C90.5735 36.4508 90.5078 36.3731 90.4255 36.3183C90.249 36.2418 90.06 36.2008 89.8687 36.1973V35.9727H93.0703V36.1973C92.8803 36.1982 92.6919 36.2333 92.5135 36.301C92.4255 36.3561 92.3539 36.4353 92.3067 36.5299C92.2595 36.6244 92.2386 36.7307 92.2462 36.8368V38.7092H94.5124V36.8368C94.5247 36.7329 94.5075 36.6275 94.463 36.5334C94.4186 36.4393 94.3487 36.3606 94.2619 36.3068C94.0839 36.2368 93.8954 36.1997 93.705 36.1973V35.9727H96.9178V36.1973C96.7269 36.1998 96.5381 36.2388 96.361 36.3126C96.2746 36.3654 96.205 36.4431 96.1605 36.5362C96.116 36.6293 96.0986 36.7337 96.1105 36.8368V41.2095C96.1029 41.3178 96.125 41.426 96.1742 41.5218C96.2235 41.6177 96.2979 41.6971 96.3889 41.7511C96.5665 41.8211 96.7557 41.8544 96.9457 41.849V42.0564H93.7329V41.8318C93.9238 41.8348 94.1132 41.7976 94.2897 41.7223C94.3786 41.67 94.4507 41.592 94.4972 41.4978C94.5437 41.4036 94.5626 41.2974 94.5514 41.1923V39.124H92.2852V41.2095C92.2714 41.3239 92.2911 41.44 92.3417 41.5427C92.3923 41.6454 92.4716 41.7301 92.5692 41.7857C92.7484 41.8488 92.9367 41.88 93.126 41.8778V42.0564H89.9243L89.8408 41.849Z" fill="#424242"/>
<path d="M100.509 41.948C100.168 41.9533 99.8359 41.8363 99.5689 41.6167C99.3019 41.3972 99.1167 41.0888 99.0447 40.7439C98.7662 39.6351 98.7662 38.471 99.0447 37.3621C99.1164 37.0146 99.3018 36.7034 99.5696 36.4809C99.8374 36.2584 100.171 36.1382 100.515 36.1408C100.763 36.1378 101.009 36.2041 101.224 36.3328C101.44 36.4616 101.618 36.648 101.74 36.8724C102.081 37.5394 102.237 38.2912 102.191 39.0444C102.211 39.629 102.138 40.213 101.973 40.7727C101.897 41.1128 101.709 41.4152 101.443 41.6292C101.176 41.8433 100.846 41.9558 100.509 41.948ZM100.509 35.8412C99.6139 35.8046 98.7412 36.136 98.0814 36.763C97.7799 37.0589 97.5414 37.4168 97.3813 37.8136C97.2212 38.2104 97.1429 38.6375 97.1515 39.0674C97.1456 39.4763 97.2217 39.8819 97.375 40.2587C97.5284 40.6356 97.7556 40.9754 98.0424 41.2567C98.3697 41.5812 98.7567 41.8341 99.1805 42.0004C99.6043 42.1667 100.056 42.2429 100.509 42.2246C101.381 42.2555 102.232 41.9401 102.887 41.3431C103.194 41.0446 103.439 40.6841 103.607 40.2837C103.774 39.8834 103.861 39.4518 103.861 39.0156C103.861 38.5794 103.774 38.1478 103.607 37.7474C103.439 37.3471 103.194 36.9866 102.887 36.6881C102.226 36.1051 101.377 35.8025 100.509 35.8412Z" fill="#424242"/>
<path d="M107.363 35.9727V36.1973C107.108 36.1795 106.854 36.2353 106.628 36.3587C106.505 36.4566 106.444 36.6813 106.444 37.0269V40.0516C106.427 40.4156 106.485 40.7792 106.617 41.1174C106.72 41.3468 106.889 41.5373 107.102 41.6622C107.315 41.7872 107.56 41.8404 107.803 41.8145C108.095 41.8491 108.39 41.7944 108.652 41.6572C108.915 41.52 109.132 41.3063 109.278 41.0425C109.436 40.6689 109.508 40.2628 109.49 39.8557V37.0961C109.517 36.8551 109.451 36.613 109.306 36.422C109.09 36.2681 108.833 36.1894 108.571 36.1973V35.9727H110.642V36.1973C110.432 36.2196 110.229 36.2884 110.047 36.399C109.986 36.4798 109.942 36.5726 109.917 36.6716C109.892 36.7707 109.887 36.8739 109.902 36.9751V39.8557C109.951 40.5001 109.75 41.1382 109.345 41.6301C109.098 41.8586 108.809 42.0323 108.495 42.1403C108.181 42.2484 107.849 42.2884 107.519 42.2581C106.405 42.2581 105.687 41.947 105.292 41.3248C105.066 40.9423 104.956 40.4991 104.974 40.0516V37.0269C104.974 36.687 104.93 36.4508 104.835 36.3817C104.643 36.2625 104.424 36.1988 104.2 36.1973V35.9727H107.363Z" fill="#424242"/>
<path d="M110.982 39.9685H111.255C111.346 40.5244 111.601 41.0377 111.985 41.4376C112.304 41.7353 112.719 41.8996 113.148 41.8985C113.312 41.9148 113.477 41.8951 113.632 41.8404C113.788 41.7858 113.93 41.6976 114.05 41.5816C114.217 41.403 114.314 41.1671 114.323 40.9191C114.327 40.7937 114.303 40.6692 114.254 40.5545C114.205 40.4399 114.131 40.3381 114.039 40.2565C113.806 40.0816 113.554 39.9365 113.288 39.8244L112.681 39.5306C112.209 39.333 111.778 39.0436 111.411 38.678C111.164 38.3919 111.033 38.0187 111.044 37.6352C111.05 37.1759 111.223 36.7359 111.528 36.4023C111.724 36.1996 111.959 36.0431 112.219 35.9437C112.478 35.8442 112.756 35.8041 113.031 35.8262C113.369 35.8243 113.704 35.8728 114.028 35.9702C114.209 36.0365 114.396 36.0866 114.585 36.12C114.625 36.1246 114.665 36.1198 114.703 36.1058C114.74 36.0918 114.774 36.0691 114.802 36.0394C114.847 35.9753 114.879 35.9029 114.897 35.8262H115.181V37.785H114.913C114.798 37.3387 114.571 36.9315 114.256 36.604C114.114 36.4457 113.942 36.3195 113.75 36.2333C113.559 36.147 113.352 36.1026 113.143 36.1027C112.873 36.0891 112.608 36.1771 112.397 36.3505C112.309 36.4243 112.239 36.5175 112.191 36.6232C112.142 36.7288 112.118 36.8443 112.118 36.9611C112.11 37.0807 112.13 37.2005 112.175 37.3107C112.221 37.4209 112.291 37.5183 112.38 37.5949C112.728 37.8463 113.102 38.0587 113.494 38.2286L114.195 38.5627C114.47 38.6882 114.723 38.8573 114.947 39.064C115.113 39.2209 115.245 39.4124 115.334 39.6259C115.423 39.8394 115.468 40.07 115.465 40.3026C115.458 40.5442 115.406 40.782 115.31 41.0025C115.215 41.223 115.078 41.4218 114.908 41.5873C114.662 41.8037 114.377 41.9663 114.068 42.0653C113.76 42.1643 113.436 42.1977 113.115 42.1635C112.929 42.1614 112.743 42.146 112.558 42.1174C112.369 42.0832 112.183 42.0331 112.001 41.9676L111.818 41.9042L111.695 41.8754H111.595C111.558 41.8696 111.52 41.8734 111.485 41.8864C111.45 41.8995 111.419 41.9215 111.394 41.9503C111.348 42.0156 111.316 42.0902 111.3 42.1692H111.027L110.982 39.9685Z" fill="#424242"/>
<path d="M115.877 41.849C116.067 41.852 116.255 41.8208 116.434 41.7569C116.532 41.7013 116.611 41.6166 116.662 41.5139C116.712 41.4112 116.732 41.2951 116.718 41.1807V36.8368C116.732 36.7293 116.713 36.62 116.664 36.5241C116.615 36.4281 116.539 36.3502 116.445 36.301C116.267 36.2315 116.079 36.1964 115.888 36.1973V35.9727H119.157V36.1973C118.951 36.194 118.745 36.2271 118.55 36.2953C118.457 36.3461 118.38 36.4251 118.332 36.5219C118.283 36.6187 118.264 36.7286 118.277 36.8368V41.2095C118.264 41.3066 118.277 41.4056 118.316 41.4952C118.354 41.5848 118.416 41.6615 118.494 41.7165C118.701 41.8167 118.929 41.8622 119.157 41.849V42.0564H115.866L115.877 41.849Z" fill="#424242"/>
<path d="M119.547 41.847C119.784 41.8705 120.022 41.8028 120.215 41.6569C120.329 41.5065 120.384 41.3175 120.371 41.1268V36.8693C120.081 36.5582 119.909 36.3739 119.814 36.2932C119.735 36.2306 119.64 36.1944 119.541 36.1895V35.9648H121.529L124.836 39.7499H124.881V37.094C124.903 36.8588 124.842 36.6231 124.708 36.4315C124.511 36.2681 124.264 36.1842 124.012 36.1953V35.9706H126.033V36.1953C125.825 36.2113 125.623 36.2763 125.443 36.3854C125.343 36.4603 125.293 36.6389 125.293 36.9097V42.2503H125.031L120.827 37.4109H120.76V40.9482C120.748 41.1484 120.791 41.3481 120.883 41.5244C120.981 41.633 121.102 41.717 121.236 41.7699C121.37 41.8228 121.514 41.8433 121.657 41.8297V42.0544H119.547V41.847Z" fill="#424242"/>
<path d="M127.297 36.8089C127.622 36.4894 128.004 36.2407 128.423 36.0774C128.842 35.9141 129.289 35.8396 129.736 35.8583C130.136 35.8621 130.533 35.9321 130.911 36.0657C131.145 36.1663 131.39 36.2378 131.64 36.2789C131.686 36.2808 131.732 36.2726 131.774 36.2547C131.816 36.2368 131.854 36.2097 131.885 36.1752C131.958 36.0821 132.012 35.9741 132.041 35.8583H132.297V37.9669H132.064C131.872 37.5694 131.628 37.2011 131.34 36.8723C131.152 36.6482 130.92 36.4678 130.66 36.3427C130.4 36.2176 130.118 36.1507 129.831 36.1463C129.56 36.1287 129.291 36.1908 129.053 36.3254C128.816 36.4601 128.62 36.6617 128.489 36.9068C128.172 37.5675 128.026 38.302 128.066 39.0384C128.056 39.7297 128.189 40.4152 128.455 41.0491C128.588 41.3397 128.804 41.5806 129.074 41.7385C129.345 41.8964 129.656 41.9635 129.964 41.9305C130.109 41.9492 130.255 41.9374 130.395 41.8958C130.535 41.8542 130.665 41.7837 130.777 41.6886C130.867 41.5736 130.911 41.4271 130.9 41.2795V40.3289C130.916 40.2169 130.899 40.1026 130.853 40.0001C130.806 39.8976 130.732 39.8116 130.638 39.7528C130.415 39.6795 130.181 39.6482 129.948 39.6606V39.436H133.183V39.6606C132.952 39.6413 132.723 39.7088 132.537 39.8508C132.412 40.0374 132.357 40.2646 132.381 40.4903V41.6425C132.058 41.8124 131.716 41.9383 131.362 42.017C130.847 42.1497 130.317 42.2136 129.786 42.2071C129.326 42.2303 128.866 42.1582 128.432 41.9949C127.999 41.8317 127.602 41.5806 127.264 41.2565C126.983 40.9739 126.762 40.635 126.612 40.2605C126.463 39.886 126.389 39.4838 126.395 39.0788C126.386 38.6565 126.461 38.2368 126.617 37.8461C126.772 37.4555 127.004 37.1023 127.297 36.8089Z" fill="#424242"/>
<path d="M135.504 41.849C135.754 41.8789 136.005 41.8133 136.211 41.6647C136.328 41.5131 136.385 41.3221 136.373 41.1289V36.8368C136.385 36.7457 136.375 36.6529 136.343 36.5671C136.311 36.4813 136.258 36.4056 136.189 36.3471C135.98 36.2508 135.755 36.1999 135.526 36.1973V35.9727H137.915L139.758 40.1553H139.836L141.674 35.9727H144.068V36.1973C143.842 36.1947 143.62 36.2523 143.422 36.3644C143.305 36.4566 143.244 36.6755 143.244 37.0269V41.0194C143.229 41.1357 143.237 41.2539 143.268 41.3668C143.298 41.4797 143.351 41.585 143.422 41.6762C143.614 41.804 143.84 41.8646 144.068 41.849V42.0564H140.927V41.8318C141.146 41.8355 141.363 41.7883 141.562 41.6935C141.707 41.6128 141.774 41.4342 141.774 41.1577V36.7677H141.707L139.407 42.0564H139.14L136.813 36.8714H136.774V40.9503C136.756 41.1878 136.819 41.4242 136.952 41.6186C137.173 41.7926 137.449 41.8748 137.726 41.849V42.0564H135.499L135.504 41.849Z" fill="#424242"/>
<path d="M146.022 39.9319L146.88 37.8464H146.935L147.832 39.9319H146.022ZM144.302 42.0578H146.228V41.8331C146.069 41.8334 145.91 41.816 145.755 41.7812C145.571 41.7179 145.482 41.6257 145.482 41.4932C145.5 41.3184 145.543 41.1475 145.61 40.9862C145.649 40.8767 145.738 40.6348 145.883 40.2718H147.982L148.227 40.8479C148.277 40.9689 148.322 41.0726 148.35 41.159C148.392 41.2637 148.418 41.3745 148.428 41.4874C148.428 41.643 148.377 41.7409 148.283 41.7812C148.084 41.8316 147.88 41.8567 147.676 41.8561V42.0578H150.727V41.8331C150.633 41.8423 150.538 41.8265 150.451 41.7872C150.365 41.7479 150.289 41.6864 150.232 41.6084C150.023 41.2796 149.846 40.9303 149.703 40.5656L147.592 35.8242H147.325L145.232 40.7673C145.131 41.0363 145.002 41.2932 144.847 41.5335C144.782 41.6235 144.698 41.6971 144.602 41.749C144.506 41.8009 144.399 41.8296 144.291 41.8331L144.302 42.0578Z" fill="#424242"/>
<path d="M150.895 41.847C151.134 41.8703 151.373 41.8027 151.568 41.6569C151.678 41.5045 151.731 41.3164 151.719 41.1268V36.8693C151.553 36.6675 151.376 36.4752 151.19 36.2932C151.111 36.2306 151.016 36.1944 150.917 36.1895V35.9648H152.905L156.195 39.7499H156.24V37.094C156.262 36.8588 156.201 36.6231 156.067 36.4315C155.871 36.2672 155.623 36.1831 155.371 36.1953V35.9706H157.392V36.1953C157.184 36.2113 156.982 36.2763 156.802 36.3854C156.702 36.4603 156.652 36.6389 156.652 36.9097V42.2503H156.39L152.203 37.4109H152.142V40.9482C152.128 41.1478 152.169 41.3474 152.259 41.5244C152.357 41.633 152.477 41.717 152.611 41.7699C152.746 41.8228 152.89 41.8433 153.033 41.8297V42.0544H150.895V41.847Z" fill="#424242"/>
<path d="M159.113 39.9319L159.971 37.8464H160.026L160.917 39.9319H159.113ZM157.393 42.0578H159.319V41.8331C159.16 41.8334 159.002 41.816 158.846 41.7812C158.662 41.7179 158.573 41.6257 158.573 41.4932C158.591 41.3184 158.634 41.1475 158.701 40.9862C158.74 40.8767 158.835 40.6348 158.974 40.2718H161.073L161.318 40.8479L161.446 41.159C161.485 41.2646 161.509 41.3751 161.519 41.4874C161.519 41.643 161.469 41.7409 161.374 41.7812C161.175 41.8316 160.972 41.8567 160.767 41.8561V42.0578H163.824V41.8331C163.729 41.8433 163.633 41.8281 163.545 41.7887C163.457 41.7493 163.381 41.6873 163.323 41.6084C163.116 41.2782 162.939 40.9292 162.794 40.5656L160.689 35.8242H160.416L158.323 40.7673C158.22 41.0346 158.094 41.2912 157.944 41.5335C157.878 41.6229 157.794 41.6961 157.698 41.7479C157.602 41.7997 157.496 41.8288 157.387 41.8331L157.393 42.0578Z" fill="#424242"/>
<path d="M164.403 36.8081C164.724 36.4914 165.104 36.2443 165.519 36.0811C165.933 35.9179 166.376 35.8419 166.819 35.8575C167.219 35.8618 167.616 35.9318 167.994 36.0649C168.224 36.1706 168.465 36.248 168.712 36.2953C168.758 36.2977 168.804 36.2896 168.846 36.2717C168.888 36.2538 168.926 36.2264 168.957 36.1916C169.035 36.1014 169.088 35.9924 169.113 35.8747H169.369V37.966H169.136C168.953 37.5703 168.718 37.202 168.44 36.8714C168.252 36.6468 168.021 36.466 167.76 36.3409C167.5 36.2157 167.217 36.1491 166.931 36.1455C166.66 36.1286 166.391 36.191 166.154 36.3255C165.916 36.4601 165.72 36.6613 165.589 36.906C165.277 37.5682 165.133 38.3019 165.171 39.0376C165.158 39.7292 165.291 40.4153 165.561 41.0483C165.692 41.3394 165.909 41.5808 166.179 41.7388C166.45 41.8968 166.761 41.9636 167.07 41.9297C167.214 41.9481 167.36 41.9361 167.5 41.8945C167.64 41.8529 167.77 41.7826 167.883 41.6878C167.971 41.5719 168.013 41.4255 168 41.2787V40.3281C168.02 40.2158 168.006 40.0996 167.959 39.9961C167.912 39.8926 167.835 39.8071 167.738 39.752C167.515 39.6776 167.281 39.6464 167.048 39.6598V39.4351H170.283V39.6598C170.054 39.6403 169.826 39.7079 169.642 39.8499C169.515 40.0358 169.458 40.2631 169.481 40.4894V41.6417C169.159 41.8135 168.816 41.9395 168.462 42.0161C167.948 42.1486 167.421 42.2124 166.892 42.2063C166.431 42.2295 165.971 42.1573 165.538 41.9941C165.105 41.8309 164.707 41.5798 164.369 41.2557C164.08 40.9694 163.853 40.6235 163.701 40.2404C163.55 39.8574 163.478 39.4456 163.49 39.0319C163.487 38.6163 163.566 38.2044 163.723 37.8219C163.88 37.4394 164.112 37.0943 164.403 36.8081Z" fill="#424242"/>
<path d="M170.644 42.0564V41.8317C170.835 41.8339 171.024 41.7967 171.201 41.7223C171.291 41.6714 171.365 41.5938 171.413 41.4994C171.46 41.405 171.48 41.2981 171.468 41.1922V36.8368C171.48 36.7295 171.461 36.6208 171.412 36.5252C171.363 36.4296 171.288 36.3515 171.195 36.301C171.017 36.2325 170.829 36.1974 170.639 36.1973V35.9727H176.095V37.7874H175.85C175.796 37.3264 175.58 36.902 175.243 36.5949C174.762 36.3371 174.219 36.2272 173.679 36.278C173.49 36.2567 173.298 36.2844 173.122 36.3587C173.078 36.4026 173.044 36.4569 173.023 36.517C173.003 36.577 172.997 36.6412 173.005 36.7043V38.7956C173.396 38.8523 173.793 38.7557 174.119 38.5248C174.356 38.2287 174.506 37.8691 174.553 37.4878H174.792V40.4894H174.553C174.531 40.0938 174.387 39.716 174.141 39.4121C173.82 39.1685 173.423 39.0576 173.027 39.101V41.2844C173.019 41.358 173.029 41.4326 173.056 41.5011C173.084 41.5696 173.127 41.6299 173.183 41.6762C173.383 41.7643 173.601 41.8 173.818 41.7799C174.328 41.8026 174.834 41.6875 175.288 41.4457C175.739 41.1458 176.092 40.7121 176.301 40.2013H176.569L176.179 42.0737L170.644 42.0564Z" fill="#424242"/>
<path d="M176.931 41.849C177.18 41.8789 177.432 41.8133 177.638 41.6647C177.754 41.5131 177.812 41.3221 177.799 41.1289V36.8368C177.812 36.7452 177.802 36.6516 177.768 36.5656C177.735 36.4795 177.681 36.4042 177.61 36.3471C177.404 36.25 177.18 36.199 176.953 36.1973V35.9727H179.342L181.201 40.1553H181.279L183.117 35.9727H185.511V36.1973C185.284 36.1958 185.06 36.2532 184.86 36.3644C184.743 36.4566 184.687 36.6755 184.687 37.0269V41.0194C184.672 41.1353 184.679 41.2532 184.709 41.366C184.738 41.4788 184.79 41.5843 184.86 41.6762C185.054 41.8019 185.282 41.8623 185.511 41.849V42.0564H182.371V41.8318C182.589 41.8342 182.806 41.787 183.005 41.6935C183.145 41.6128 183.217 41.4342 183.217 41.1577V36.7677H183.15L180.834 42.0564H180.561L178.239 36.8714H178.178V40.9503C178.158 41.1871 178.219 41.4234 178.351 41.6186C178.573 41.794 178.851 41.8763 179.13 41.849V42.0564H176.903L176.931 41.849Z" fill="#424242"/>
<path d="M185.878 42.0564V41.8317C186.069 41.8339 186.258 41.7967 186.435 41.7223C186.525 41.6714 186.599 41.5938 186.647 41.4994C186.694 41.405 186.714 41.2981 186.702 41.1922V36.8368C186.714 36.7295 186.695 36.6208 186.646 36.5252C186.597 36.4296 186.522 36.3515 186.429 36.301C186.251 36.2325 186.063 36.1974 185.873 36.1973V35.9727H191.329V37.7874H191.084C191.03 37.3264 190.814 36.902 190.477 36.5949C189.996 36.3371 189.453 36.2272 188.913 36.278C188.724 36.2567 188.532 36.2844 188.356 36.3587C188.311 36.4026 188.278 36.4569 188.257 36.517C188.237 36.577 188.231 36.6412 188.239 36.7043V38.7956C188.63 38.8523 189.027 38.7557 189.353 38.5248C189.589 38.2287 189.74 37.8691 189.787 37.4878H190.026V40.4894H189.787C189.765 40.0938 189.621 39.716 189.375 39.4121C189.054 39.1685 188.657 39.0576 188.261 39.101V41.2844C188.253 41.358 188.263 41.4326 188.29 41.5011C188.318 41.5696 188.361 41.6299 188.417 41.6762C188.617 41.7643 188.835 41.8 189.052 41.7799C189.562 41.8026 190.068 41.6875 190.522 41.4457C190.975 41.1466 191.33 40.7129 191.541 40.2013H191.808L191.418 42.0737L185.878 42.0564Z" fill="#424242"/>
<path d="M192.187 41.847C192.425 41.8705 192.663 41.8028 192.855 41.6569C192.969 41.5065 193.025 41.3175 193.011 41.1268V36.8693C192.722 36.5582 192.549 36.3739 192.482 36.2932C192.404 36.2306 192.309 36.1944 192.209 36.1895V35.9648H194.197L197.477 39.7499H197.521V37.094C197.544 36.8588 197.483 36.6231 197.349 36.4315C197.152 36.2681 196.905 36.1842 196.653 36.1953V35.9706H198.674V36.1953C198.466 36.2113 198.264 36.2763 198.084 36.3854C197.984 36.4603 197.933 36.6389 197.933 36.9097V42.2503H197.666L193.479 37.4109H193.412V40.9482C193.4 41.1484 193.442 41.3481 193.535 41.5244C193.633 41.633 193.753 41.717 193.887 41.7699C194.022 41.8228 194.166 41.8433 194.309 41.8297V42.0544H192.182L192.187 41.847Z" fill="#424242"/>
<path d="M199.12 35.9727H204.788V37.7874H204.521C204.512 37.5229 204.441 37.2646 204.313 37.0348C204.186 36.805 204.007 36.6106 203.792 36.4681C203.457 36.3248 203.096 36.2561 202.734 36.2665V41.0194C202.72 41.137 202.728 41.2563 202.76 41.3702C202.792 41.4841 202.845 41.5901 202.918 41.682C203.143 41.818 203.405 41.8746 203.664 41.8433V42.0564H200.323V41.826C200.582 41.8548 200.844 41.7962 201.069 41.6589C201.141 41.5683 201.195 41.4633 201.227 41.3503C201.258 41.2373 201.267 41.1188 201.253 41.0021V36.2953C200.89 36.2875 200.531 36.3561 200.195 36.4969C199.965 36.6259 199.773 36.8165 199.639 37.0486C199.505 37.2806 199.433 37.5458 199.432 37.8162H199.159L199.12 35.9727Z" fill="#424242"/>
</svg>
