<svg width="1513" height="799" viewBox="0 0 1513 799" fill="none" xmlns="http://www.w3.org/2000/svg">
<g clip-path="url(#clip0_642_71)">
<rect width="1512.43" height="798.91" fill="white"/>
<path d="M17.8101 659.94L16.3701 661.36L17.8101 662.79H88.1801L89.6301 661.36L88.1801 659.94H17.8101Z" fill="#92795A"/>
<path d="M22.8101 661.35V675.96L24.2401 677.39L25.6801 675.96V661.35L24.2401 659.94L22.8101 661.35Z" fill="#92795A"/>
<path d="M80.2998 661.35V675.96L81.7398 677.39L83.1698 675.96V661.35L81.7398 659.94L80.2998 661.35Z" fill="#92795A"/>
<path d="M28.3402 639.84H77.6602V648.81H28.3402V639.84ZM26.9202 636.98L25.4902 638.41V650.23L26.9202 651.66H79.0702L80.5002 650.23V638.41L79.0702 636.98H26.9202Z" fill="#92795A"/>
<path d="M35.1802 652.15V661.35L36.6202 662.8L38.0502 661.35V652.15L36.6202 650.74L35.1802 652.15Z" fill="#92795A"/>
<path d="M67.9502 652.15V661.35L69.3602 662.8L70.8102 661.35V652.15L69.3602 650.74L67.9502 652.15Z" fill="#92795A"/>
<path d="M1458.14 580.4V667.51L1459.57 668.94L1461 667.51V580.4L1459.57 578.99L1458.14 580.4Z" fill="#92795A"/>
<path d="M1459.58 548.87C1451.27 548.87 1444.52 555.62 1444.52 563.93C1444.52 572.24 1451.27 578.99 1459.58 578.99C1467.89 578.99 1474.64 572.24 1474.64 563.93C1474.64 555.62 1467.89 548.87 1459.58 548.87ZM1459.58 581.83C1449.71 581.83 1441.67 573.8 1441.67 563.92C1441.67 554.04 1449.7 546.01 1459.58 546.01C1469.46 546.01 1477.49 554.04 1477.49 563.92C1477.49 573.8 1469.46 581.83 1459.58 581.83Z" fill="#92795A"/>
<path d="M1464.96 583.95H1454.19L1452.76 582.52L1454.19 581.1H1464.96L1466.39 582.52L1464.96 583.95Z" fill="#92795A"/>
<path d="M1459.58 623.37L1458.21 622.33C1457 618.03 1452.9 606.49 1448.37 604.56C1444.56 602.93 1442.73 603.31 1442.72 603.32L1441 602.28L1441.98 600.56C1442.25 600.48 1444.71 599.88 1449.5 601.93C1456.1 604.73 1460.49 619.84 1460.96 621.56L1459.98 623.31L1459.59 623.37" fill="#92795A"/>
<path d="M1434.15 595.87C1430.41 595.87 1427.37 598.92 1427.37 602.65C1427.37 606.38 1430.41 609.43 1434.15 609.43C1437.89 609.43 1440.93 606.38 1440.93 602.65C1440.93 598.92 1437.89 595.87 1434.15 595.87ZM1434.15 612.28C1428.83 612.28 1424.52 607.95 1424.52 602.65C1424.52 597.35 1428.83 593.02 1434.15 593.02C1439.47 593.02 1443.78 597.33 1443.78 602.65C1443.78 607.97 1439.47 612.28 1434.15 612.28Z" fill="#92795A"/>
<path d="M1444.07 607.46L1442.64 606.03V597.65L1444.07 596.22L1445.51 597.65V606.03L1444.07 607.46Z" fill="#92795A"/>
<path d="M1459.64 623.37L1459.25 623.31L1458.27 621.56C1458.74 619.84 1463.12 604.74 1469.73 601.93C1474.52 599.88 1476.98 600.48 1477.25 600.56L1478.24 602.31L1476.51 603.32C1476.42 603.29 1474.58 602.97 1470.86 604.56C1466.32 606.49 1462.22 618.04 1461.02 622.33L1459.65 623.37" fill="#92795A"/>
<path d="M1485.07 595.87C1481.33 595.87 1478.29 598.92 1478.29 602.65C1478.29 606.38 1481.33 609.43 1485.07 609.43C1488.81 609.43 1491.85 606.38 1491.85 602.65C1491.85 598.92 1488.81 595.87 1485.07 595.87ZM1485.07 612.28C1479.75 612.28 1475.44 607.95 1475.44 602.65C1475.44 597.35 1479.75 593.02 1485.07 593.02C1490.39 593.02 1494.7 597.33 1494.7 602.65C1494.7 607.97 1490.39 612.28 1485.07 612.28Z" fill="#92795A"/>
<path d="M1475.14 607.46L1473.71 606.03V597.65L1475.14 596.22L1476.58 597.65V606.03L1475.14 607.46Z" fill="#92795A"/>
<path d="M1450.58 563.2L1449.15 561.77C1449.15 556.99 1453.04 553.1 1457.82 553.1L1459.25 554.53L1457.82 555.96C1454.62 555.96 1452.02 558.57 1452.02 561.76L1450.59 563.19" fill="#92795A"/>
<path d="M1450.91 674.54H1468.21V668.95H1450.91V674.54ZM1469.65 677.39H1449.5L1448.07 675.96V667.52L1449.5 666.09H1469.65L1471.08 667.52V675.96L1469.65 677.39Z" fill="#92795A"/>
<path d="M882.43 676.39L881 674.96V637L882.43 635.57L883.87 637V674.96L882.43 676.39Z" fill="#92795A"/>
<path d="M872.63 635.58H892.23V586.08H872.63V635.58ZM893.66 638.43H871.2L869.78 637V584.64L871.2 583.22H893.66L895.09 584.64V637L893.66 638.43Z" fill="#92795A"/>
<path d="M882.43 590.77C879.79 590.77 877.65 592.91 877.65 595.55C877.65 598.19 879.79 600.34 882.43 600.34C885.07 600.34 887.21 598.18 887.21 595.55C887.21 592.92 885.07 590.77 882.43 590.77ZM882.43 603.19C878.22 603.19 874.79 599.77 874.79 595.55C874.79 591.33 878.23 587.92 882.43 587.92C886.63 587.92 890.07 591.34 890.07 595.55C890.07 599.76 886.63 603.19 882.43 603.19Z" fill="#92795A"/>
<path d="M882.43 605.83C879.79 605.83 877.65 607.97 877.65 610.61C877.65 613.25 879.79 615.4 882.43 615.4C885.07 615.4 887.21 613.24 887.21 610.61C887.21 607.98 885.07 605.83 882.43 605.83ZM882.43 618.25C878.22 618.25 874.79 614.83 874.79 610.61C874.79 606.39 878.23 602.98 882.43 602.98C886.63 602.98 890.07 606.4 890.07 610.61C890.07 614.82 886.63 618.25 882.43 618.25Z" fill="#92795A"/>
<path d="M882.43 620.89C879.79 620.89 877.65 623.03 877.65 625.67C877.65 628.31 879.79 630.46 882.43 630.46C885.07 630.46 887.21 628.3 887.21 625.67C887.21 623.04 885.07 620.89 882.43 620.89ZM882.43 633.31C878.22 633.31 874.79 629.89 874.79 625.67C874.79 621.45 878.23 618.03 882.43 618.03C886.63 618.03 890.07 621.47 890.07 625.67C890.07 629.87 886.63 633.31 882.43 633.31Z" fill="#92795A"/>
<path d="M991.42 706.25H939.76L938.33 704.82L939.76 703.4H991.42L992.85 704.82L991.42 706.25Z" fill="#92795A"/>
<path d="M1024.53 706.25H1009.67L1008.24 704.82L1009.67 703.4H1024.53C1028.01 703.4 1030.85 700.57 1030.85 697.08C1030.85 693.59 1028.02 690.76 1024.53 690.76H910.17C906.69 690.76 903.85 693.59 903.85 697.08C903.85 700.57 906.68 703.4 910.17 703.4H921.93L923.35 704.82L921.93 706.25H910.17C905.11 706.25 900.99 702.14 900.99 697.09C900.99 692.04 905.11 687.91 910.17 687.91H1024.53C1029.58 687.91 1033.69 692.03 1033.69 697.09C1033.69 702.15 1029.58 706.25 1024.53 706.25Z" fill="#92795A"/>
<path d="M930.84 697.96C926.92 697.96 923.62 701.02 923.35 704.92L923.32 705.46C923.32 709.61 926.7 712.98 930.84 712.98C934.98 712.98 938.35 709.6 938.35 705.46C938.35 701.32 934.99 697.95 930.84 697.95M930.84 715.83C925.13 715.83 920.47 711.19 920.47 705.46L920.5 704.71C920.88 699.33 925.43 695.09 930.84 695.09C936.55 695.09 941.21 699.75 941.21 705.46C941.21 711.17 936.55 715.83 930.84 715.83Z" fill="#92795A"/>
<path d="M1000.73 697.96C996.58 697.96 993.22 701.32 993.22 705.47C993.22 709.62 996.58 712.99 1000.73 712.99C1004.88 712.99 1008.24 709.61 1008.24 705.47C1008.24 701.33 1004.88 697.96 1000.73 697.96ZM1000.73 715.84C995.02 715.84 990.36 711.2 990.36 705.47C990.36 699.74 995.02 695.1 1000.73 695.1C1006.44 695.1 1011.1 699.76 1011.1 705.47C1011.1 711.18 1006.44 715.84 1000.73 715.84Z" fill="#92795A"/>
<path d="M905.17 692.58L903.74 691.15V654.58C903.74 650.41 907.13 647.01 911.31 647.01H993.73C1013.99 647.01 1030.46 663.5 1030.46 683.74V690.78L1029.03 692.21L1027.6 690.78V683.74C1027.6 665.06 1012.41 649.87 993.73 649.87H911.31C908.72 649.87 906.61 651.98 906.61 654.57V691.14L905.18 692.57" fill="#92795A"/>
<path d="M977.81 663.16L977.42 663.55V674.24L977.81 674.63H1007.85L1008.24 674.24V672.17C1008.24 667.2 1004.19 663.16 999.23 663.16H977.81ZM1007.85 677.48H977.81C976.02 677.48 974.57 676.03 974.57 674.24V663.55C974.57 661.76 976.02 660.29 977.81 660.29H999.23C1005.77 660.29 1011.09 665.63 1011.09 672.17V674.24C1011.09 676.03 1009.64 677.48 1007.85 677.48Z" fill="#92795A"/>
<path d="M921.26 663.16L920.31 664.11V673.67L921.26 674.64H962.46L963.41 673.67V664.11L962.46 663.16H921.26ZM962.46 677.48H921.26C919.16 677.48 917.45 675.78 917.45 673.67V664.11C917.45 662.02 919.17 660.3 921.26 660.3H962.46C964.55 660.3 966.27 662.02 966.27 664.11V673.67C966.27 675.78 964.55 677.48 962.46 677.48Z" fill="#92795A"/>
<path d="M906.59 684.63H914.25V681.1H906.59V684.63ZM914.68 687.48H906.16L903.73 685.05V680.66L906.16 678.23H914.68L917.11 680.66V685.05L914.68 687.48Z" fill="#92795A"/>
<path d="M1028.74 688.84C1024.58 688.84 1021.2 685.46 1021.2 681.3C1021.2 677.73 1023.73 674.62 1027.23 673.91L1028.9 675.03L1027.78 676.7C1025.62 677.15 1024.04 679.08 1024.04 681.3C1024.04 683.88 1026.15 685.99 1028.73 685.99L1030.16 687.41L1028.73 688.84" fill="#92795A"/>
<path d="M1237.51 787.47H1175.88L1174.46 786.04L1175.88 784.62H1237.51L1238.94 786.04L1237.51 787.47Z" fill="#92795A"/>
<path d="M1272.81 787.47H1258.78L1257.36 786.04L1258.78 784.62H1272.81C1277.12 784.62 1280.62 781.11 1280.62 776.81C1280.62 772.51 1277.12 769 1272.81 769H1136.38C1132.07 769 1128.56 772.5 1128.56 776.81C1128.56 781.12 1132.07 784.62 1136.38 784.62H1154.11L1155.54 786.04L1154.11 787.47H1136.38C1130.49 787.47 1125.71 782.69 1125.71 776.81C1125.71 770.93 1130.49 766.14 1136.38 766.14H1272.81C1278.69 766.14 1283.47 770.92 1283.47 776.81C1283.47 782.7 1278.69 787.47 1272.81 787.47Z" fill="#92795A"/>
<path d="M1248.14 777.58C1243.05 777.58 1238.9 781.73 1238.9 786.82C1238.9 791.91 1243.05 796.06 1248.14 796.06C1253.23 796.06 1257.38 791.91 1257.38 786.82V786.16C1257.02 781.35 1252.96 777.58 1248.14 777.58ZM1248.14 798.91C1241.48 798.91 1236.05 793.48 1236.05 786.82C1236.05 780.16 1241.48 774.72 1248.14 774.72C1254.46 774.72 1259.76 779.65 1260.2 785.95L1260.23 786.82C1260.23 793.48 1254.8 798.91 1248.14 798.91Z" fill="#92795A"/>
<path d="M1164.77 777.58C1159.68 777.58 1155.53 781.73 1155.53 786.82C1155.53 791.91 1159.68 796.06 1164.77 796.06C1169.86 796.06 1174.01 791.91 1174.01 786.82C1174.01 781.73 1169.86 777.58 1164.77 777.58ZM1164.77 798.91C1158.11 798.91 1152.68 793.48 1152.68 786.82C1152.68 780.16 1158.11 774.72 1164.77 774.72C1171.43 774.72 1176.86 780.15 1176.86 786.82C1176.86 793.49 1171.43 798.91 1164.77 798.91Z" fill="#92795A"/>
<path d="M1131.01 770.72L1129.58 769.29V760.91C1129.58 736.9 1149.11 717.36 1173.13 717.36H1194.11L1195.53 718.78L1194.11 720.21H1173.13C1150.7 720.21 1132.45 738.46 1132.45 760.91V769.29L1131.02 770.72" fill="#92795A"/>
<path d="M1164.01 736.07C1159.34 736.07 1155.52 739.87 1155.52 744.56V750L1155.82 750.3H1177.83L1178.13 750V736.36L1177.83 736.07H1164.01ZM1177.83 753.15H1155.82C1154.09 753.15 1152.67 751.73 1152.67 750V744.56C1152.67 738.3 1157.75 733.21 1164 733.21H1177.82C1179.55 733.21 1180.97 734.63 1180.97 736.36V750C1180.97 751.73 1179.55 753.15 1177.82 753.15" fill="#92795A"/>
<path d="M1131.36 766.7L1129.93 765.27L1131.36 763.85C1134.6 763.85 1137.22 761.21 1137.22 757.97C1137.22 755.2 1135.25 752.78 1132.53 752.23L1131.43 750.56L1133.12 749.44C1137.14 750.27 1140.07 753.86 1140.07 757.97C1140.07 762.79 1136.17 766.7 1131.36 766.7Z" fill="#92795A"/>
<path d="M1195.54 766.15H1275.19V697.73H1195.54V766.15ZM1276.6 769H1194.1L1192.67 767.57V696.3L1194.1 694.88H1276.6L1278.03 696.3V767.57L1276.6 769Z" fill="#92795A"/>
<path d="M1209.08 758.15H1261.64V711.14H1209.08V758.15ZM1263.06 761H1207.65L1206.22 759.57V709.71L1207.65 708.28H1263.06L1264.49 709.71V759.57L1263.06 761Z" fill="#92795A"/>
<path d="M361.83 704.13H317.08L315.66 702.69L317.08 701.28H361.83L363.26 702.69L361.83 704.13Z" fill="#92795A"/>
<path d="M398.77 704.13H379.26L377.83 702.7L379.26 701.28H398.77C400.85 701.28 402.55 699.58 402.55 697.5C402.55 695.42 400.85 693.72 398.77 693.72H280.16C278.06 693.72 276.38 695.41 276.38 697.5C276.38 699.59 278.07 701.28 280.16 701.28H299.67L301.1 702.7L299.67 704.13H280.16C276.5 704.13 273.53 701.15 273.53 697.5C273.53 693.85 276.5 690.87 280.16 690.87H398.77C402.43 690.87 405.4 693.84 405.4 697.5C405.4 701.16 402.43 704.13 398.77 704.13Z" fill="#92795A"/>
<path d="M308.37 697.64C304.13 697.64 300.7 701.08 300.7 705.31C300.7 709.54 304.14 712.98 308.37 712.98C312.6 712.98 316.04 709.53 316.04 705.31C316.04 701.09 312.59 697.64 308.37 697.64ZM308.37 715.83C302.57 715.83 297.85 711.11 297.85 705.31C297.85 699.51 302.57 694.79 308.37 694.79C314.17 694.79 318.89 699.51 318.89 705.31C318.89 711.11 314.17 715.83 308.37 715.83Z" fill="#92795A"/>
<path d="M370.54 697.64C366.3 697.64 362.87 701.08 362.87 705.31C362.87 709.54 366.31 712.98 370.54 712.98C374.77 712.98 378.21 709.53 378.21 705.31C378.21 701.09 374.76 697.64 370.54 697.64ZM370.54 715.83C364.74 715.83 360.02 711.11 360.02 705.31C360.02 699.51 364.74 694.79 370.54 694.79C376.34 694.79 381.06 699.51 381.06 705.31C381.06 711.11 376.34 715.83 370.54 715.83Z" fill="#92795A"/>
<path d="M312.21 669.41C308.94 669.41 306.29 672.06 306.29 675.33V678.13C306.29 681.39 308.94 684.05 312.21 684.05H362.09C365.36 684.05 368.01 681.38 368.01 678.13V677.53C368.01 673.05 364.36 669.41 359.87 669.41H312.21ZM362.09 686.91H312.21C307.37 686.91 303.44 682.98 303.44 678.14V675.34C303.44 670.5 307.37 666.55 312.21 666.55H359.87C365.93 666.55 370.86 671.48 370.86 677.54V678.14C370.86 682.98 366.93 686.91 362.09 686.91Z" fill="#92795A"/>
<path d="M283.72 690.86H395.14C393.9 674.2 371.31 660.88 343.69 660.88H343.55H291.77C287.32 660.88 283.71 664.84 283.71 669.73V690.86H283.72ZM396.62 693.71H282.29L280.87 692.28V669.73C280.87 663.28 285.77 658.02 291.78 658.02H343.69C373.66 658.02 398.04 673.4 398.04 692.28L396.61 693.71" fill="#92795A"/>
<path d="M337.15 686.91L335.71 685.48V667.98L337.15 666.55L338.58 667.98V685.48L337.15 686.91Z" fill="#92795A"/>
<path d="M287.49 693.71H282.79L281.36 692.28L282.79 690.86H287.49L288.95 688.89L287.49 686.91H282.79L281.36 685.48L282.79 684.05H287.49C289.87 684.05 291.82 686.22 291.82 688.89C291.82 691.56 289.88 693.71 287.49 693.71Z" fill="#92795A"/>
<path d="M396.62 692.67C391.55 692.67 387.09 688.63 387.09 684.02C387.09 681.29 388.34 678.77 390.5 677.1L392.5 677.36L392.24 679.36C390.78 680.49 389.95 682.18 389.95 684.02C389.95 687.34 393.46 689.82 396.61 689.82L398.04 691.24L396.61 692.67" fill="#92795A"/>
<path d="M77.7398 733.46H43.6898L42.2598 732.03L43.6898 730.61H77.7398L79.1598 732.03L77.7398 733.46ZM145.84 733.46H111.79L110.36 732.03L111.79 730.61H145.84L147.26 732.03L145.84 733.46ZM213.94 733.46H179.89L178.46 732.03L179.89 730.61H213.94L215.37 732.03L213.94 733.46ZM282.04 733.46H247.99L246.56 732.03L247.99 730.61H282.04L283.47 732.03L282.04 733.46ZM350.14 733.46H316.09L314.66 732.03L316.09 730.61H350.14L351.57 732.03L350.14 733.46ZM418.24 733.46H384.19L382.76 732.03L384.19 730.61H418.24L419.66 732.03L418.24 733.46ZM486.34 733.46H452.29L450.86 732.03L452.29 730.61H486.34L487.76 732.03L486.34 733.46ZM554.44 733.46H520.39L518.96 732.03L520.39 730.61H554.44L555.87 732.03L554.44 733.46ZM622.54 733.46H588.49L587.06 732.03L588.49 730.61H622.54L623.97 732.03L622.54 733.46ZM690.64 733.46H656.59L655.16 732.03L656.59 730.61H690.64L692.07 732.03L690.64 733.46ZM758.74 733.46H724.69L723.26 732.03L724.69 730.61H758.74L760.16 732.03L758.74 733.46ZM826.84 733.46H792.79L791.36 732.03L792.79 730.61H826.84L828.27 732.03L826.84 733.46ZM894.94 733.46H860.89L859.46 732.03L860.89 730.61H894.94L896.37 732.03L894.94 733.46ZM963.04 733.46H928.99L927.56 732.03L928.99 730.61H963.04L964.47 732.03L963.04 733.46ZM1031.14 733.46H997.09L995.66 732.03L997.09 730.61H1031.14L1032.57 732.03L1031.14 733.46ZM1099.24 733.46H1065.19L1063.76 732.03L1065.19 730.61H1099.24L1100.67 732.03L1099.24 733.46Z" fill="#92795A"/>
<path d="M1322.48 733.46H1288.43L1287.01 732.03L1288.43 730.61H1322.48L1323.91 732.03L1322.48 733.46ZM1390.58 733.46H1356.53L1355.11 732.03L1356.53 730.61H1390.58L1392.01 732.03L1390.58 733.46ZM1441.18 733.46H1424.63L1423.21 732.03L1424.63 730.61H1441.18L1442.61 732.03L1441.18 733.46Z" fill="#92795A"/>
<path d="M1188.02 677.39H1029.55L1028.13 675.96L1029.55 674.54H1186.59V487.98H934.35V647.61L932.92 649.04L931.48 647.61V486.55L932.92 485.11H1188.02L1189.45 486.55V675.96L1188.02 677.39Z" fill="#92795A"/>
<path d="M1400.05 677.39H1188.01L1186.6 675.96V487.34L1188.01 485.91L1189.44 487.34V674.54H1398.62V281.68H1189.44V433.08L1188.01 434.51L1186.6 433.08V280.27L1188.01 278.83H1400.05L1401.48 280.27V675.96L1400.05 677.39Z" fill="#92795A"/>
<path d="M901.97 485.12H1186.59V434.5H935.98L901.97 485.12ZM1188.02 487.97H899.29L898.04 487.22L898.12 485.74L934.02 432.27L935.21 431.64H1188.02L1189.45 433.07V486.54L1188.02 487.97Z" fill="#92795A"/>
<path d="M979.35 381.36H1141.69L1126.45 347.54H996.5L979.35 381.36ZM1143.91 384.21H977.03L975.81 383.53L975.76 382.13L994.35 345.46L995.63 344.68H1127.39L1128.69 345.52L1145.21 382.19L1145.12 383.56L1143.91 384.21Z" fill="#92795A"/>
<path d="M1034.99 674.54H1085.94V611.28H1034.99V674.54ZM1087.37 677.39H1033.57L1032.14 675.96V609.85L1033.57 608.42H1087.37L1088.8 609.85V675.96L1087.37 677.39Z" fill="#92795A"/>
<path d="M1060.47 677.39L1059.03 675.96V625.36L1060.47 623.92L1061.9 625.36V675.96L1060.47 677.39Z" fill="#92795A"/>
<path d="M1140.83 566.9C1126.34 566.9 1114.56 578.69 1114.56 593.17V674.6L1170.53 674.54V593.17C1170.53 578.68 1158.74 566.9 1144.24 566.9H1140.83ZM1170.59 677.39H1114.5C1112.96 677.39 1111.71 676.14 1111.71 674.6V593.17C1111.71 577.1 1124.78 564.03 1140.83 564.03H1144.24C1160.31 564.03 1173.38 577.1 1173.38 593.17V674.6C1173.38 676.14 1172.13 677.39 1170.59 677.39Z" fill="#92795A"/>
<path d="M1007.8 652.79L1006.37 651.36V593.18C1006.37 578.68 994.58 566.89 980.1 566.89H976.69C962.2 566.89 950.42 578.68 950.42 593.18V648.44L948.99 649.87L947.56 648.44V593.18C947.56 577.11 960.63 564.04 976.7 564.04H980.11C996.18 564.04 1009.25 577.11 1009.25 593.18V651.36L1007.82 652.79" fill="#92795A"/>
<path d="M1266.92 622.15C1258.92 622.15 1252.4 628.66 1252.4 636.67V674.31L1252.63 674.55H1283.91L1284.15 674.31V636.67C1284.15 628.67 1277.62 622.15 1269.62 622.15H1266.92ZM1283.91 677.39H1252.63C1250.93 677.39 1249.54 676 1249.54 674.3V636.66C1249.54 627.07 1257.33 619.28 1266.92 619.28H1269.62C1279.21 619.28 1287 627.07 1287 636.66V674.3C1287 676 1285.61 677.39 1283.91 677.39Z" fill="#92795A"/>
<path d="M1318.34 622.15C1310.34 622.15 1303.82 628.66 1303.82 636.67V674.31L1304.05 674.55H1335.33L1335.57 674.31V636.67C1335.57 628.67 1329.04 622.15 1321.04 622.15H1318.34ZM1335.33 677.39H1304.05C1302.35 677.39 1300.96 676 1300.96 674.3V636.66C1300.96 627.07 1308.75 619.28 1318.34 619.28H1321.04C1330.63 619.28 1338.42 627.07 1338.42 636.66V674.3C1338.42 676 1337.03 677.39 1335.33 677.39Z" fill="#92795A"/>
<path d="M1028 607.82H1092.94V597.6H1028V607.82ZM1094.35 610.67H1026.56L1025.13 609.24V596.17L1026.56 594.74H1094.35L1095.78 596.17V609.24L1094.35 610.67Z" fill="#92795A"/>
<path d="M1048.83 582.24H1072.12V558.95H1048.83V582.24ZM1073.54 585.09H1047.4L1045.97 583.66V557.52L1047.4 556.09H1073.54L1074.97 557.52V583.66L1073.54 585.09Z" fill="#92795A"/>
<path d="M1048.83 419.58H1072.12V396.29H1048.83V419.58ZM1073.54 422.43H1047.4L1045.97 421V394.86L1047.4 393.43H1073.54L1074.97 394.86V421L1073.54 422.43Z" fill="#92795A"/>
<path d="M1206.34 343.16H1227.37V319.87H1206.34V343.16ZM1228.8 346.01H1204.91L1203.49 344.58V318.44L1204.91 317.01H1228.8L1230.23 318.44V344.58L1228.8 346.01Z" fill="#92795A"/>
<path d="M1253.14 343.16H1274.17V319.87H1253.14V343.16ZM1275.6 346.01H1251.71L1250.28 344.58V318.44L1251.71 317.01H1275.6L1277.03 318.44V344.58L1275.6 346.01Z" fill="#92795A"/>
<path d="M1313.79 343.16H1334.82V319.87H1313.79V343.16ZM1336.25 346.01H1312.36L1310.94 344.58V318.44L1312.36 317.01H1336.25L1337.68 318.44V344.58L1336.25 346.01Z" fill="#92795A"/>
<path d="M1360.59 343.16H1381.62V319.87H1360.59V343.16ZM1383.05 346.01H1359.16L1357.74 344.58V318.44L1359.16 317.01H1383.05L1384.48 318.44V344.58L1383.05 346.01Z" fill="#92795A"/>
<path d="M1206.34 394.32H1227.37V371.03H1206.34V394.32ZM1228.8 397.17H1204.91L1203.49 395.74V369.6L1204.91 368.17H1228.8L1230.23 369.6V395.74L1228.8 397.17Z" fill="#92795A"/>
<path d="M1253.14 394.32H1274.17V371.03H1253.14V394.32ZM1275.6 397.17H1251.71L1250.28 395.74V369.6L1251.71 368.17H1275.6L1277.03 369.6V395.74L1275.6 397.17Z" fill="#92795A"/>
<path d="M1313.79 394.32H1334.82V371.03H1313.79V394.32ZM1336.25 397.17H1312.36L1310.94 395.74V369.6L1312.36 368.17H1336.25L1337.68 369.6V395.74L1336.25 397.17Z" fill="#92795A"/>
<path d="M1360.59 394.32H1381.62V371.03H1360.59V394.32ZM1383.05 397.17H1359.16L1357.74 395.74V369.6L1359.16 368.17H1383.05L1384.48 369.6V395.74L1383.05 397.17Z" fill="#92795A"/>
<path d="M1206.34 445.48H1227.37V422.19H1206.34V445.48ZM1228.8 448.33H1204.91L1203.49 446.9V420.76L1204.91 419.33H1228.8L1230.23 420.76V446.9L1228.8 448.33Z" fill="#92795A"/>
<path d="M1253.14 445.48H1274.17V422.19H1253.14V445.48ZM1275.6 448.33H1251.71L1250.28 446.9V420.76L1251.71 419.33H1275.6L1277.03 420.76V446.9L1275.6 448.33Z" fill="#92795A"/>
<path d="M1313.79 445.48H1334.82V422.19H1313.79V445.48ZM1336.25 448.33H1312.36L1310.94 446.9V420.76L1312.36 419.33H1336.25L1337.68 420.76V446.9L1336.25 448.33Z" fill="#92795A"/>
<path d="M1360.59 445.48H1381.62V422.19H1360.59V445.48ZM1383.05 448.33H1359.16L1357.74 446.9V420.76L1359.16 419.33H1383.05L1384.48 420.76V446.9L1383.05 448.33Z" fill="#92795A"/>
<path d="M1253.14 496.64H1274.17V473.35H1253.14V496.64ZM1275.6 499.49H1251.71L1250.28 498.06V471.92L1251.71 470.49H1275.6L1277.03 471.92V498.06L1275.6 499.49Z" fill="#92795A"/>
<path d="M1206.34 496.64H1227.37V473.35H1206.34V496.64ZM1228.8 499.49H1204.91L1203.49 498.06V471.92L1204.91 470.49H1228.8L1230.23 471.92V498.06L1228.8 499.49Z" fill="#92795A"/>
<path d="M1313.79 496.64H1334.82V473.35H1313.79V496.64ZM1336.25 499.49H1312.36L1310.94 498.06V471.92L1312.36 470.49H1336.25L1337.68 471.92V498.06L1336.25 499.49Z" fill="#92795A"/>
<path d="M1360.59 496.64H1381.62V473.35H1360.59V496.64ZM1383.05 499.49H1359.16L1357.74 498.06V471.92L1359.16 470.49H1383.05L1384.48 471.92V498.06L1383.05 499.49Z" fill="#92795A"/>
<path d="M1206.34 547.8H1227.37V524.51H1206.34V547.8ZM1228.8 550.65H1204.91L1203.49 549.22V523.08L1204.91 521.65H1228.8L1230.23 523.08V549.22L1228.8 550.65Z" fill="#92795A"/>
<path d="M1253.14 547.8H1274.17V524.51H1253.14V547.8ZM1275.6 550.65H1251.71L1250.28 549.22V523.08L1251.71 521.65H1275.6L1277.03 523.08V549.22L1275.6 550.65Z" fill="#92795A"/>
<path d="M1313.79 547.8H1334.82V524.51H1313.79V547.8ZM1336.25 550.65H1312.36L1310.94 549.22V523.08L1312.36 521.65H1336.25L1337.68 523.08V549.22L1336.25 550.65Z" fill="#92795A"/>
<path d="M1360.59 547.8H1381.62V524.51H1360.59V547.8ZM1383.05 550.65H1359.16L1357.74 549.22V523.08L1359.16 521.65H1383.05L1384.48 523.08V549.22L1383.05 550.65Z" fill="#92795A"/>
<path d="M1206.34 598.96H1227.37V575.67H1206.34V598.96ZM1228.8 601.81H1204.91L1203.49 600.38V574.24L1204.91 572.81H1228.8L1230.23 574.24V600.38L1228.8 601.81Z" fill="#92795A"/>
<path d="M1253.14 598.96H1274.17V575.67H1253.14V598.96ZM1275.6 601.81H1251.71L1250.28 600.38V574.24L1251.71 572.81H1275.6L1277.03 574.24V600.38L1275.6 601.81Z" fill="#92795A"/>
<path d="M1313.79 598.96H1334.82V575.67H1313.79V598.96ZM1336.25 601.81H1312.36L1310.94 600.38V574.24L1312.36 572.81H1336.25L1337.68 574.24V600.38L1336.25 601.81Z" fill="#92795A"/>
<path d="M1360.59 598.96H1381.62V575.67H1360.59V598.96ZM1383.05 601.81H1359.16L1357.74 600.38V574.24L1359.16 572.81H1383.05L1384.48 574.24V600.38L1383.05 601.81Z" fill="#92795A"/>
<path d="M963.25 536.69H987.37V513.4H963.25V536.69ZM988.8 539.54H961.82L960.4 538.11V511.97L961.82 510.54H988.8L990.23 511.97V538.11L988.8 539.54Z" fill="#92795A"/>
<path d="M1020.02 536.69H1044.14V513.4H1020.02V536.69ZM1045.57 539.54H1018.6L1017.17 538.11V511.97L1018.6 510.54H1045.57L1047 511.97V538.11L1045.57 539.54Z" fill="#92795A"/>
<path d="M1076.79 536.69H1100.91V513.4H1076.79V536.69ZM1102.34 539.54H1075.36L1073.94 538.11V511.97L1075.36 510.54H1102.34L1103.77 511.97V538.11L1102.34 539.54Z" fill="#92795A"/>
<path d="M1133.56 536.69H1157.68V513.4H1133.56V536.69ZM1159.11 539.54H1132.14L1130.71 538.11V511.97L1132.14 510.54H1159.11L1160.54 511.97V538.11L1159.11 539.54Z" fill="#92795A"/>
<path d="M988.8 649.87L987.37 648.44V622.14H968.63V648.44L967.21 649.87L965.78 648.44V620.72L967.21 619.29H988.8L990.23 620.72V648.44L988.8 649.87Z" fill="#92795A"/>
<path d="M1133.16 674.54H1151.9V622.14H1133.16V674.54ZM1153.33 677.39H1131.74L1130.31 675.96V620.72L1131.74 619.29H1153.33L1154.76 620.72V675.96L1153.33 677.39Z" fill="#92795A"/>
<path d="M1002.62 431.66H1118.32V384.22H1002.62V431.66ZM1119.74 434.51H1001.19L999.76 433.08V382.8L1001.19 381.37H1119.74L1121.17 382.8V433.08L1119.74 434.51Z" fill="#92795A"/>
<path d="M1400.05 301.83H1188.01L1186.6 300.4L1188.01 298.98H1400.05L1401.48 300.4L1400.05 301.83Z" fill="#92795A"/>
<path d="M1237.36 660.82H1188.01L1186.58 659.39L1188.01 657.98H1237.36L1238.8 659.39L1237.36 660.82Z" fill="#92795A"/>
<path d="M1400.05 660.82H1350.7L1349.27 659.39L1350.7 657.98H1400.05L1401.48 659.39L1400.05 660.82Z" fill="#92795A"/>
<path d="M1294.03 601.71L1292.6 600.28V318.64L1294.03 317.2L1295.47 318.64V600.28L1294.03 601.71Z" fill="#92795A"/>
<path d="M1268.27 677.39L1266.84 675.96V650.67L1268.27 649.23L1269.71 650.67V675.96L1268.27 677.39Z" fill="#92795A"/>
<path d="M1319.69 677.39L1318.26 675.96V650.67L1319.69 649.23L1321.12 650.67V675.96L1319.69 677.39Z" fill="#92795A"/>
<path d="M950.41 472.27H976.97V457.5H950.41V472.27ZM978.39 475.12H948.98L947.55 473.69V456.07L948.98 454.64H978.39L979.82 456.07V473.69L978.39 475.12Z" fill="#92795A"/>
<path d="M1150.19 472.27H1176.75V457.5H1150.19V472.27ZM1178.17 475.12H1148.76L1147.33 473.69V456.07L1148.76 454.64H1178.17L1179.6 456.07V473.69L1178.17 475.12Z" fill="#92795A"/>
<path d="M554.33 674.54H694.12V325.1L554.33 276.96V674.55V674.54ZM695.55 677.39H552.9L551.48 675.96V274.95L552.07 273.79L553.37 273.61L696.02 322.73L696.98 324.09V675.96L695.55 677.39Z" fill="#92795A"/>
<path d="M281.77 677.39H156.78L155.35 675.96V361.62L156.78 360.19H299.42L300.85 361.62V658.94L299.42 660.37L298 658.94V363.05H158.21V674.54H281.77L283.2 675.96L281.77 677.39Z" fill="#92795A"/>
<path d="M181.01 677.39L179.58 675.96V404.06L181.01 402.63L182.44 404.06V675.96L181.01 677.39Z" fill="#92795A"/>
<path d="M212.4 677.39L210.97 675.96V404.06L212.4 402.63L213.84 404.06V675.96L212.4 677.39Z" fill="#92795A"/>
<path d="M243.8 677.39L242.36 675.96V404.06L243.8 402.63L245.23 404.06V675.96L243.8 677.39Z" fill="#92795A"/>
<path d="M275.19 677.39L273.76 675.96V404.06L275.19 402.63L276.62 404.06V675.96L275.19 677.39Z" fill="#92795A"/>
<path d="M299.43 380.79H156.77L155.35 379.36L156.77 377.94H299.43L300.86 379.36L299.43 380.79Z" fill="#92795A"/>
<path d="M258.55 677.39L257.12 675.96V540.01L258.55 538.58L259.99 540.01V675.96L258.55 677.39Z" fill="#92795A"/>
<path d="M196.54 677.39L195.11 675.96V540.01L196.54 538.58L197.97 540.01V675.96L196.54 677.39Z" fill="#92795A"/>
<path d="M196.54 466.1L195.11 464.66V380.81L196.54 379.38L197.97 380.81V464.66L196.54 466.1Z" fill="#92795A"/>
<path d="M258.55 466.1L257.12 464.66V380.81L258.55 379.38L259.99 380.81V464.66L258.55 466.1Z" fill="#92795A"/>
<path d="M531.96 677.39H395.02L393.6 675.96L395.02 674.54H530.53V155.58H321.99V659.12L320.57 660.54L319.14 659.12V154.16L320.57 152.73H531.96L533.39 154.16V675.96L531.96 677.39Z" fill="#92795A"/>
<path d="M406.41 674.54H446.11V648.58C446.11 638.54 437.96 630.39 427.92 630.39H424.6C414.56 630.39 406.41 638.54 406.41 648.58V674.54ZM447.55 677.39H404.98L403.55 675.96V648.59C403.55 636.98 413 627.55 424.61 627.55H427.93C439.54 627.55 448.99 636.99 448.99 648.59V675.96L447.56 677.39" fill="#92795A"/>
<path d="M351.88 661.37L350.45 659.94V154.15L351.88 152.74L353.31 154.15V659.94L351.88 661.37Z" fill="#92795A"/>
<path d="M389.07 676.8L387.64 675.37V154.16L389.07 152.73L390.5 154.16V675.37L389.07 676.8Z" fill="#92795A"/>
<path d="M426.26 585.52L424.83 584.09V154.17L426.26 152.74L427.69 154.17V584.09L426.26 585.52Z" fill="#92795A"/>
<path d="M463.46 677.39L462.02 675.96V154.16L463.46 152.73L464.89 154.16V675.96L463.46 677.39Z" fill="#92795A"/>
<path d="M500.65 677.39L499.22 675.96V154.16L500.65 152.73L502.08 154.16V675.96L500.65 677.39Z" fill="#92795A"/>
<path d="M500.65 191.41H351.87L350.46 189.98L351.87 188.57H500.65L502.08 189.98L500.65 191.41Z" fill="#92795A"/>
<path d="M500.65 227.24H351.87L350.46 225.81L351.87 224.39H500.65L502.08 225.81L500.65 227.24Z" fill="#92795A"/>
<path d="M500.65 263.07H351.87L350.46 261.64L351.87 260.22H500.65L502.08 261.64L500.65 263.07Z" fill="#92795A"/>
<path d="M500.65 298.9H351.87L350.46 297.47L351.87 296.05H500.65L502.08 297.47L500.65 298.9Z" fill="#92795A"/>
<path d="M500.65 334.73H351.87L350.46 333.29L351.87 331.88H500.65L502.08 333.29L500.65 334.73Z" fill="#92795A"/>
<path d="M500.65 370.55H351.87L350.46 369.12L351.87 367.7H500.65L502.08 369.12L500.65 370.55Z" fill="#92795A"/>
<path d="M500.65 406.38H351.87L350.46 404.95L351.87 403.54H500.65L502.08 404.95L500.65 406.38Z" fill="#92795A"/>
<path d="M500.65 442.21H351.87L350.46 440.78L351.87 439.36H500.65L502.08 440.78L500.65 442.21Z" fill="#92795A"/>
<path d="M500.65 478.04H351.87L350.46 476.61L351.87 475.19H500.65L502.08 476.61L500.65 478.04Z" fill="#92795A"/>
<path d="M500.65 513.87H351.87L350.46 512.43L351.87 511.02H500.65L502.08 512.43L500.65 513.87Z" fill="#92795A"/>
<path d="M500.65 549.69H351.87L350.46 548.26L351.87 546.85H500.65L502.08 548.26L500.65 549.69Z" fill="#92795A"/>
<path d="M500.65 585.52H351.87L350.46 584.09L351.87 582.67H500.65L502.08 584.09L500.65 585.52Z" fill="#92795A"/>
<path d="M426.26 677.39L424.83 675.96V649.94L426.26 648.52L427.69 649.94V675.96L426.26 677.39Z" fill="#92795A"/>
<path d="M581.7 677.39L580.27 675.96V512.44L581.7 511.01H612.84L614.26 512.44V630.92L612.84 632.35L611.41 630.92V513.86H583.13V675.96L581.7 677.39Z" fill="#92795A"/>
<path d="M666.75 677.39L665.32 675.96V513.86H637.04V630.92L635.63 632.35L634.19 630.92V512.44L635.63 511.01H666.75L668.18 512.44V675.96L666.75 677.39Z" fill="#92795A"/>
<path d="M583.13 644.77H665.33V633.12H583.13V644.77ZM666.76 647.62H581.7L580.28 646.19V631.69L581.7 630.27H666.76L668.19 631.69V646.19L666.76 647.62Z" fill="#92795A"/>
<path d="M624.23 677.39L622.79 675.96V657.28L624.23 655.86L625.66 657.28V675.96L624.23 677.39Z" fill="#92795A"/>
<path d="M1603.3 677H1029.7L1028 675.997L1029.7 675H1603.3L1605 675.997L1603.3 677Z" fill="#92795A"/>
<path d="M905.17 677.39H390.7L389.28 675.96L390.7 674.54H905.17L906.6 675.96L905.17 677.39Z" fill="#92795A"/>
<path d="M282.29 677.39H1.43L0 675.96L1.43 674.54H282.29L283.73 675.96L282.29 677.39Z" fill="#92795A"/>
<path d="M748.3 491.93C734.78 491.93 723.79 502.93 723.79 516.44V604C723.79 617.51 734.78 628.51 748.3 628.51H755.26C768.78 628.51 779.77 617.51 779.77 604V516.44C779.77 502.93 768.78 491.93 755.26 491.93H748.3ZM755.26 631.36H748.3C733.21 631.36 720.93 619.09 720.93 604V516.44C720.93 501.35 733.21 489.08 748.3 489.08H755.26C770.35 489.08 782.62 501.35 782.62 516.44V604C782.62 619.09 770.35 631.36 755.26 631.36Z" fill="#92795A"/>
<path d="M812.84 548.13C804.66 548.13 797.99 554.79 797.99 562.98V617.91C797.99 626.09 804.65 632.76 812.84 632.76H817.21C825.39 632.76 832.06 626.1 832.06 617.91V562.98C832.06 554.8 825.4 548.13 817.21 548.13H812.84ZM817.21 635.6H812.84C803.09 635.6 795.14 627.66 795.14 617.9V562.97C795.14 553.22 803.08 545.27 812.84 545.27H817.21C826.96 545.27 834.91 553.21 834.91 562.97V617.9C834.91 627.65 826.97 635.6 817.21 635.6Z" fill="#92795A"/>
<path d="M751.78 677.39L750.35 675.96V629.94L751.78 628.51L753.21 629.94V675.96L751.78 677.39Z" fill="#92795A"/>
<path d="M815.03 677.39L813.59 675.96V634.17L815.03 632.74L816.46 634.17V675.96L815.03 677.39Z" fill="#92795A"/>
<path d="M773.35 677.39L771.91 675.96V660.25L773.35 658.82L774.78 660.25V675.96L773.35 677.39Z" fill="#92795A"/>
<path d="M773.35 632.7C770.53 632.7 768.22 634.99 768.22 637.81V653.7C768.22 656.52 770.53 658.83 773.35 658.83C776.17 658.83 778.47 656.52 778.47 653.7V637.81C778.47 634.99 776.16 632.7 773.35 632.7ZM773.35 661.67C768.95 661.67 765.38 658.1 765.38 653.7V637.81C765.38 633.42 768.95 629.84 773.35 629.84C777.75 629.84 781.32 633.43 781.32 637.81V653.7C781.32 658.1 777.75 661.67 773.35 661.67Z" fill="#92795A"/>
<path d="M796.77 677.39L795.33 675.96V665.48L796.77 664.07L798.2 665.48V675.96L796.77 677.39Z" fill="#92795A"/>
<path d="M796.77 640.84C793.95 640.84 791.64 643.13 791.64 645.97V658.95C791.64 661.77 793.95 664.08 796.77 664.08C799.59 664.08 801.89 661.77 801.89 658.95V645.97C801.89 643.14 799.58 640.84 796.77 640.84ZM796.77 666.92C792.37 666.92 788.8 663.35 788.8 658.95V645.97C788.8 641.57 792.37 638 796.77 638C801.17 638 804.74 641.57 804.74 645.97V658.95C804.74 663.35 801.17 666.92 796.77 666.92Z" fill="#92795A"/>
<path d="M828.34 677.39L826.91 675.96V665.48L828.34 664.07L829.77 665.48V675.96L828.34 677.39Z" fill="#92795A"/>
<path d="M828.34 646.29C825.52 646.29 823.21 648.58 823.21 651.4V658.94C823.21 661.76 825.52 664.07 828.34 664.07C831.16 664.07 833.46 661.76 833.46 658.94V651.4C833.46 648.58 831.15 646.29 828.34 646.29ZM828.34 666.91C823.94 666.91 820.37 663.34 820.37 658.94V651.4C820.37 647.01 823.94 643.43 828.34 643.43C832.74 643.43 836.31 647.02 836.31 651.4V658.94C836.31 663.34 832.74 666.91 828.34 666.91Z" fill="#92795A"/>
<path d="M751.78 631.55L750.35 630.12V522.74L751.78 521.31L753.21 522.74V630.12L751.78 631.55Z" fill="#92795A"/>
<path d="M815.03 638.76L813.59 637.33V573.81L815.03 572.37L816.46 573.81V637.33L815.03 638.76Z" fill="#92795A"/>
<path d="M751.78 585.06L750.76 584.62L750.79 582.6L763.96 569.84L765.98 569.87L765.94 571.89L752.78 584.65L751.78 585.06Z" fill="#92795A"/>
<path d="M751.78 606.9L750.76 606.46L750.79 604.44L763.96 591.68L765.98 591.71L765.94 593.73L752.78 606.49L751.78 606.9Z" fill="#92795A"/>
<path d="M815.21 604.63L814.19 604.2L814.22 602.18L827.39 589.41L829.41 589.44L829.37 591.46L816.21 604.23L815.21 604.63Z" fill="#92795A"/>
<path d="M815.03 586.06L814.03 585.65L800.87 572.89L800.83 570.87L802.85 570.84L816.02 583.6L816.05 585.62L815.03 586.06Z" fill="#92795A"/>
<path d="M751.78 624.55L750.79 624.14L737.63 611.37L737.58 609.35L739.6 609.32L752.78 622.09L752.81 624.11L751.78 624.55Z" fill="#92795A"/>
<path d="M751.78 570.06L750.79 569.65L737.63 556.89L737.58 554.87L739.6 554.84L752.78 567.61L752.81 569.62L751.78 570.06Z" fill="#92795A"/>
<path d="M751.78 552.81L750.79 552.4L737.63 539.63L737.58 537.61L739.6 537.58L752.78 550.35L752.81 552.37L751.78 552.81Z" fill="#92795A"/>
<path d="M111.43 539.78C102.67 539.78 95.5402 546.91 95.5402 555.68V614.15C95.5402 622.92 102.67 630.05 111.43 630.05H116.09C124.86 630.05 131.99 622.92 131.99 614.15V555.68C131.99 546.91 124.86 539.78 116.09 539.78H111.43ZM116.09 632.9H111.43C101.09 632.9 92.6802 624.49 92.6802 614.15V555.68C92.6802 545.34 101.09 536.93 111.43 536.93H116.09C126.43 536.93 134.84 545.34 134.84 555.68V614.15C134.84 624.49 126.43 632.9 116.09 632.9Z" fill="#92795A"/>
<path d="M113.77 677.39L112.33 675.96V631.48L113.77 630.04L115.2 631.48V675.96L113.77 677.39Z" fill="#92795A"/>
<path d="M127.94 677.39L126.51 675.96V664.8L127.94 663.39L129.37 664.8V675.96L127.94 677.39Z" fill="#92795A"/>
<path d="M127.94 644.27C124.88 644.27 122.39 646.76 122.39 649.82V657.84C122.39 660.9 124.88 663.39 127.94 663.39C131 663.39 133.49 660.9 133.49 657.84V649.82C133.49 646.76 131 644.27 127.94 644.27ZM127.94 666.23C123.31 666.23 119.54 662.46 119.54 657.83V649.81C119.54 645.18 123.31 641.41 127.94 641.41C132.57 641.41 136.34 645.18 136.34 649.81V657.83C136.34 662.46 132.57 666.23 127.94 666.23Z" fill="#92795A"/>
<path d="M113.77 636.26L112.33 634.83V567.21L113.77 565.78L115.2 567.21V634.83L113.77 636.26Z" fill="#92795A"/>
<path d="M113.96 599.93L112.94 599.5L112.97 597.48L126.99 583.88L129.01 583.93L128.98 585.94L114.96 599.53L113.96 599.93Z" fill="#92795A"/>
<path d="M113.77 580.17L112.77 579.76L98.7502 566.18L98.7202 564.16L100.74 564.11L114.76 577.71L114.79 579.73L113.77 580.17Z" fill="#92795A"/>
<path d="M184.23 48.1501L183.01 47.4701C177.95 39.1801 176.92 28.7501 180.82 19.1601C184.02 11.2801 190.54 5.02012 198.52 2.04012C213.2 -3.45988 228.76 2.60012 236.31 15.0201L239.61 14.7901C251.94 14.8901 262.46 24.8301 263.2 37.1401C263.4 40.6201 262.87 44.0301 261.62 47.2201L259.78 48.0301L258.97 46.1801C259.93 43.6901 260.42 41.0501 260.39 38.3601C260.28 28.2501 252.49 19.6401 242.51 17.9101C240.37 17.5501 238.3 17.5501 235.83 17.9701L234.32 17.2801C227.33 4.91012 211.78 -0.939881 197.62 5.51012C191.5 8.30012 186.48 13.3001 183.78 19.4701C179.88 28.4101 180.71 38.2201 185.45 45.9801L184.97 47.9401L184.23 48.1501Z" fill="#92795A"/>
<path d="M271.69 48.14H173.47L172.04 46.7L173.47 45.29H271.69L273.12 46.7L271.69 48.14Z" fill="#92795A"/>
<path d="M1313.48 52.6101L1312.26 51.9301C1308.52 45.8101 1308.01 37.9901 1311.45 31.0101C1313.39 27.0901 1316.64 23.8701 1320.52 21.8901C1331.1 16.5201 1342.92 20.4901 1348.56 29.4701L1350.72 29.3501C1358.62 29.5301 1365.52 35.5001 1366.62 43.3101C1367.04 46.2201 1366.71 49.0701 1365.69 51.6901L1363.85 52.5001L1363.04 50.6601C1363.81 48.6701 1364.1 46.5401 1363.88 44.3701C1363.31 38.3401 1358.44 33.4601 1352.48 32.3901C1351.08 32.1501 1349.72 32.1301 1348.06 32.4201L1346.52 31.6101C1345.6 29.5601 1344.53 27.5801 1342.68 26.3301C1327.86 16.2301 1311.99 26.6901 1311.99 40.8001C1311.99 44.2101 1312.92 47.5401 1314.7 50.4301L1314.22 52.3901L1313.48 52.6001" fill="#92795A"/>
<path d="M1371.98 52.61H1306.29L1304.85 51.18L1306.29 49.76H1371.98L1373.41 51.18L1371.98 52.61Z" fill="#92795A"/>
<path d="M989.54 194.92H1133.16C1134.7 191.24 1135.48 187.34 1135.48 183.3C1135.48 166.67 1121.94 153.14 1105.3 153.14C1103.46 153.14 1101.62 153.31 1099.84 153.64L1098.24 152.74C1092.81 138.07 1078.67 128.23 1063.04 128.23C1047.41 128.23 1032.8 138.37 1027.62 153.48L1025.86 154.38C1023.13 153.57 1020.27 153.14 1017.36 153.14C1000.73 153.14 987.21 166.68 987.21 183.3C987.21 187.34 987.99 191.24 989.53 194.92M1134.08 197.77H988.59L987.29 196.93C985.33 192.65 984.34 188.05 984.34 183.3C984.34 165.09 999.16 150.29 1017.35 150.29C1020.08 150.29 1022.78 150.62 1025.37 151.28C1031.31 135.72 1046.28 125.35 1063.04 125.35C1079.8 125.35 1094.36 135.46 1100.5 150.63C1102.07 150.4 1103.68 150.28 1105.29 150.28C1123.51 150.28 1138.33 165.08 1138.33 183.29C1138.33 188.04 1137.34 192.64 1135.38 196.92L1134.08 197.76" fill="#92795A"/>
<path d="M1155.13 197.76H988.6L987.18 196.33L988.6 194.92H1155.13L1156.56 196.33L1155.13 197.76Z" fill="#92795A"/>
<path d="M1189.6 197.76H1166.59L1165.15 196.33L1166.59 194.92H1189.6L1191.03 196.33L1189.6 197.76Z" fill="#92795A"/>
<path d="M960.92 11.0299H816.08L814.67 9.58993L816.08 8.17993H960.92L962.35 9.58993L960.92 11.0299Z" fill="#92795A"/>
<path d="M1037.98 40.13H980.21L978.78 38.7L980.21 37.28H1037.98L1039.41 38.7L1037.98 40.13Z" fill="#92795A"/>
<path d="M1004.38 11.31H980.2L978.79 9.87996L980.2 8.45996H1004.38L1005.81 9.87996L1004.38 11.31Z" fill="#92795A"/>
<path d="M685.34 130.01H598.26L596.83 128.58L598.26 127.16H685.34L686.77 128.58L685.34 130.01Z" fill="#92795A"/>
<path d="M698.15 146.98H661.86L660.44 145.55L661.86 144.13H698.15L699.58 145.55L698.15 146.98Z" fill="#92795A"/>
<path d="M151.31 76.13H82.2498L80.8198 74.69L82.2498 73.28H151.31L152.74 74.69L151.31 76.13Z" fill="#92795A"/>
<path d="M1395.12 70.62H1368.65L1367.22 69.19L1368.65 67.77H1395.12L1396.56 69.19L1395.12 70.62Z" fill="#92795A"/>
<path d="M975.31 539.54L973.88 538.11V513.6L975.31 512.16L976.75 513.6V538.11L975.31 539.54Z" fill="#92795A"/>
<path d="M1032.08 538.73L1030.65 537.3V512.79L1032.08 511.35L1033.51 512.79V537.3L1032.08 538.73Z" fill="#92795A"/>
<path d="M1088.85 538.73L1087.42 537.3V512.79L1088.85 511.35L1090.28 512.79V537.3L1088.85 538.73Z" fill="#92795A"/>
<path d="M1145.62 538.73L1144.19 537.3V512.79L1145.62 511.35L1147.05 512.79V537.3L1145.62 538.73Z" fill="#92795A"/>
<path d="M1060.47 584.28L1059.03 582.84V558.34L1060.47 556.9L1061.9 558.34V582.84L1060.47 584.28Z" fill="#92795A"/>
<path d="M1060.47 421.62L1059.03 420.18V395.68L1060.47 394.24L1061.9 395.68V420.18L1060.47 421.62Z" fill="#92795A"/>
<path d="M963.69 475.12L962.26 473.69V456.07L963.69 454.64L965.12 456.07V473.69L963.69 475.12Z" fill="#92795A"/>
<path d="M1163.46 475.12L1162.03 473.69V456.07L1163.46 454.64L1164.89 456.07V473.69L1163.46 475.12Z" fill="#92795A"/>
<path d="M1216.86 346.01L1215.43 344.58V318.62L1216.86 317.21L1218.29 318.62V344.58L1216.86 346.01Z" fill="#92795A"/>
<path d="M1263.66 346.01L1262.22 344.58V318.62L1263.66 317.21L1265.09 318.62V344.58L1263.66 346.01Z" fill="#92795A"/>
<path d="M1324.3 346.01L1322.87 344.58V318.62L1324.3 317.21L1325.74 318.62V344.58L1324.3 346.01Z" fill="#92795A"/>
<path d="M1371.1 346.01L1369.67 344.58V318.62L1371.1 317.21L1372.53 318.62V344.58L1371.1 346.01Z" fill="#92795A"/>
<path d="M1324.3 397.18L1322.87 395.75V369.79L1324.3 368.38L1325.74 369.79V395.75L1324.3 397.18Z" fill="#92795A"/>
<path d="M1371.1 397.18L1369.67 395.75V369.79L1371.1 368.38L1372.53 369.79V395.75L1371.1 397.18Z" fill="#92795A"/>
<path d="M1324.3 448.23L1322.87 446.8V420.85L1324.3 419.43L1325.74 420.85V446.8L1324.3 448.23Z" fill="#92795A"/>
<path d="M1371.1 448.23L1369.67 446.8V420.85L1371.1 419.43L1372.53 420.85V446.8L1371.1 448.23Z" fill="#92795A"/>
<path d="M1324.3 499.4L1322.87 497.96V472.01L1324.3 470.59L1325.74 472.01V497.96L1324.3 499.4Z" fill="#92795A"/>
<path d="M1371.1 499.4L1369.67 497.96V472.01L1371.1 470.59L1372.53 472.01V497.96L1371.1 499.4Z" fill="#92795A"/>
<path d="M1324.3 550.56L1322.87 549.13V523.17L1324.3 521.75L1325.74 523.17V549.13L1324.3 550.56Z" fill="#92795A"/>
<path d="M1371.1 550.56L1369.67 549.13V523.17L1371.1 521.75L1372.53 523.17V549.13L1371.1 550.56Z" fill="#92795A"/>
<path d="M1324.3 601.71L1322.87 600.28V574.33L1324.3 572.91L1325.74 574.33V600.28L1324.3 601.71Z" fill="#92795A"/>
<path d="M1371.1 601.71L1369.67 600.28V574.33L1371.1 572.91L1372.53 574.33V600.28L1371.1 601.71Z" fill="#92795A"/>
<path d="M1216.86 601.71L1215.43 600.28V574.33L1216.86 572.91L1218.29 574.33V600.28L1216.86 601.71Z" fill="#92795A"/>
<path d="M1263.66 601.71L1262.22 600.28V574.33L1263.66 572.91L1265.09 574.33V600.28L1263.66 601.71Z" fill="#92795A"/>
<path d="M1216.86 550.56L1215.43 549.13V523.17L1216.86 521.75L1218.29 523.17V549.13L1216.86 550.56Z" fill="#92795A"/>
<path d="M1263.66 550.56L1262.22 549.13V523.17L1263.66 521.75L1265.09 523.17V549.13L1263.66 550.56Z" fill="#92795A"/>
<path d="M1216.86 397.08L1215.43 395.65V369.69L1216.86 368.27L1218.29 369.69V395.65L1216.86 397.08Z" fill="#92795A"/>
<path d="M1263.66 397.08L1262.22 395.65V369.69L1263.66 368.27L1265.09 369.69V395.65L1263.66 397.08Z" fill="#92795A"/>
<path d="M1216.86 448.23L1215.43 446.8V420.85L1216.86 419.43L1218.29 420.85V446.8L1216.86 448.23Z" fill="#92795A"/>
<path d="M1216.86 499.4L1215.43 497.96V472.01L1216.86 470.59L1218.29 472.01V497.96L1216.86 499.4Z" fill="#92795A"/>
<path d="M1263.66 448.23L1262.22 446.8V420.85L1263.66 419.43L1265.09 420.85V446.8L1263.66 448.23Z" fill="#92795A"/>
<path d="M1263.66 499.4L1262.22 497.96V472.01L1263.66 470.59L1265.09 472.01V497.96L1263.66 499.4Z" fill="#92795A"/>
<path d="M935.42 448.35C931.46 448.35 929.16 447.05 927.28 443.75L927.81 441.79L929.75 442.32C931.14 444.76 932.46 445.5 935.42 445.5C939.93 445.5 943.59 440.83 943.59 435.11L945.02 433.68L946.45 435.11C946.45 442.41 941.51 448.34 935.42 448.34" fill="#92795A"/>
<path d="M954.63 448.35C948.54 448.35 943.6 442.41 943.6 435.12L945.03 433.69L946.45 435.12C946.45 440.83 950.13 445.51 954.64 445.51C959.15 445.51 962.81 440.84 962.81 435.12L964.24 433.69L965.67 435.12C965.67 442.42 960.73 448.35 954.64 448.35" fill="#92795A"/>
<path d="M973.84 448.35C967.75 448.35 962.81 442.41 962.81 435.12L964.24 433.69L965.66 435.12C965.66 440.83 969.34 445.51 973.85 445.51C978.36 445.51 982.02 440.84 982.02 435.12L983.45 433.69L984.88 435.12C984.88 442.42 979.94 448.35 973.85 448.35" fill="#92795A"/>
<path d="M993.05 448.35C986.96 448.35 982.02 442.41 982.02 435.12L983.45 433.69L984.87 435.12C984.87 440.83 988.55 445.51 993.06 445.51C997.57 445.51 1001.24 440.84 1001.24 435.12L1002.66 433.69L1004.09 435.12C1004.09 442.42 999.15 448.35 993.06 448.35" fill="#92795A"/>
<path d="M1012.26 448.35C1006.17 448.35 1001.23 442.41 1001.23 435.12L1002.66 433.69L1004.08 435.12C1004.08 440.83 1007.76 445.51 1012.27 445.51C1016.78 445.51 1020.45 440.84 1020.45 435.12L1021.87 433.69L1023.3 435.12C1023.3 442.42 1018.36 448.35 1012.27 448.35" fill="#92795A"/>
<path d="M1031.47 448.35C1025.38 448.35 1020.44 442.41 1020.44 435.12L1021.87 433.69L1023.29 435.12C1023.29 440.83 1026.97 445.51 1031.48 445.51C1035.99 445.51 1039.66 440.84 1039.66 435.12L1041.08 433.69L1042.51 435.12C1042.51 442.42 1037.57 448.35 1031.48 448.35" fill="#92795A"/>
<path d="M1050.68 448.35C1044.59 448.35 1039.65 442.41 1039.65 435.12L1041.08 433.69L1042.51 435.12C1042.51 440.83 1046.17 445.51 1050.68 445.51C1055.19 445.51 1058.86 440.84 1058.86 435.12L1060.28 433.69L1061.71 435.12C1061.71 442.42 1056.77 448.35 1050.68 448.35Z" fill="#92795A"/>
<path d="M1069.89 448.35C1063.8 448.35 1058.86 442.41 1058.86 435.12L1060.29 433.69L1061.71 435.12C1061.71 440.83 1065.39 445.51 1069.9 445.51C1072.57 445.51 1075.3 442.39 1076.37 440.73L1078.34 440.31L1078.76 442.29C1078.1 443.3 1074.58 448.36 1069.9 448.36" fill="#92795A"/>
<path d="M1068.89 447.96C1064.5 447.96 1062.3 445.17 1060.75 442.44L1061.28 440.5L1063.22 441.01C1064.91 443.97 1066.49 445.11 1068.89 445.11C1073.4 445.11 1077.07 440.45 1077.07 434.72L1078.49 433.29L1079.92 434.72C1079.92 442.02 1074.98 447.95 1068.89 447.95" fill="#92795A"/>
<path d="M1088.1 447.96C1082.01 447.96 1077.07 442.02 1077.07 434.73L1078.5 433.3L1079.92 434.73C1079.92 440.46 1083.6 445.12 1088.11 445.12C1092.62 445.12 1096.29 440.46 1096.29 434.73L1097.71 433.3L1099.14 434.73C1099.14 442.03 1094.2 447.96 1088.11 447.96" fill="#92795A"/>
<path d="M1107.31 447.96C1101.22 447.96 1096.28 442.02 1096.28 434.73L1097.71 433.3L1099.13 434.73C1099.13 440.46 1102.81 445.12 1107.32 445.12C1111.83 445.12 1115.5 440.46 1115.5 434.73L1116.92 433.3L1118.35 434.73C1118.35 442.03 1113.41 447.96 1107.32 447.96" fill="#92795A"/>
<path d="M1126.52 447.96C1120.43 447.96 1115.49 442.02 1115.49 434.73L1116.92 433.3L1118.34 434.73C1118.34 440.46 1122.02 445.12 1126.53 445.12C1131.04 445.12 1134.71 440.46 1134.71 434.73L1136.13 433.3L1137.56 434.73C1137.56 442.03 1132.62 447.96 1126.53 447.96" fill="#92795A"/>
<path d="M1145.73 447.96C1139.64 447.96 1134.7 442.02 1134.7 434.73L1136.13 433.3L1137.55 434.73C1137.55 440.46 1141.23 445.12 1145.74 445.12C1150.25 445.12 1153.92 440.46 1153.92 434.73L1155.34 433.3L1156.77 434.73C1156.77 442.03 1151.83 447.96 1145.74 447.96" fill="#92795A"/>
<path d="M1164.94 447.96C1158.85 447.96 1153.91 442.02 1153.91 434.73L1155.34 433.3L1156.76 434.73C1156.76 440.46 1160.44 445.12 1164.95 445.12C1169.46 445.12 1173.13 440.46 1173.13 434.73L1174.55 433.3L1175.98 434.73C1175.98 442.03 1171.04 447.96 1164.95 447.96" fill="#92795A"/>
<path d="M1184.15 447.96C1178.06 447.96 1173.12 442.02 1173.12 434.73L1174.55 433.3L1175.97 434.73C1175.97 440.46 1179.65 445.12 1184.16 445.12L1187.34 444.31L1189.28 444.88L1188.71 446.81C1187.32 447.58 1185.79 447.97 1184.16 447.97" fill="#92795A"/>
<path d="M1002.71 358.86C998.76 358.86 994.42 355.21 992.58 352.62L992.93 350.63L994.92 350.96C996.61 353.36 1000.21 356.01 1002.71 356.01C1007.22 356.01 1010.89 352.33 1010.89 347.82L1012.31 346.39L1013.74 347.82C1013.74 353.91 1008.8 358.85 1002.71 358.85" fill="#92795A"/>
<path d="M1021.92 358.86C1015.83 358.86 1010.89 353.92 1010.89 347.83L1012.32 346.4L1013.75 347.83C1013.75 352.34 1017.41 356.02 1021.92 356.02C1026.43 356.02 1030.1 352.34 1030.1 347.83L1031.52 346.4L1032.95 347.83C1032.95 353.92 1028.01 358.86 1021.92 358.86Z" fill="#92795A"/>
<path d="M1041.13 358.86C1035.04 358.86 1030.1 353.92 1030.1 347.83L1031.53 346.4L1032.95 347.83C1032.95 352.34 1036.63 356.02 1041.14 356.02C1045.65 356.02 1049.32 352.34 1049.32 347.83L1050.74 346.4L1052.17 347.83C1052.17 353.92 1047.23 358.86 1041.14 358.86" fill="#92795A"/>
<path d="M1060.34 358.86C1054.25 358.86 1049.31 353.92 1049.31 347.83L1050.74 346.4L1052.17 347.83C1052.17 352.34 1055.83 356.02 1060.34 356.02C1064.85 356.02 1068.52 352.34 1068.52 347.83L1069.94 346.4L1071.37 347.83C1071.37 353.92 1066.43 358.86 1060.34 358.86Z" fill="#92795A"/>
<path d="M1079.55 358.86C1073.46 358.86 1068.52 353.92 1068.52 347.83L1069.95 346.4L1071.38 347.83C1071.38 352.34 1075.04 356.02 1079.55 356.02C1084.06 356.02 1087.73 352.34 1087.73 347.83L1089.15 346.4L1090.58 347.83C1090.58 353.92 1085.64 358.86 1079.55 358.86Z" fill="#92795A"/>
<path d="M1098.76 358.86C1092.67 358.86 1087.73 353.92 1087.73 347.83L1089.16 346.4L1090.59 347.83C1090.59 352.34 1094.25 356.02 1098.76 356.02C1103.27 356.02 1106.94 352.34 1106.94 347.83L1108.36 346.4L1109.79 347.83C1109.79 353.92 1104.85 358.86 1098.76 358.86Z" fill="#92795A"/>
<path d="M1117.97 358.86C1111.88 358.86 1106.94 353.92 1106.94 347.83L1108.37 346.4L1109.8 347.83C1109.8 352.34 1113.46 356.02 1117.97 356.02C1122.48 356.02 1126.15 352.34 1126.15 347.83L1127.57 346.4L1129 347.83C1129 353.92 1124.06 358.86 1117.97 358.86Z" fill="#92795A"/>
<path d="M578.43 341.83H616.1V326.14H578.43V341.83ZM617.53 344.68H577.01L575.58 343.25V324.71L577.01 323.28H617.53L618.96 324.71V343.25L617.53 344.68Z" fill="#92795A"/>
<path d="M578.43 376.23H616.1V360.54H578.43V376.23ZM617.53 379.08H577.01L575.58 377.65V359.11L577.01 357.68H617.53L618.96 359.11V377.65L617.53 379.08Z" fill="#92795A"/>
<path d="M632.35 376.23H670.02V360.54H632.35V376.23ZM671.45 379.08H630.93L629.5 377.65V359.11L630.93 357.68H671.45L672.88 359.11V377.65L671.45 379.08Z" fill="#92795A"/>
<path d="M578.43 411.63H616.1V395.94H578.43V411.63ZM617.53 414.48H577.01L575.58 413.05V394.51L577.01 393.08H617.53L618.96 394.51V413.05L617.53 414.48Z" fill="#92795A"/>
<path d="M632.35 411.63H670.02V395.94H632.35V411.63ZM671.45 414.48H630.93L629.5 413.05V394.51L630.93 393.08H671.45L672.88 394.51V413.05L671.45 414.48Z" fill="#92795A"/>
<path d="M578.43 447.03H616.1V431.34H578.43V447.03ZM617.53 449.88H577.01L575.58 448.45V429.91L577.01 428.48H617.53L618.96 429.91V448.45L617.53 449.88Z" fill="#92795A"/>
<path d="M632.35 447.03H670.02V431.34H632.35V447.03ZM671.45 449.88H630.93L629.5 448.45V429.91L630.93 428.48H671.45L672.88 429.91V448.45L671.45 449.88Z" fill="#92795A"/>
<path d="M578.43 482.44H616.1V466.75H578.43V482.44ZM617.53 485.29H577.01L575.58 483.86V465.32L577.01 463.89H617.53L618.96 465.32V483.86L617.53 485.29Z" fill="#92795A"/>
<path d="M632.35 482.44H670.02V466.75H632.35V482.44ZM671.45 485.29H630.93L629.5 483.86V465.32L630.93 463.89H671.45L672.88 465.32V483.86L671.45 485.29Z" fill="#92795A"/>
<path d="M238.55 188.19H187.63L186.2 186.76L187.63 185.34H238.55L239.98 186.76L238.55 188.19Z" fill="#92795A"/>
</g>
<defs>
<clipPath id="clip0_642_71">
<rect width="1512.43" height="798.91" fill="white"/>
</clipPath>
</defs>
</svg>
